<svg width="80" height="80" viewBox="0 0 80 80" fill="none" xmlns="http://www.w3.org/2000/svg">
<rect width="80" height="80" rx="10" fill="black"/>
<path d="M38.654 16.2H47.618V54H38.654V51.516C36.818 53.676 34.262 54.756 30.986 54.756C27.386 54.756 24.362 53.406 21.914 50.706C19.502 47.97 18.296 44.568 18.296 40.5C18.296 36.432 19.502 33.048 21.914 30.348C24.362 27.612 27.386 26.244 30.986 26.244C34.262 26.244 36.818 27.324 38.654 29.484V16.2ZM28.88 44.766C29.924 45.846 31.292 46.386 32.984 46.386C34.676 46.386 36.044 45.846 37.088 44.766C38.132 43.686 38.654 42.264 38.654 40.5C38.654 38.736 38.132 37.314 37.088 36.234C36.044 35.154 34.676 34.614 32.984 34.614C31.292 34.614 29.924 35.154 28.88 36.234C27.836 37.314 27.314 38.736 27.314 40.5C27.314 42.264 27.836 43.686 28.88 44.766Z" fill="white"/>
<circle cx="58" cy="49" r="5" fill="#1E96F2"/>
</svg>
