<svg width="729" height="555" viewBox="0 0 729 555" fill="none" xmlns="http://www.w3.org/2000/svg">
<path d="M156.935 324.411C156.935 324.411 170.086 288.877 83.2899 268.798C-2.19096 236.234 -19.2659 171.066 20.1384 143.016C86.3876 95.8554 141.44 170.684 204.868 136.119C268.287 101.545 267.098 -8.27519 418.799 0.496924C570.492 9.26904 554.199 201.201 614.854 212.661C614.854 212.661 740.898 233.843 728.085 370.02C715.265 506.197 560.616 653.738 471.242 466.546C381.867 279.338 156.935 596.837 156.935 324.411Z" fill="#FBD0B5"/>
<path d="M156.935 324.411C156.935 324.411 170.086 288.877 83.2899 268.798C-2.19096 236.234 -19.2659 171.066 20.1384 143.016C86.3876 95.8554 141.44 170.684 204.868 136.119C268.287 101.545 267.098 -8.27519 418.799 0.496924C570.492 9.26904 554.199 201.201 614.854 212.661C614.854 212.661 740.898 233.843 728.085 370.02C715.265 506.197 560.616 653.738 471.242 466.546C381.867 279.338 156.935 596.837 156.935 324.411Z" fill="url(#paint0_linear_104_11)"/>
<defs>
<linearGradient id="paint0_linear_104_11" x1="470.832" y1="-370" x2="797.484" y2="620.142" gradientUnits="userSpaceOnUse">
<stop offset="0.0104167" stop-color="#FBD0B5"/>
<stop offset="0.351496" stop-color="#614EDB"/>
<stop offset="0.765625" stop-color="#205FD9" stop-opacity="0.65"/>
<stop offset="1" stop-color="#6367C0"/>
</linearGradient>
</defs>
</svg>
