<svg width="704" height="756" viewBox="0 0 704 756" fill="none" xmlns="http://www.w3.org/2000/svg">
<path fill-rule="evenodd" clip-rule="evenodd" d="M677.181 275.132C666.599 314.395 648.631 353.697 646.414 394.3C643.012 456.62 704.917 495.998 690.486 551.93C670.001 631.325 640.842 743.698 559.457 754.287C464.369 766.658 435.224 665.891 341.202 647.109C272.637 633.412 230.47 644.579 172.472 605.571C114.625 566.666 123.403 500.358 83.9426 442.921C49.4311 392.688 26.4128 392.727 13.2955 378.449C-16.4607 346.058 11.5942 292.888 38.8382 258.357C57.0938 235.219 74.6378 219.519 118.602 182.738C174.244 136.186 159.441 14.9416 230.747 1.45713C304.108 -12.4158 359.486 89.4164 433.253 100.901C531.563 116.206 596.087 40.0654 673.281 102.764C726.974 146.375 695.254 208.072 677.181 275.132Z" fill="#FBD0B5"/>
<path fill-rule="evenodd" clip-rule="evenodd" d="M677.181 275.132C666.599 314.395 648.631 353.697 646.414 394.3C643.012 456.62 704.917 495.998 690.486 551.93C670.001 631.325 640.842 743.698 559.457 754.287C464.369 766.658 435.224 665.891 341.202 647.109C272.637 633.412 230.47 644.579 172.472 605.571C114.625 566.666 123.403 500.358 83.9426 442.921C49.4311 392.688 26.4128 392.727 13.2955 378.449C-16.4607 346.058 11.5942 292.888 38.8382 258.357C57.0938 235.219 74.6378 219.519 118.602 182.738C174.244 136.186 159.441 14.9416 230.747 1.45713C304.108 -12.4158 359.486 89.4164 433.253 100.901C531.563 116.206 596.087 40.0654 673.281 102.764C726.974 146.375 695.254 208.072 677.181 275.132Z" fill="url(#paint0_linear_105_12)"/>
<defs>
<linearGradient id="paint0_linear_105_12" x1="1213.05" y1="397.736" x2="49.3218" y2="1023.35" gradientUnits="userSpaceOnUse">
<stop offset="0.0104167" stop-color="#FBD0B5"/>
<stop offset="0.351496" stop-color="#614EDB"/>
<stop offset="0.765625" stop-color="#205FD9" stop-opacity="0.65"/>
<stop offset="1" stop-color="#6367C0"/>
</linearGradient>
</defs>
</svg>
