<svg width="195" height="177" viewBox="0 0 195 177" fill="none" xmlns="http://www.w3.org/2000/svg">
<path d="M120.68 53.4172C120.68 53.4172 129.048 48.096 130.85 60.8704C132.645 73.5851 141.412 86.496 146.497 58.909C152.628 54.0739 155.23 57.6043 155.23 57.6043C155.23 57.6043 156.811 83.2299 139.609 85.4556C130.485 85.5835 125.765 74.8643 124.728 71.4703C123.682 68.0677 120.689 53.4258 120.689 53.4258L120.68 53.4172Z" fill="#424242"/>
<path d="M155.264 58.4144C153.963 57.6896 151.939 57.1438 149.872 56.8709C148.895 57.2632 147.772 57.9028 146.497 58.909C146.25 60.2564 145.995 61.5014 145.723 62.6612C149.422 64.5032 153.214 62.5333 155.23 61.1262C155.272 59.9665 155.272 59.0284 155.255 58.4144H155.264Z" fill="#323332"/>
<path d="M147.755 72.2889C146.207 71.9052 144.932 70.7454 143.946 68.8608C143.699 69.526 143.452 70.1229 143.206 70.6687C144.32 72.3316 145.714 73.3975 147.381 73.8069C147.934 73.9433 148.486 74.003 149.031 74.003C150.536 74.003 151.973 73.5425 153.18 72.9882C153.418 72.2889 153.639 71.5811 153.827 70.8733C152.338 71.7687 149.974 72.8262 147.764 72.2804L147.755 72.2889Z" fill="#323332"/>
<path d="M140.323 74.6937C139.804 75.0519 139.286 75.231 138.767 75.2651C138.903 79.725 140.349 82.8462 143.07 84.6029C143.682 84.3726 144.269 84.1168 144.83 83.8183C142.73 82.8547 140.383 80.5522 140.332 74.6937H140.323Z" fill="#323332"/>
<path d="M136.037 74.003C135.646 73.6278 135.272 73.1673 134.915 72.6471C133.707 72.9797 132.67 73.5681 131.82 74.4208C130.51 75.7341 129.685 77.6443 129.345 80.0235C129.787 80.5693 130.264 81.0895 130.774 81.5926C130.927 78.9149 131.658 76.8086 132.934 75.5294C133.741 74.7193 134.779 74.2077 136.046 74.003H136.037Z" fill="#323332"/>
<path d="M132.449 67.5646C132.27 67.0444 132.1 66.5157 131.947 65.9785C129.396 65.9529 127.211 66.618 125.408 67.991C124.915 68.3662 124.49 68.7755 124.124 69.1849C124.311 69.9438 124.473 70.5919 124.617 71.0865C125.145 70.319 125.876 69.5174 126.879 68.8779C128.418 67.8887 130.289 67.4623 132.457 67.5731L132.449 67.5646Z" fill="#323332"/>
<path d="M129.923 56.9647C129.779 56.9221 129.626 56.888 129.473 56.8539C127.143 56.3849 124.549 56.9647 121.76 58.5594C121.871 59.0796 121.981 59.6168 122.1 60.1711C124.711 58.5935 127.066 57.9881 129.133 58.3889C129.643 58.4912 130.077 58.6447 130.476 58.8323C130.315 58.1416 130.136 57.5276 129.932 56.9733L129.923 56.9647Z" fill="#323332"/>
<path d="M145.519 83.426C140.689 83.0508 131.131 80.6546 125.119 62.124C123.724 57.8346 122.279 54.9948 120.893 53.2978C120.765 53.3661 120.689 53.4172 120.689 53.4172C120.689 53.4172 123.69 68.0592 124.728 71.4617C125.774 74.8643 130.485 85.5835 139.609 85.4471C141.896 85.1486 143.844 84.4323 145.519 83.426V83.426Z" fill="#323332"/>
<path d="M154.447 32.8912C154.447 32.8912 152.474 34.989 149.991 38.5535C152.1 41.5211 152.73 45.1539 152.908 45.4439C153.078 45.7338 152.245 51.0295 152.219 51.328C152.202 51.6179 150.094 55.0034 144.379 54.27C138.656 53.5366 137.143 48.3859 137.143 45.64C137.143 42.8941 139.711 38.1868 139.711 38.1868L154.456 32.8912H154.447Z" fill="#28544B"/>
<path d="M137.143 45.64C137.143 45.9811 137.168 46.3649 137.219 46.7742L154.447 32.8912L139.702 38.1868C139.702 38.1868 137.134 42.8941 137.134 45.64H137.143Z" fill="#1F443B"/>
<path d="M145.714 57.0756C145.714 57.0756 145.587 62.303 151.973 60.8704C158.359 59.4292 161.616 56.1972 159.405 52.0016C157.185 47.7975 145.714 57.0841 145.714 57.0841V57.0756Z" fill="#007177"/>
<path d="M161.19 35.6371L148.095 41.7173L145.714 40.6343L157.968 34.6564L161.19 35.6371Z" fill="#63BCB8"/>
<path d="M138.997 37.4023L152.908 30.836L154.447 32.8912L140.859 39.466L138.997 39.8583V37.4023Z" fill="#63BCB8"/>
<path d="M155.272 55.3445C155.672 53.9801 154.626 52.9653 152.934 52.3086C149.362 54.1336 145.723 57.0756 145.723 57.0756C145.723 57.0756 145.595 62.303 151.981 60.8704C153.223 60.589 154.345 60.2394 155.332 59.83C154.889 58.7385 154.711 57.2803 155.281 55.3445H155.272Z" fill="#28544B"/>
<path d="M161.19 35.6371C161.19 35.6371 170.774 51.4218 155.323 56.8198C148.087 59.0796 142.347 57.8175 139.6 54.3723C143.886 55.1483 148.673 55.3445 148.282 49.955C147.891 44.5655 147.245 41.3335 147.245 41.3335L161.19 35.6371Z" fill="#0A9EA5"/>
<path d="M148.095 41.7173C148.095 41.7173 153.767 59.9579 140.765 55.1483C131.48 49.6565 138.716 37.4961 139.005 37.4023L140.859 39.4575C140.859 39.4575 134.277 49.2898 142.687 52.8885C151.088 56.4872 145.723 40.6343 145.723 40.6343C148.002 40.242 148.104 41.7173 148.104 41.7173H148.095Z" fill="#098989"/>
<path d="M107.577 26.0093C107.577 31.16 104.107 35.3471 99.8299 35.3471C95.5527 35.3471 92.0833 31.1686 92.0833 26.0093C92.0833 20.8501 95.5527 16.6716 99.8299 16.6716C104.107 16.6716 107.577 20.8501 107.577 26.0093V26.0093Z" fill="#28544B"/>
<path d="M44.5238 8.65557C45.5992 8.65557 46.4711 7.78126 46.4711 6.70274C46.4711 5.62422 45.5992 4.7499 44.5238 4.7499C43.4483 4.7499 42.5765 5.62422 42.5765 6.70274C42.5765 7.78126 43.4483 8.65557 44.5238 8.65557Z" fill="#007177"/>
<path d="M44.5238 4.7499C43.9966 4.7499 43.5204 4.9631 43.1718 5.3042C43.1718 5.32126 43.1718 5.32979 43.1718 5.34684C43.1718 6.42132 44.0391 7.29967 45.119 7.29967C45.6462 7.29967 46.1224 7.08648 46.4711 6.74538C46.4711 6.72832 46.4711 6.71979 46.4711 6.70274C46.4711 5.62825 45.6037 4.7499 44.5238 4.7499Z" fill="#068894"/>
<path d="M109.515 40.242L94.5323 31.1686L90.7908 19.2981C90.0765 17.0383 88.0867 15.256 86.3605 15.3498L69.8044 16.2111L55.9098 7.8028L45.8248 18.0104V18.0275C45.1105 18.7864 44.8724 20.1423 45.3571 21.6688L54.1496 49.5968C54.8639 51.8567 56.8537 53.6389 58.5714 53.5451L97.7381 51.507C98.4524 51.4729 99.0051 51.1062 99.3622 50.5349H99.3792C99.5323 50.262 109.507 40.242 109.507 40.242H109.515Z" fill="#007177"/>
<path d="M57.3894 8.68115L55.9183 7.79428L45.8333 18.0019V18.0189C45.17 18.7267 44.9319 19.9547 45.2806 21.3532L56.369 9.90061C56.7177 9.49128 57.0578 9.09048 57.3809 8.69821L57.3894 8.68115Z" fill="#068894"/>
<path d="M51.1564 28.508C50.8758 28.508 50.6207 28.3289 50.5357 28.0475L44.4898 7.99041C44.3877 7.64078 44.5833 7.28262 44.9234 7.17176C45.2636 7.06943 45.6292 7.26556 45.7398 7.60667L51.7857 27.6722C51.8877 28.0133 51.6922 28.38 51.352 28.4824C51.2925 28.4994 51.2245 28.508 51.1649 28.508H51.1564Z" fill="black"/>
<path d="M93.9626 1.95283C93.9626 3.02732 93.0952 3.90567 92.0153 3.90567C90.9353 3.90567 90.068 3.03585 90.068 1.95283C90.068 0.869821 90.9353 0 92.0153 0C93.0952 0 93.9626 0.869821 93.9626 1.95283Z" fill="#007177"/>
<path d="M92.0238 0C91.6836 0 91.369 0.0938042 91.0969 0.247302C91.0459 0.426383 91.0119 0.605463 91.0119 0.8016C91.0119 1.87608 91.8792 2.75443 92.9592 2.75443C93.2993 2.75443 93.6139 2.66063 93.8945 2.50713C93.9455 2.32805 93.9796 2.14897 93.9796 1.95283C93.9796 0.878348 93.1122 0 92.0323 0H92.0238Z" fill="#068894"/>
<path d="M98.6479 23.758C98.3673 23.758 98.1122 23.579 98.0272 23.289L91.9813 3.23198C91.8792 2.88235 92.0748 2.52419 92.4149 2.41333C92.7551 2.311 93.1207 2.50713 93.2228 2.84824L99.2687 22.9053C99.3707 23.2549 99.1751 23.6131 98.835 23.7239C98.7755 23.741 98.7075 23.7495 98.6479 23.7495V23.758Z" fill="black"/>
<path d="M57.4405 37.7519C56.6752 30.2732 49.8979 27.5699 46.9728 26.7513L52.7636 45.1369L57.4405 37.7519V37.7519Z" fill="#28544B"/>
<path d="M55.187 51.5497C56.1224 52.7862 57.4064 53.5963 58.5799 53.5366L97.7466 51.4985C98.4608 51.4644 99.0136 51.0977 99.3707 50.5264H99.3877C99.5408 50.2535 109.515 40.2335 109.515 40.2335L101.437 35.3386C88.5119 35.8673 71.6751 36.7201 71.6751 36.7201L55.187 51.5411V51.5497Z" fill="#28544B"/>
<path d="M109.515 40.242L101.437 35.3471C88.5119 35.8758 71.6752 36.7286 71.6752 36.7286L66.216 41.632C67.1854 42.7235 68.4439 43.4228 69.6003 43.3631L108.597 41.163C109.167 40.5916 109.515 40.242 109.515 40.242Z" fill="#068894"/>
<path d="M67.7636 36.7286L54.3367 50.0488C54.9574 51.5753 56.1309 52.8203 57.3639 53.3149L70.153 39.79L67.7636 36.7371V36.7286Z" fill="#0A9EA5"/>
<path d="M108.18 40.8219L69.0136 42.86C67.2874 42.9453 65.2976 41.1715 64.5833 38.9117L55.7908 10.9836C55.0765 8.72379 55.9013 6.79654 57.6275 6.71127L96.7942 4.67316C98.5204 4.57935 100.51 6.36163 101.224 8.62146L110.017 36.5495C110.731 38.8094 109.898 40.7366 108.18 40.8219Z" fill="#28544B"/>
<path d="M101.224 8.61293C100.51 6.3531 98.5204 4.57082 96.7942 4.66463L57.6275 6.70274C57.0578 6.72832 56.5986 6.97562 56.25 7.35084C56.0544 8.06716 56.0714 8.94551 56.369 9.88355L65.1615 37.8116C65.8758 40.0715 67.8656 41.8537 69.5918 41.7599L108.758 39.7218C109.328 39.6962 109.787 39.4489 110.136 39.0737C110.323 38.3574 110.315 37.479 110.017 36.541L101.224 8.61293V8.61293Z" fill="#068894"/>
<path d="M105.425 36.1487L103.172 35.7479L101.284 30.3329C101.063 29.6848 99.8214 29.2157 98.5459 29.284L74.6768 30.691L68.8435 29.2754L67.67 31.6717C67.6105 31.7399 67.568 31.8167 67.534 31.8934C67.483 32.0299 67.466 32.1748 67.517 32.3198L70.3146 40.3529C70.5442 41.001 71.7772 41.47 73.0527 41.4018L102.151 39.6877C103.155 39.628 103.895 39.2443 104.056 38.7667H104.099L105.4 36.1487H105.425Z" fill="#1F443B"/>
<path d="M106.726 33.4028L104.473 33.002L102.585 27.587C102.355 26.9389 101.122 26.4698 99.8469 26.5381L75.9779 27.9451L70.1445 26.5295L68.9711 28.9258C68.9116 28.994 68.869 29.0708 68.8435 29.1475C68.7925 29.284 68.7755 29.4289 68.8265 29.5739L71.6241 37.607C71.8537 38.2551 73.0867 38.7241 74.3622 38.6559L103.461 36.9418C104.464 36.8821 105.204 36.4984 105.374 36.0208L105.417 36.0038L106.718 33.3943L106.726 33.4028Z" fill="#007177"/>
<path d="M74.3877 35.3471L72.4575 38.3489C72.9762 38.5791 73.6649 38.707 74.3707 38.6644L103.469 36.9503C104.473 36.8906 105.213 36.5069 105.383 36.0293L105.425 36.0123L106.726 33.4028L104.872 33.0702L101.131 33.454L74.3962 35.3386L74.3877 35.3471Z" fill="#28544B"/>
<path d="M75.8078 34.8781L73.9626 33.9486L71.5476 37.3426L71.6411 37.624C71.8112 38.1016 72.5085 38.4768 73.3843 38.6132L75.8163 34.8781H75.8078Z" fill="#FAFAFA"/>
<path d="M77.3129 46.7827L66.5561 53.1188L79.966 52.4195C80.6207 50.8589 80.119 48.9658 77.3129 46.7827V46.7827Z" fill="#1F443B"/>
<path d="M97.3044 6.09727C97.8996 5.98641 98.5544 6.42985 98.7755 7.08648C98.9966 7.75164 98.6905 8.37415 98.0952 8.49354C97.5 8.6044 96.8452 8.16096 96.6241 7.50433C96.4115 6.83918 96.7092 6.21666 97.3044 6.09727Z" fill="#007177"/>
<path d="M98.835 6.32752C99.2176 6.88182 99.1326 7.59814 98.6394 7.93925C98.1547 8.28035 97.4489 8.10127 97.0663 7.5555C96.6836 7.0012 96.7772 6.28488 97.2619 5.94377C97.7466 5.60267 98.4523 5.78175 98.8265 6.32752H98.835Z" fill="#068894"/>
<path d="M97.8996 6.012C98.1462 5.97789 98.3758 6.15697 98.4098 6.4128C98.4439 6.6601 98.2653 6.89035 98.0102 6.92446C97.7636 6.95857 97.534 6.77949 97.5 6.52366C97.466 6.27635 97.6445 6.04611 97.8996 6.012Z" fill="#0A9EA5"/>
<path d="M104.83 34.2897L75.7313 36.0038C74.4558 36.0805 73.2228 35.6115 72.9932 34.9549L70.1956 26.9218C69.966 26.2737 70.8333 25.6768 72.1088 25.6L101.207 23.886C102.491 23.8092 103.724 24.2782 103.946 24.9349L106.743 32.9679C106.973 33.616 106.105 34.2129 104.83 34.2897V34.2897Z" fill="#0A9EA5"/>
<path d="M102.015 32.4904L76.8452 33.9401C75.7398 34.0083 74.7024 33.6928 74.5493 33.2493L72.636 27.7746C72.483 27.3311 73.2568 26.9133 74.3622 26.8536L99.5323 25.4039C100.638 25.3357 101.675 25.6512 101.828 26.0946L103.75 31.5694C103.903 32.0128 103.129 32.4307 102.015 32.4904V32.4904Z" fill="#007177"/>
<path d="M101.131 25.583C100.706 25.438 100.136 25.3612 99.5408 25.3954L74.3707 26.8451C73.2653 26.9047 72.483 27.3226 72.6445 27.766L73.5714 30.4096L99.3112 28.5079L101.139 25.583H101.131Z" fill="#28544B"/>
<path d="M102.611 32.4136L100.748 27.0924C100.595 26.6489 99.5578 26.3419 98.4524 26.4016L73.2823 27.8513C73.0697 27.8598 72.8741 27.894 72.6956 27.9281L74.5578 33.2493C74.7109 33.6928 75.7483 33.9998 76.8537 33.9401L102.024 32.4904C102.236 32.4818 102.432 32.4477 102.611 32.4136V32.4136Z" fill="#A74D4B"/>
<path d="M60.3741 30.4437C60.3741 35.603 56.9047 39.7815 52.619 39.7815C48.3333 39.7815 44.8724 35.603 44.8724 30.4437C44.8724 25.2845 48.3418 21.1059 52.619 21.1059C56.8962 21.1059 60.3741 25.2845 60.3741 30.4437Z" fill="#068894"/>
<path d="M52.2194 21.1315C48.1292 21.3874 44.8724 25.4465 44.8724 30.4437C44.8724 34.5285 47.0578 37.9907 50.0935 39.2613C54.1837 39.0055 57.4405 34.9378 57.4405 29.9491C57.4405 25.8644 55.2551 22.4021 52.2194 21.1315V21.1315Z" fill="#0A9EA5"/>
<path d="M47.466 23.4937C45.8758 25.1992 44.8809 27.6722 44.8809 30.4437C44.8809 34.5285 47.0663 37.9907 50.102 39.2613C51.8537 39.1505 53.4524 38.3403 54.7024 37.0612C52.7891 36.1914 46.0374 33.6672 47.466 23.5022V23.4937Z" fill="#068894"/>
<path d="M51.6836 29.9491C51.6836 31.8849 50.5017 33.454 49.0391 33.454C47.5765 33.454 46.3945 31.8849 46.3945 29.9491C46.3945 28.0133 47.5765 26.4443 49.0391 26.4443C50.5017 26.4443 51.6836 28.0133 51.6836 29.9491Z" fill="#007177"/>
<path d="M49.0306 26.4443C48.8265 26.4443 48.6309 26.4784 48.4439 26.5381C47.568 27.1094 46.9643 28.2948 46.9643 29.6677C46.9643 31.6035 48.1462 33.1811 49.6088 33.1811C49.8129 33.1811 50.0085 33.147 50.1956 33.0873C51.0629 32.5159 51.6751 31.3306 51.6751 29.9577C51.6751 28.0219 50.4932 26.4528 49.0306 26.4528V26.4443Z" fill="#068894"/>
<path d="M96.7091 30.1708L101.743 29.9406L101.437 29.0793L96.437 29.3181L95.5527 26.5636L94.6513 26.6148L95.5357 29.3607L90.5867 29.591L89.7278 26.8962L88.8265 26.9474L89.6938 29.6336L85.1445 29.8468L84.2942 27.2117L83.4013 27.2629L84.2432 29.8894L78.818 30.1453L77.9932 27.5784L77.0918 27.6296L77.9166 30.1879L73.5544 30.3926L73.852 31.2539L78.1887 31.0492L79.0816 33.8036L79.9745 33.7525L79.0901 31.0066L84.5153 30.7507L85.3826 33.4455L86.284 33.3943L85.4166 30.7081L89.9659 30.4949L90.8163 33.1299L91.7091 33.0788L90.8673 30.4523L95.8163 30.2135L96.6411 32.7974L97.5425 32.7462L96.7091 30.1708Z" fill="#BC5C5C"/>
<path d="M85.034 66.1234C92.5387 66.1234 98.6224 61.3739 98.6224 55.515C98.6224 49.6562 92.5387 44.9066 85.034 44.9066C77.5293 44.9066 71.4456 49.6562 71.4456 55.515C71.4456 61.3739 77.5293 66.1234 85.034 66.1234Z" fill="#424242"/>
<path d="M73.5629 59.7277C73.5629 53.8692 79.6513 49.1193 87.1513 49.1193C93.6564 49.1193 99.0816 52.6924 100.417 57.4508C99.966 51.9078 94.0816 47.5161 86.8707 47.5161C79.6598 47.5161 73.2823 52.266 73.2823 58.1245C73.2823 58.909 73.4013 59.668 73.6054 60.4014C73.5884 60.1797 73.5629 59.9494 73.5629 59.7192V59.7277Z" fill="#323332"/>
<path d="M67.2023 10.0797C64.1241 10.9921 62.3554 15.6738 63.835 19.2213C65.3146 22.7688 69.0136 24.9008 72.0918 23.9883C72.0918 23.9883 75.0935 23.3317 76.0799 20.7137C75.1105 17.7034 67.2023 10.0797 67.2023 10.0797V10.0797Z" fill="#28544B"/>
<path d="M68.4609 8.57882C65.3826 9.49128 63.6139 14.173 65.0935 17.7205C66.5731 21.268 70.3741 22.8371 73.4524 21.9246C73.4524 21.9246 76.352 21.8393 77.3384 19.2213C76.369 16.2111 68.4609 8.58735 68.4609 8.58735V8.57882Z" fill="#FAFAFA"/>
<path d="M67.1598 16.0832L65.4251 18.3856C67.0663 21.5238 70.4847 23.3402 73.3673 22.4874C73.3673 22.4874 76.369 21.8308 77.3554 19.2128C77.0748 18.343 76.2074 17.0894 75.1275 15.742C73.1547 15.3327 70.5357 15.3498 67.1683 16.0832H67.1598Z" fill="#007177"/>
<path d="M65.102 17.7205C65.3231 18.2407 65.5867 18.7267 65.8928 19.1787L68.0272 17.1406L66.8452 14.5567L64.7874 16.7483C64.8724 17.0809 64.966 17.4049 65.102 17.7205V17.7205Z" fill="#0A9EA5"/>
<path d="M77.7551 12.9023C79.2347 16.4498 77.9421 20.0656 74.8639 20.978C71.7857 21.8905 68.0867 19.7586 66.6071 16.2111C65.1275 12.6636 66.42 9.04784 69.4983 8.13538C72.5765 7.22292 76.2755 9.36337 77.7551 12.9023Z" fill="#068894"/>
<path d="M77.0493 13.0217C78.2313 15.8529 77.2024 18.7353 74.7449 19.4686C72.2874 20.1935 69.3367 18.488 68.1462 15.6568C66.9643 12.8256 67.9932 9.94325 70.4507 9.20987C72.9081 8.48502 75.8588 10.1905 77.0408 13.0217H77.0493Z" fill="#007177"/>
<path d="M69.4898 10.2417C69.0561 10.3696 68.6734 10.5658 68.3333 10.8216C67.534 12.0922 67.4064 13.883 68.1462 15.6568C69.3282 18.488 72.2789 20.1935 74.7449 19.4686C75.1785 19.3407 75.5612 19.1446 75.9013 18.8888C76.7006 17.6181 76.8282 15.8273 76.0884 14.0536C74.9064 11.2224 71.9557 9.51686 69.4983 10.2417H69.4898Z" fill="#FFD6A0"/>
<path d="M73.5204 11.4953C74.1581 12.1604 74.2432 13.107 73.716 13.6187C73.1888 14.1303 72.7466 13.6187 72.1173 12.962C71.4796 12.2969 70.8928 11.7255 71.42 11.2139C71.9473 10.7022 72.8911 10.8301 73.5289 11.4953H73.5204Z" fill="#F56462"/>
<path d="M88.9371 8.08422C85.8588 8.99668 84.0901 13.6784 85.5697 17.2259C87.0493 20.7734 90.7483 22.9053 93.8265 21.9928C93.8265 21.9928 96.8282 21.3362 97.8146 18.7182C96.8452 15.7079 88.9371 8.08422 88.9371 8.08422V8.08422Z" fill="#28544B"/>
<path d="M90.1956 6.59188C87.1173 7.50434 85.3486 12.186 86.8282 15.7335C88.3078 19.281 92.1088 20.8501 95.1871 19.9377C95.1871 19.9377 98.0867 19.8524 99.0731 17.2344C98.1037 14.2241 90.1956 6.6004 90.1956 6.6004V6.59188Z" fill="#FAFAFA"/>
<path d="M88.886 14.0962L87.1513 16.3987C88.7925 19.5369 92.2109 21.3533 95.0935 20.5005C95.0935 20.5005 98.0952 19.8439 99.0816 17.2259C98.801 16.356 97.9337 15.1025 96.8537 13.7551C94.8809 13.3458 92.2619 13.3628 88.8945 14.0962H88.886Z" fill="#007177"/>
<path d="M86.8367 15.725C87.0578 16.2452 87.3214 16.7313 87.6275 17.1832L89.7619 15.1451L88.5884 12.5612L86.5306 14.7528C86.6156 15.0854 86.7092 15.4095 86.8452 15.725H86.8367Z" fill="#0A9EA5"/>
<path d="M99.4898 10.9154C100.969 14.4629 99.6769 18.0786 96.5986 18.9911C93.5204 19.9035 89.8214 17.7631 88.3418 14.2241C86.8622 10.6766 88.1548 7.0609 91.233 6.14844C94.3112 5.23598 98.0102 7.37642 99.4898 10.9154V10.9154Z" fill="#068894"/>
<path d="M98.784 11.0263C99.966 13.8574 98.9371 16.7398 96.4796 17.4732C94.0221 18.198 91.0714 16.4925 89.8895 13.6613C88.7075 10.8301 89.7364 7.94777 92.1939 7.2144C94.6514 6.48955 97.602 8.19508 98.784 11.0263Z" fill="#007177"/>
<path d="M91.2245 8.25477C90.7908 8.38269 90.4081 8.57882 90.068 8.83465C89.2687 10.1053 89.1411 11.8961 89.8809 13.6698C91.0629 16.501 94.0221 18.2065 96.4711 17.4817C96.9047 17.3538 97.2874 17.1576 97.6275 16.9018C98.4268 15.6312 98.5544 13.8404 97.8146 12.0666C96.6326 9.23545 93.682 7.52992 91.2245 8.25477Z" fill="#FFD6A0"/>
<path d="M95.2551 9.49981C95.8928 10.165 95.9779 11.1115 95.4507 11.6232C94.9235 12.1349 94.4813 11.6232 93.8435 10.9666C93.2058 10.3014 92.619 9.73005 93.1462 9.2184C93.6735 8.70674 94.6173 8.83465 95.2551 9.49981V9.49981Z" fill="#F56462"/>
<path d="M49.2942 28.5165C49.0646 28.7553 48.852 29.0026 48.6394 29.2669C48.4609 28.8746 48.3078 28.4738 48.1633 28.0475C48.0782 27.7831 47.8826 27.6893 47.7296 27.8598C47.5765 28.0304 47.534 28.4056 47.6275 28.67C47.7891 29.0878 47.9677 29.4972 48.1548 29.8894C47.9592 30.1708 47.7636 30.4608 47.585 30.7593C47.466 30.9469 47.5 31.3135 47.6445 31.5523C47.7976 31.7911 48.0102 31.8167 48.1122 31.6205C48.2738 31.3221 48.4524 31.0321 48.6309 30.7593C48.8435 31.1259 49.0816 31.467 49.3197 31.7996C49.4728 32.0043 49.6854 32.0299 49.7874 31.8593C49.8894 31.6888 49.8469 31.3988 49.7024 31.1856C49.4728 30.8531 49.2602 30.5034 49.0561 30.1453C49.2517 29.8809 49.4558 29.6336 49.6599 29.3948C49.7874 29.2413 49.8129 28.9343 49.7109 28.6956C49.6088 28.4568 49.4218 28.3715 49.2772 28.5165H49.2942Z" fill="#007177"/>
<path d="M49.7194 31.1771C49.4898 30.8445 49.2772 30.4949 49.0731 30.1367C49.2687 29.8724 49.4728 29.6251 49.6769 29.3863C49.8044 29.2328 49.8299 28.9258 49.7279 28.687C49.7109 28.6444 49.6854 28.6103 49.6599 28.5762C49.6599 28.5762 49.6428 28.5762 49.6343 28.5932C49.4047 28.832 49.1922 29.0793 48.9796 29.3437L48.6394 29.2669C48.4609 28.8746 48.3078 28.4738 48.1633 28.0475C48.1462 27.9963 48.1207 27.9622 48.1037 27.9281C48.1037 27.9281 48.0867 27.9281 48.0782 27.9451C47.9252 28.1157 47.8826 28.4909 47.9847 28.7553C48.1462 29.1731 48.3248 29.5824 48.5119 29.9747C48.3163 30.2561 48.1207 30.5461 47.9422 30.8445C47.8231 31.0321 47.8486 31.3988 48.0017 31.6376C48.0187 31.6632 48.0357 31.6802 48.0527 31.6973C48.0782 31.6802 48.1037 31.6632 48.1207 31.6291C48.2823 31.3306 48.4609 31.0407 48.6394 30.7678C48.6905 30.7678 48.9796 30.8445 48.9796 30.8445C49.2007 31.2112 49.4303 31.5523 49.6684 31.8849C49.6854 31.902 49.7024 31.919 49.7194 31.9361C49.7449 31.919 49.7704 31.902 49.7874 31.8678C49.8894 31.6973 49.8469 31.4074 49.7024 31.1942L49.7194 31.1771Z" fill="#28544B"/>
<path d="M58.1887 7.71753C58.784 7.60667 59.4387 8.05011 59.6598 8.70674C59.8724 9.37189 59.5748 9.99441 58.9796 10.1138C58.3843 10.2247 57.7296 9.78122 57.517 9.12459C57.2959 8.45943 57.602 7.83692 58.1972 7.71753H58.1887Z" fill="#007177"/>
<path d="M59.7194 7.94777C60.102 8.50207 60.0085 9.21839 59.5238 9.5595C59.0391 9.90061 58.3333 9.72153 57.9507 9.17576C57.568 8.62146 57.6615 7.90514 58.1462 7.56403C58.6309 7.22292 59.3367 7.402 59.7194 7.94777Z" fill="#068894"/>
<path d="M58.784 7.63225C59.0306 7.59814 59.2602 7.77722 59.2942 8.03305C59.3282 8.28035 59.1496 8.5106 58.8945 8.54471C58.6479 8.57882 58.4184 8.39974 58.3843 8.14391C58.3503 7.89661 58.5289 7.66636 58.784 7.63225Z" fill="#0A9EA5"/>
<path d="M67.517 37.3682C68.1122 37.2573 68.767 37.7008 68.9796 38.3574C69.2007 39.014 68.8945 39.6451 68.2993 39.7645C67.7041 39.8753 67.0493 39.4319 66.8367 38.7752C66.6156 38.1186 66.9217 37.4876 67.517 37.3682Z" fill="#007177"/>
<path d="M79.4558 45.8447C74.7364 47.5076 71.4456 51.2086 71.4456 55.515C71.4456 57.7066 72.2959 59.7362 73.75 61.4247C77.3724 61.672 81.284 60.5208 84.9235 58.3889C86.1564 57.664 81.4626 51.4047 79.4558 45.8447Z" fill="#323332"/>
<path d="M69.0476 37.5984C69.4303 38.1527 69.3367 38.869 68.852 39.2102C68.3673 39.5513 67.6616 39.3722 67.2789 38.8264C66.8963 38.2721 66.9898 37.5558 67.4745 37.2147C67.9592 36.8736 68.665 37.0527 69.0476 37.5984Z" fill="#068894"/>
<path d="M68.1122 37.2829C68.3588 37.2488 68.5884 37.4279 68.6224 37.6837C68.6564 37.9395 68.4779 38.1613 68.2228 38.1954C67.9762 38.2295 67.7466 38.0504 67.7126 37.7946C67.6785 37.5473 67.8571 37.317 68.1122 37.2829Z" fill="#0A9EA5"/>
<path d="M54.6428 66.0296L65.5017 124.12C65.9268 126.619 68.2057 128.478 70.5527 128.256L111.565 124.205C111.786 124.18 111.99 124.129 112.202 124.077H112.245L112.33 124.052C112.372 124.035 112.415 124.026 112.457 124.009L132.202 118.168C132.202 118.168 120.723 104.123 110.553 93.0111L104.583 58.1757C104.158 55.6771 101.879 53.818 99.5323 54.0397L77.0833 56.1802C75.0255 54.108 73.6649 52.7521 73.6649 52.7521L57.67 61.1774C57.4745 61.22 57.2789 61.2712 57.0918 61.3479L56.9557 61.3906V61.4076C55.2891 62.1325 54.2857 63.983 54.6343 66.0296H54.6428Z" fill="#007177"/>
<path d="M69.6343 128.239C69.9405 128.282 70.2466 128.29 70.5527 128.256L111.565 124.205C111.786 124.18 111.99 124.129 112.202 124.077H112.245L112.33 124.052C112.372 124.035 112.415 124.026 112.457 124.009L132.202 118.168C132.202 118.168 131.19 116.923 129.498 114.893L87.1428 119.131L69.6258 128.239H69.6343Z" fill="#28544B"/>
<path d="M89.7534 121.562C87.6445 116.965 83.7755 116.402 83.7755 116.402L65.8333 125.22C66.6411 127.139 68.5629 128.452 70.5527 128.256L78.6905 127.454C84.3452 124.845 90 122.082 89.7619 121.562H89.7534Z" fill="#0A9EA5"/>
<path d="M75.9353 55.0204C74.5408 53.6219 73.6649 52.7435 73.6649 52.7435L57.67 61.1689C57.4745 61.2115 57.2789 61.2627 57.0918 61.3394L56.9557 61.3821V61.3991C55.2891 62.124 54.2857 63.9745 54.6343 66.0211L54.6938 66.3622L75.7908 56.5895C75.8673 56.0267 75.9098 55.5065 75.9268 55.0204H75.9353Z" fill="#068894"/>
<path d="M107.474 35.6797C108.07 35.5688 108.724 36.0123 108.946 36.6689C109.158 37.3341 108.861 37.9566 108.265 38.076C107.67 38.1868 107.015 37.7434 106.803 37.0868C106.582 36.4216 106.888 35.7991 107.483 35.6797H107.474Z" fill="#007177"/>
<path d="M109.014 35.9185C109.396 36.4728 109.303 37.1891 108.818 37.5302C108.333 37.8713 107.628 37.6922 107.245 37.1465C106.862 36.5922 106.956 35.8758 107.44 35.5347C107.925 35.1936 108.631 35.3727 109.014 35.9185Z" fill="#068894"/>
<path d="M108.078 35.603C108.325 35.5688 108.554 35.7479 108.588 36.0038C108.622 36.2511 108.444 36.4813 108.189 36.5154C107.942 36.5495 107.713 36.3704 107.679 36.1146C107.653 35.8673 107.823 35.6371 108.078 35.603Z" fill="#0A9EA5"/>
<path d="M130.978 118.492L86.267 122.756C83.9115 122.977 81.6411 121.118 81.216 118.62L70.7483 57.5276C70.3231 55.029 71.8962 52.8032 74.2432 52.5815L118.954 48.3177C121.301 48.096 123.58 49.955 124.005 52.4536L134.473 113.546C134.898 116.044 133.325 118.27 130.978 118.5V118.492Z" fill="#28544B"/>
<path d="M134.838 113.298L124.371 52.2063C123.946 49.7077 121.667 47.8487 119.32 48.0704L74.6088 52.3342C73.5119 52.4365 72.5935 52.9908 71.9558 53.7924C71.5901 54.577 71.4456 55.5065 71.6156 56.4701L82.0833 117.562C82.5085 120.061 84.7874 121.92 87.1343 121.698L131.845 117.434C132.942 117.332 133.861 116.778 134.498 115.976C134.864 115.192 135.008 114.262 134.838 113.298Z" fill="#068894"/>
<path d="M124.073 113.35L93.0272 116.377C90.5697 116.616 88.2143 114.825 87.7976 112.394L83.0697 84.9951C82.653 82.5648 84.3197 80.3817 86.7772 80.1344L117.823 77.1071C120.281 76.8683 122.636 78.6591 123.053 81.0895L127.781 108.489C128.197 110.919 126.531 113.102 124.073 113.341V113.35Z" fill="#007177"/>
<path d="M123.061 112.164L93.8435 115.021C91.5306 115.251 89.3197 113.571 88.9201 111.294L84.4898 85.6262C84.0986 83.3493 85.6632 81.3027 87.9762 81.0724L117.194 78.2156C119.507 77.9854 121.718 79.6653 122.117 81.9422L126.556 107.61C126.947 109.887 125.383 111.934 123.07 112.164H123.061Z" fill="#28544B"/>
<path d="M126.794 107.926L122.355 82.2578C121.964 79.9809 119.745 78.3009 117.432 78.5312L88.2143 81.3879C87.1939 81.4903 86.335 81.9508 85.7143 82.6159C85.4337 83.2811 85.3231 84.0315 85.4592 84.8075L89.8894 110.476C90.2806 112.753 92.5 114.433 94.8129 114.202L124.031 111.346C125.051 111.243 125.91 110.783 126.531 110.109C126.811 109.444 126.922 108.693 126.786 107.917L126.794 107.926Z" fill="#068894"/>
<path d="M85.5527 118.082C86.1479 117.972 86.8027 118.415 87.0153 119.072C87.2279 119.737 86.9302 120.359 86.335 120.479C85.7398 120.59 85.085 120.146 84.8724 119.489C84.6513 118.824 84.9574 118.202 85.5527 118.082Z" fill="#007177"/>
<path d="M87.0918 118.321C87.4745 118.867 87.3809 119.592 86.8962 119.933C86.4115 120.274 85.7057 120.095 85.3231 119.549C84.9404 118.995 85.034 118.279 85.5187 117.937C86.0034 117.596 86.7091 117.767 87.0918 118.321Z" fill="#068894"/>
<path d="M86.1479 118.006C86.3945 117.972 86.6241 118.151 86.6581 118.406C86.6921 118.662 86.5136 118.884 86.2585 118.918C86.0119 118.952 85.7823 118.765 85.7483 118.517C85.7143 118.27 85.8928 118.04 86.1479 118.006Z" fill="#0A9EA5"/>
<path d="M73.7585 54.722C74.3537 54.6111 75.0085 55.0545 75.2211 55.7112C75.4422 56.3678 75.136 56.9988 74.5408 57.1182C73.9456 57.2291 73.2908 56.7857 73.0782 56.129C72.8571 55.4724 73.1633 54.8413 73.7585 54.722Z" fill="#007177"/>
<path d="M75.2891 54.9607C75.6717 55.515 75.5782 56.2314 75.0935 56.5725C74.6088 56.9136 73.903 56.7345 73.5204 56.1887C73.1377 55.6344 73.2313 54.9181 73.716 54.577C74.2007 54.2359 74.9064 54.415 75.2891 54.9607Z" fill="#068894"/>
<path d="M74.3537 54.6452C74.6003 54.6111 74.8299 54.7902 74.8639 55.046C74.898 55.2933 74.7194 55.5236 74.4643 55.5577C74.2177 55.5918 73.9881 55.4127 73.9541 55.1569C73.9201 54.9096 74.0986 54.6793 74.3537 54.6452Z" fill="#0A9EA5"/>
<path d="M120.451 50.0744C121.046 49.9635 121.701 50.407 121.913 51.0636C122.134 51.7202 121.828 52.3513 121.233 52.4707C120.638 52.5815 119.983 52.1381 119.77 51.4815C119.558 50.8163 119.855 50.1938 120.451 50.0744Z" fill="#007177"/>
<path d="M121.981 50.3132C122.364 50.8675 122.27 51.5838 121.786 51.9249C121.301 52.266 120.595 52.0869 120.213 51.5411C119.83 50.9868 119.923 50.2705 120.408 49.9294C120.893 49.5883 121.599 49.7674 121.981 50.3132Z" fill="#068894"/>
<path d="M121.046 49.9976C121.293 49.9635 121.522 50.1426 121.556 50.3984C121.59 50.6543 121.412 50.876 121.156 50.9101C120.91 50.9442 120.68 50.7651 120.646 50.5093C120.612 50.262 120.791 50.0318 121.046 49.9976Z" fill="#0A9EA5"/>
<path d="M106.292 59.3866C108.044 63.2496 106.344 67.7949 102.491 69.5515C98.6394 71.3082 94.1071 69.6027 92.3554 65.7397C90.6037 61.8767 92.3044 57.3314 96.1564 55.5747C100.008 53.818 104.541 55.5236 106.292 59.3866Z" fill="#28544B"/>
<path d="M131.701 113.315C132.296 113.205 132.951 113.64 133.163 114.305C133.384 114.97 133.078 115.592 132.483 115.712C131.888 115.823 131.233 115.388 131.02 114.723C130.808 114.057 131.105 113.435 131.701 113.315Z" fill="#007177"/>
<path d="M133.231 113.554C133.614 114.109 133.52 114.825 133.036 115.166C132.551 115.507 131.845 115.328 131.463 114.782C131.08 114.228 131.173 113.512 131.658 113.171C132.143 112.829 132.849 113.008 133.231 113.554Z" fill="#068894"/>
<path d="M132.296 113.239C132.542 113.205 132.772 113.384 132.806 113.64C132.84 113.895 132.662 114.117 132.406 114.151C132.16 114.185 131.93 114.006 131.896 113.75C131.862 113.503 132.041 113.273 132.296 113.239Z" fill="#0A9EA5"/>
<path d="M102.56 67.6925C99.2432 69.2019 95.2296 67.3855 93.6309 63.8551C92.0238 60.3161 93.4184 56.2228 96.7347 54.7134L99.4133 53.7583L104.541 66.8312L102.56 67.7011V67.6925Z" fill="#007177"/>
<path d="M118.104 76.5783L84.7364 79.9126C83.2908 80.0576 81.8877 79.0258 81.6241 77.6272L81.1054 74.924C80.8418 73.5254 81.8027 72.2633 83.2483 72.1184L116.616 68.7926C118.061 68.6476 119.464 69.6795 119.728 71.078L120.247 73.7813C120.51 75.1798 119.549 76.4419 118.104 76.5869V76.5783Z" fill="#28544B"/>
<path d="M86.8112 83.1276C87.4064 83.0167 88.0612 83.4602 88.2738 84.1168C88.4949 84.7734 88.1887 85.4045 87.5935 85.5153C86.9983 85.6262 86.3435 85.1827 86.1224 84.5261C85.9098 83.861 86.2075 83.2384 86.8027 83.1191L86.8112 83.1276Z" fill="#007177"/>
<path d="M87.4064 83.0423C87.653 83.0082 87.8826 83.1873 87.9166 83.4431C87.9507 83.6904 87.7721 83.9206 87.517 83.9548C87.2704 83.9889 87.0408 83.8098 87.0068 83.554C86.9728 83.3067 87.1513 83.0764 87.4064 83.0423Z" fill="#28544B"/>
<path d="M88.3248 83.3408L87.9337 83.861L87.2024 84.4408C87.2024 84.4408 86.7517 84.5176 86.6666 84.33C86.5731 84.1338 86.4456 83.5369 86.9047 83.5113C87.3639 83.4857 87.7126 82.94 88.3248 83.3493V83.3408Z" fill="#007177"/>
<path d="M86.8707 84.3214C86.8027 84.1594 86.7262 83.9803 86.7262 83.9803C86.7262 83.9803 87.3724 83.1446 88.3248 83.3408C87.9422 82.8121 87.2619 82.65 86.7772 82.9826C86.2925 83.3237 86.199 84.04 86.5816 84.5943C86.9643 85.1486 87.6615 85.3192 88.1547 84.9781C88.5629 84.6967 88.6734 84.1509 88.4779 83.6563C88.1802 83.6222 87.466 83.6307 86.8707 84.33V84.3214Z" fill="#068894"/>
<path d="M87.636 83.1191C87.636 83.2555 87.4915 83.3664 87.3214 83.3664C87.1513 83.3664 87.0068 83.2555 87.0068 83.1191C87.0068 82.9826 87.1513 82.8717 87.3214 82.8717C87.4915 82.8717 87.636 82.9826 87.636 83.1191Z" fill="#0A9EA5"/>
<path d="M118.597 79.6398C119.192 79.5289 119.847 79.9723 120.059 80.629C120.281 81.2856 119.974 81.9166 119.379 82.036C118.784 82.1469 118.129 81.7035 117.917 81.0468C117.696 80.3817 118.002 79.7592 118.597 79.6398Z" fill="#007177"/>
<path d="M119.192 79.5545C119.439 79.5204 119.668 79.6995 119.702 79.9553C119.736 80.2026 119.558 80.4328 119.303 80.467C119.056 80.5011 118.826 80.322 118.792 80.0662C118.758 79.8188 118.937 79.5886 119.192 79.5545Z" fill="#28544B"/>
<path d="M120.111 79.853L119.719 80.3731L118.988 80.953C118.988 80.953 118.537 81.0383 118.452 80.8422C118.359 80.646 118.231 80.0491 118.69 80.0235C119.15 79.9979 119.498 79.4522 120.111 79.8615V79.853Z" fill="#007177"/>
<path d="M118.648 80.8336C118.58 80.6801 118.503 80.4925 118.503 80.4925C118.503 80.4925 119.15 79.6568 120.102 79.853C119.719 79.3242 119.039 79.1622 118.554 79.4948C118.07 79.8274 117.976 80.5522 118.359 81.098C118.741 81.6523 119.439 81.8228 119.932 81.4817C120.34 81.2003 120.451 80.6546 120.255 80.16C119.957 80.1258 119.243 80.1344 118.648 80.8336V80.8336Z" fill="#068894"/>
<path d="M119.422 79.6312C119.422 79.7677 119.277 79.8785 119.107 79.8785C118.937 79.8785 118.792 79.7677 118.792 79.6312C118.792 79.4948 118.937 79.3839 119.107 79.3839C119.277 79.3839 119.422 79.4948 119.422 79.6312Z" fill="#0A9EA5"/>
<path d="M123.741 107.943C124.337 107.832 124.991 108.276 125.204 108.932C125.425 109.597 125.119 110.22 124.524 110.339C123.929 110.45 123.274 110.007 123.061 109.35C122.849 108.685 123.146 108.062 123.741 107.943V107.943Z" fill="#007177"/>
<path d="M124.337 107.866C124.583 107.832 124.813 108.02 124.847 108.267C124.881 108.514 124.702 108.745 124.447 108.779C124.201 108.813 123.971 108.634 123.937 108.378C123.903 108.131 124.082 107.9 124.337 107.866Z" fill="#28544B"/>
<path d="M125.247 108.156L124.855 108.676L124.124 109.256C124.124 109.256 123.682 109.333 123.588 109.145C123.495 108.949 123.367 108.344 123.826 108.327C124.286 108.301 124.634 107.755 125.247 108.165V108.156Z" fill="#007177"/>
<path d="M123.792 109.145C123.716 108.983 123.648 108.804 123.648 108.804C123.648 108.804 124.294 107.969 125.247 108.165C124.864 107.636 124.184 107.474 123.699 107.807C123.214 108.148 123.121 108.864 123.503 109.418C123.886 109.964 124.583 110.143 125.076 109.802C125.485 109.521 125.595 108.975 125.4 108.48C125.102 108.446 124.388 108.446 123.792 109.154V109.145Z" fill="#068894"/>
<path d="M124.566 107.935C124.566 108.071 124.422 108.182 124.252 108.182C124.082 108.182 123.937 108.071 123.937 107.935C123.937 107.798 124.082 107.687 124.252 107.687C124.422 107.687 124.566 107.798 124.566 107.935Z" fill="#0A9EA5"/>
<path d="M101.888 60.0517L99.4132 53.7498L96.7347 54.7049C93.7415 56.0693 92.3299 59.5316 93.2483 62.7891C94.9404 62.2433 97.0153 61.5697 97.0153 61.5697C99.3537 61.9022 100.893 61.1859 101.888 60.0517V60.0517Z" fill="#FAFAFA"/>
<path d="M92.0578 110.877C92.653 110.766 93.3078 111.209 93.5289 111.866C93.7415 112.531 93.4439 113.153 92.8486 113.273C92.2534 113.384 91.5986 112.94 91.386 112.284C91.1734 111.618 91.4711 110.996 92.0663 110.877H92.0578Z" fill="#007177"/>
<path d="M92.6531 110.791C92.8997 110.757 93.1292 110.936 93.1633 111.192C93.1973 111.439 93.0187 111.67 92.7636 111.704C92.517 111.738 92.2874 111.55 92.2534 111.303C92.2194 111.056 92.398 110.825 92.6531 110.791Z" fill="#28544B"/>
<path d="M93.5629 111.081L93.1717 111.601L92.4405 112.181C92.4405 112.181 91.9898 112.258 91.9047 112.07C91.8112 111.874 91.6837 111.277 92.1428 111.252C92.602 111.226 92.9507 110.68 93.5629 111.09V111.081Z" fill="#007177"/>
<path d="M92.1088 112.07C92.0408 111.908 91.9643 111.729 91.9643 111.729C91.9643 111.729 92.6105 110.894 93.5629 111.09C93.1802 110.561 92.4915 110.399 92.0153 110.732C91.5306 111.073 91.4371 111.789 91.8197 112.343C92.2024 112.889 92.8996 113.068 93.3928 112.727C93.801 112.446 93.9115 111.9 93.716 111.405C93.4183 111.371 92.7041 111.371 92.1088 112.079V112.07Z" fill="#068894"/>
<path d="M92.8826 110.868C92.8826 111.004 92.7381 111.115 92.568 111.115C92.3979 111.115 92.2534 111.004 92.2534 110.868C92.2534 110.732 92.3979 110.621 92.568 110.621C92.7381 110.621 92.8826 110.732 92.8826 110.868Z" fill="#0A9EA5"/>
<path d="M91.4541 87.3488C91.8962 87.417 92.3214 87.7155 92.517 88.1248C92.7806 88.6876 92.517 89.259 91.9302 89.3954L89.8129 89.9071C89.2942 90.0265 88.801 90.8451 88.9455 91.7064L90.9098 103.824C90.9779 104.251 91.1734 104.506 91.318 104.6C91.352 104.626 91.42 104.668 91.5731 104.634L93.6904 104.123C94.2772 103.978 94.9745 104.319 95.2381 104.882C95.5017 105.444 95.2381 106.016 94.6513 106.152L92.534 106.664C91.7517 106.852 90.9268 106.698 90.1955 106.229C89.3452 105.683 88.767 104.779 88.5969 103.747L86.6326 91.6296C86.352 89.89 87.3214 88.2271 88.852 87.8604L90.9694 87.3488C91.1224 87.3147 91.2925 87.3061 91.4541 87.3317V87.3488Z" fill="#1F443B"/>
<path d="M95.7993 60.4184L93.0187 61.6038C93.1037 62.3542 93.2993 63.1132 93.6309 63.8466C93.7585 64.1194 93.8945 64.3838 94.0476 64.6311L97.0153 63.7442L95.7993 60.4099V60.4184Z" fill="#0A9EA5"/>
<path d="M94.1922 106.101C93.7925 106.101 93.4098 105.871 93.2313 105.479C92.9932 104.95 93.2313 104.327 93.7585 104.089L95.6632 103.227C96.1309 103.014 96.5731 102.11 96.4456 101.249L94.6769 89.1993C94.6173 88.7729 94.4388 88.5426 94.3112 88.4744C94.2772 88.4574 94.2177 88.4232 94.0816 88.4744L92.1769 89.3357C91.6496 89.5745 91.0289 89.3357 90.7823 88.807C90.5442 88.2783 90.7823 87.6472 91.3095 87.4085L93.2143 86.5472C93.9116 86.2316 94.6598 86.2487 95.3146 86.6069C96.0799 87.0247 96.5986 87.8519 96.7517 88.8752L98.5204 100.925C98.7755 102.656 97.8996 104.506 96.5306 105.129L94.6258 105.99C94.4813 106.05 94.3367 106.084 94.1922 106.084V106.101Z" fill="#0A9EA5"/>
<path d="M97.5935 101.761L95.8248 89.7109C95.6718 88.6876 95.1531 87.8604 94.3877 87.4426C93.733 87.0844 92.9932 87.0674 92.2874 87.3829L90.7568 88.0736C90.6803 88.3124 90.6803 88.5768 90.7908 88.8241C91.0289 89.3528 91.6497 89.5915 92.1854 89.3528L94.0901 88.4915C94.2262 88.4318 94.2857 88.4659 94.3197 88.4915C94.4473 88.5597 94.6258 88.7985 94.6854 89.2163L96.4541 101.266C96.5816 102.119 96.1394 103.031 95.6718 103.244L95.2976 103.415C95.1445 103.722 94.949 103.961 94.7364 104.063L93.2058 104.754C93.1292 104.992 93.1292 105.257 93.2398 105.504C93.4184 105.896 93.801 106.127 94.2007 106.127C94.3452 106.127 94.4898 106.093 94.6343 106.033L96.5391 105.172C96.6071 105.137 96.6667 105.095 96.7347 105.061C97.415 104.199 97.7721 102.971 97.602 101.786L97.5935 101.761Z" fill="#007177"/>
<path d="M118.129 52.5304L114.6 58.3889L113.571 55.2421L113.554 55.1825C113.512 55.0375 113.401 54.9181 113.257 54.8584C112.985 54.7475 112.679 54.8755 112.568 55.1483L109.022 63.7527L112.815 56.9306L113.563 60.6316C113.597 60.8192 113.699 60.9898 113.869 61.1177C114.226 61.3991 114.745 61.3309 115.025 60.9727L115.085 60.896L119.005 55.8391L118.146 52.5389L118.129 52.5304Z" fill="#63BCB8"/>
<path d="M84.6598 56.7515C84.5663 56.6577 84.4388 56.5895 84.2942 56.5895C84.0051 56.581 83.7585 56.8027 83.75 57.1012V57.1609L83.6139 60.7681L77.0068 55.7709L76.8282 59.5571L83.9201 63.1046L84.0051 63.1558C84.1411 63.2411 84.3027 63.2837 84.4813 63.2667C84.932 63.2326 85.2636 62.8403 85.2296 62.3883L84.9235 58.3889L91.267 63.6845L84.6598 56.7601V56.7515Z" fill="#63BCB8"/>
<path d="M107.645 57.6811C109.243 61.22 107.857 65.3133 104.541 66.8227C101.224 68.3321 97.2364 66.6948 95.6292 63.1558C94.0221 59.6168 95.4166 55.5236 98.733 54.0142C102.049 52.5048 106.037 54.1421 107.645 57.6811Z" fill="#068894"/>
<path d="M120.468 66.6777L119.626 67.3002L116.76 67.7607V66.6777L115.213 67.2235L115.978 64.5458L115.816 62.0046L116.539 61.3479L120.468 66.6777Z" fill="#28544B"/>
<path d="M117.134 60.7851L116.539 61.348L117.559 67.0018L120.468 66.6777L120.969 66.0296L117.134 60.7851Z" fill="#007177"/>
<path d="M120.969 66.0296L120.561 65.4753C119.566 65.3559 118.384 65.4753 118.376 66.0467L117.559 67.0018L120.468 66.6777L120.969 66.0382V66.0296Z" fill="#007177"/>
<path d="M120.969 66.0296L118.146 66.3878L117.134 60.7851L119.949 60.427L120.969 66.0296Z" fill="#068894"/>
<path d="M118.469 65.8079L117.696 61.0921L119.702 60.9301L120.672 65.6288L118.469 65.8079Z" fill="#C65128"/>
<path d="M119.26 64.2388L118.367 63.0791L117.696 61.0921L119.702 60.9301L120.434 63.0791L121.556 63.8892L120.196 64.5458L119.26 64.2388Z" fill="#C65128"/>
<path d="M118.469 65.8079L119.26 64.2388L121.556 63.8892L120.672 65.6288L118.469 65.8079Z" fill="#DD6B38"/>
<path d="M119.702 60.9301L117.696 61.0921L118.367 63.0791H120.434L119.702 60.9301Z" fill="#DD6B38"/>
<path d="M115.697 67.2576L114.855 67.8801L111.998 68.3492V67.2576L110.451 67.8034L111.207 65.1342L111.054 62.5845L111.777 61.9278L115.697 67.2576Z" fill="#28544B"/>
<path d="M112.372 61.365L111.777 61.9278L112.798 67.5817L115.697 67.2576L116.199 66.618L112.372 61.365Z" fill="#007177"/>
<path d="M116.199 66.618L115.791 66.0637C114.796 65.9444 113.614 66.0637 113.605 66.6351L112.789 67.5902L115.697 67.2661L116.199 66.6266V66.618Z" fill="#007177"/>
<path d="M116.199 66.618L113.384 66.9677L112.372 61.365L115.187 61.0154L116.199 66.618Z" fill="#068894"/>
<path d="M113.699 66.3878L112.934 61.672L114.94 61.51L115.901 66.2087L113.699 66.3878Z" fill="#8C3838"/>
<path d="M114.498 64.8272L113.605 63.6589L112.934 61.672L114.94 61.51L115.663 63.6589L116.786 64.4691L115.425 65.1342L114.498 64.8272Z" fill="#8C3838"/>
<path d="M113.699 66.3878L114.498 64.8272L116.786 64.4691L115.901 66.2087L113.699 66.3878Z" fill="#A74D4B"/>
<path d="M114.94 61.51L112.934 61.672L113.605 63.6589H115.663L114.94 61.51Z" fill="#A74D4B"/>
<path d="M107.151 59.5145C107.517 62.5162 105.544 65.2195 102.764 65.5606C99.9745 65.9017 97.4235 63.7357 97.0663 60.734C96.7007 57.7322 98.6735 55.029 101.454 54.6878C104.243 54.3467 106.794 56.5128 107.151 59.5145Z" fill="#007177"/>
<path d="M106.173 59.8044C105.816 56.8027 103.265 54.6452 100.476 54.9778C100.383 54.9863 100.289 55.0119 100.196 55.029C98.1037 55.8988 96.7602 58.2098 97.0663 60.734C97.4234 63.7357 99.9745 65.8932 102.764 65.5606C102.857 65.5521 102.951 65.5265 103.044 65.5094C105.136 64.6396 106.48 62.3286 106.173 59.8044Z" fill="#F56462"/>
<path d="M105.748 59.506C105.986 61.4673 104.702 63.2326 102.883 63.4543C101.063 63.676 99.3962 62.2604 99.1581 60.3076C98.92 58.3462 100.204 56.581 102.024 56.3593C103.843 56.1376 105.51 57.5531 105.748 59.506Z" fill="#28544B"/>
<path d="M104.762 59.7447C104.532 57.8431 102.959 56.4701 101.207 56.5895C99.8469 57.1609 98.9626 58.6617 99.1581 60.3076C99.3877 62.2092 100.961 63.5822 102.713 63.4628C104.073 62.8914 104.957 61.3906 104.762 59.7447V59.7447Z" fill="#FFD6A0"/>
<path d="M97.636 88.5938L97.0153 85.9417L117.755 83.6222L118.129 86.4619L97.636 88.5938Z" fill="#007177"/>
<path d="M98.5714 91.3568L98.1888 89.6086L108.98 88.5938L109.243 90.2396L98.5714 91.3568Z" fill="#007177"/>
<path d="M118.903 75.8364L85.5357 79.1622C84.0901 79.3072 82.6871 78.2839 82.4234 76.8853L81.9047 74.1821C81.6411 72.7835 82.602 71.5214 84.0476 71.3765L117.415 68.0507C118.861 67.9057 120.264 68.9376 120.527 70.3276L121.046 73.0308C121.31 74.4294 120.349 75.6915 118.903 75.8364Z" fill="#007177"/>
<path d="M85.5952 77.6272C88.6139 76.3566 88.2313 73.534 87.3214 71.0524L84.0561 71.3765C82.6105 71.5214 81.6411 72.7835 81.9133 74.1821L82.432 76.8853C82.5935 77.7211 83.1633 78.4203 83.903 78.8211C84.6769 78.2327 85.3656 77.7296 85.6037 77.6272H85.5952Z" fill="#007177"/>
<path d="M84.8809 77.6443L83.5799 78.625C84.1411 79.0172 84.8384 79.239 85.5442 79.1622L86.0629 78.6676L84.8809 77.6443Z" fill="#0A9EA5"/>
<path d="M119.787 75.3333L86.42 78.6591C84.9744 78.8041 83.5714 77.7807 83.3078 76.3822L82.7891 73.6789C82.5255 72.2804 83.4864 71.0183 84.9319 70.8733L118.299 67.5476C119.745 67.4026 121.148 68.4344 121.412 69.833L121.93 72.5362C122.194 73.9348 121.233 75.1969 119.787 75.3418V75.3333Z" fill="#068894"/>
<path d="M119.048 74.6937L87.2704 77.7893C85.8928 77.9257 84.6003 77.0729 84.3962 75.8961L84.0051 73.6278C83.801 72.4509 84.7619 71.385 86.1394 71.2486L117.917 68.153C119.294 68.0166 120.587 68.8693 120.791 70.0462L121.182 72.3145C121.386 73.4913 120.425 74.5573 119.048 74.6937V74.6937Z" fill="#007177"/>
<path d="M87.2704 77.7978L119.048 74.7023C119.677 74.6426 120.213 74.3782 120.595 74.0115C120.74 73.6875 120.808 73.3293 120.74 72.9541L120.349 70.6857C120.145 69.5089 118.852 68.6562 117.474 68.7926L85.6972 71.8881C85.068 71.9478 84.5323 72.2122 84.1496 72.5874C84.0051 72.9115 83.937 73.2696 84.0051 73.6448L84.3962 75.9132C84.6003 77.09 85.8928 77.9428 87.2704 77.8063V77.7978Z" fill="#A74D4B"/>
<path d="M116.675 71.9734L120.51 71.6408L120.442 71.2059L116.599 71.547L116.165 68.9205L115.731 68.9546L116.165 71.5811L111.548 71.9905L111.114 69.4066L110.68 69.4492L111.114 72.0331L107.049 72.3913L106.624 69.85L106.19 69.8841L106.616 72.4254L102.143 72.8262L101.726 70.319L101.292 70.3617L101.709 72.8603L97.7466 73.2099L97.3299 70.754L96.8962 70.7966L97.3129 73.2526L93.1802 73.6107L92.7806 71.1974L92.3469 71.24L92.7466 73.6534L88.5544 74.02L88.1547 71.6408L87.7211 71.692L88.1207 74.0627L84.1326 74.4123L84.2092 74.8387L88.1887 74.4891L88.7245 77.6528L89.1581 77.6102L88.6309 74.455L92.8231 74.0797L93.3418 77.2009L93.7755 77.1582L93.2568 74.0456L97.3809 73.6789L97.8996 76.7574L98.3333 76.7148L97.8146 73.6448L101.786 73.2952L102.296 76.331L102.73 76.2884L102.219 73.2526L106.692 72.8603L107.185 75.8535L107.619 75.8109L107.126 72.8176L111.182 72.4595L111.684 75.4186L112.117 75.3759L111.624 72.4254L116.241 72.016L116.726 74.924L117.16 74.8813L116.675 71.9734Z" fill="#BC5C5C"/>
<path d="M120.68 72.63L120.468 71.4106C120.008 72.1695 119.337 72.9541 118.588 73.0735C117.942 73.1758 117.27 72.7324 116.599 71.7687C115.493 70.1826 114.541 69.4577 113.648 69.4919C112.551 69.526 111.879 70.6687 111.284 71.6664L111.114 71.9563C110.952 72.2292 110.808 72.5106 110.663 72.775C110.332 73.4146 110.051 73.9604 109.677 74.02C109.371 74.0627 108.741 73.841 107.432 72.5192C106.012 71.078 104.821 70.4555 103.784 70.6346C102.611 70.8392 101.913 71.999 101.395 73.1076C101.097 73.7472 100.391 75.248 99.6598 75.2821C99.2942 75.3248 98.6819 75.0007 97.7636 73.4572C96.8962 71.999 96.0289 71.2827 95.17 71.3083C94.0051 71.3168 93.2823 72.5874 92.8146 73.3975L92.653 73.6875C92.2704 74.3867 91.1054 76.5357 90.2041 76.4334C89.9319 76.4078 89.3962 76.0923 88.852 74.327C88.3843 72.8006 87.7041 71.999 86.8367 71.9222C85.7908 71.837 84.7704 72.9115 84.0561 73.9007L84.2772 75.1542C84.966 74.0115 85.9949 72.7238 86.7602 72.7921C87.2279 72.8262 87.6785 73.4657 88.0187 74.5829C88.5544 76.314 89.2347 77.2009 90.1105 77.2947C90.1615 77.2947 90.2041 77.2947 90.2551 77.2947C91.6411 77.2947 92.7891 75.2224 93.4098 74.0968L93.5969 73.7642C93.937 73.1673 94.5068 72.1695 95.1785 72.161C95.7058 72.161 96.335 72.758 97.0153 73.8921C97.9506 75.4527 98.835 76.1861 99.7023 76.1434C100.859 76.0837 101.59 74.7278 102.177 73.4657C102.781 72.1781 103.308 71.5897 103.929 71.4788C104.651 71.3509 105.621 71.9052 106.811 73.1161C108.112 74.4379 109.039 74.9837 109.804 74.8643C110.612 74.7449 111.003 73.9774 111.429 73.1588C111.556 72.9114 111.692 72.6471 111.854 72.3913L112.032 72.0928C112.534 71.24 113.061 70.3617 113.682 70.3446C114.073 70.319 114.779 70.6516 115.893 72.2548C116.777 73.5169 117.73 74.0797 118.733 73.9262C119.515 73.8069 120.179 73.2526 120.689 72.6215L120.68 72.63Z" fill="#F1986B"/>
<path d="M88.6224 69.9609L87.7806 70.5919L84.9234 71.0524V69.9609L83.3758 70.5066L84.1326 67.8375L83.9711 65.2877L84.7024 64.6396L88.6224 69.9609Z" fill="#28544B"/>
<path d="M85.2976 64.0683L84.7024 64.6396L85.7143 70.2849L88.6224 69.9609L89.1241 69.3213L85.2976 64.0683Z" fill="#007177"/>
<path d="M89.1241 69.3213L88.716 68.767C87.7211 68.6561 86.5391 68.767 86.5306 69.3384L85.7143 70.2935L88.6224 69.9694L89.1156 69.3298L89.1241 69.3213Z" fill="#007177"/>
<path d="M89.1241 69.3213L86.3095 69.6709L85.2976 64.0683L88.1122 63.7186L89.1241 69.3213Z" fill="#068894"/>
<path d="M86.6241 69.0911L85.8588 64.3753L87.8656 64.2132L88.8265 68.9205L86.6241 69.0911Z" fill="#C65128"/>
<path d="M87.4234 67.5305L86.5306 66.3707L85.8588 64.3753L87.8656 64.2132L88.5884 66.3707L89.7109 67.1809L88.3503 67.8375L87.4234 67.5305Z" fill="#C65128"/>
<path d="M86.6241 69.0911L87.4234 67.5305L89.7108 67.1809L88.8265 68.9205L86.6241 69.0911Z" fill="#DD6B38"/>
<path d="M87.8656 64.2132L85.8588 64.3753L86.5306 66.3707H88.5884L87.8656 64.2132Z" fill="#DD6B38"/>
<path d="M83.8605 70.5408L83.0187 71.1718L80.153 71.6323V70.5408L78.6054 71.0865L79.3707 68.4174L79.2091 65.8676L79.9319 65.2195L83.8605 70.5408Z" fill="#28544B"/>
<path d="M80.5272 64.6481L79.9319 65.2195L80.9524 70.8733L83.8605 70.5408L84.3537 69.9012L80.5272 64.6481Z" fill="#007177"/>
<path d="M84.3537 69.9012L83.9455 69.3469C82.9506 69.236 81.7687 69.3469 81.7602 69.9182L80.9438 70.8733L83.852 70.5493L84.3537 69.9097V69.9012Z" fill="#007177"/>
<path d="M84.3537 69.9012L81.5391 70.2508L80.5272 64.6481L83.3418 64.2985L84.3537 69.9012Z" fill="#068894"/>
<path d="M81.8622 69.6709L81.0884 64.9551L83.0952 64.7931L84.0646 69.5004L81.8622 69.6709Z" fill="#8C3838"/>
<path d="M82.653 68.1104L81.7602 66.9506L81.0884 64.9551L83.0952 64.7931L83.8265 66.9506L84.949 67.7607L83.5884 68.4174L82.653 68.1104Z" fill="#8C3838"/>
<path d="M81.8622 69.6709L82.653 68.1104L84.949 67.7607L84.0646 69.5004L81.8622 69.6709Z" fill="#A74D4B"/>
<path d="M83.0952 64.7931L81.0884 64.9551L81.7602 66.9506H83.8265L83.0952 64.7931Z" fill="#A74D4B"/>
<path d="M69.4728 70.6601C70.7228 74.8216 69.2006 78.9661 66.0629 79.9126C62.9251 80.8592 59.3707 78.2583 58.1207 74.0968C56.8707 69.9353 58.3928 65.7909 61.5306 64.8443C64.6683 63.8977 68.2228 66.4986 69.4728 70.6601V70.6601Z" fill="#28544B"/>
<path d="M57.9081 71.6323C57.7551 71.5214 56.9302 72.1866 55.9608 73.0479L57.3554 80.5011C59.4217 78.2327 63.2823 76.9365 63.3418 76.6977C65.1955 69.4407 58.2568 71.8967 57.9081 71.6238V71.6323Z" fill="#28544B"/>
<path d="M63.2653 112.164L64.7874 120.325C68.7755 116.752 75.7568 111.115 75.7568 111.115C75.0595 106.238 68.1888 109.205 63.2653 112.164V112.164Z" fill="#28544B"/>
<path d="M98.2908 124.384C98.5544 126.849 93.4183 129.424 86.8112 130.149C80.2126 130.865 74.6343 129.45 74.3707 126.985C74.1071 124.521 79.2432 121.937 85.8503 121.221C92.4575 120.504 98.0187 121.92 98.2908 124.384Z" fill="#068894"/>
<path d="M127.228 121.673C127.457 123.839 122.525 126.141 116.216 126.832C109.898 127.514 104.592 126.32 104.354 124.154C104.116 121.988 109.056 119.677 115.374 118.995C121.692 118.313 126.998 119.507 127.236 121.673H127.228Z" fill="#068894"/>
<path d="M96.4966 170.553C96.4966 173.367 87.6786 175.653 76.7942 175.653C65.9099 175.653 57.0918 173.367 57.0918 170.553C57.0918 167.739 65.9099 162.512 76.7942 162.512C87.6786 162.512 96.4966 167.739 96.4966 170.553Z" fill="#068894"/>
<path d="M143.75 169.683C143.75 172.711 134.932 175.158 124.048 175.158C113.163 175.158 104.345 172.711 104.345 169.683C104.345 166.656 113.163 161.045 124.048 161.045C134.932 161.045 143.75 166.656 143.75 169.683Z" fill="#068894"/>
<path d="M82.8741 163.049C80.9609 162.708 78.9116 162.512 76.7942 162.512C65.9099 162.512 57.0918 167.739 57.0918 170.553C57.0918 173.367 65.4337 175.525 75.8928 175.644C71.1139 172.728 63.4184 166.23 82.8741 163.049V163.049Z" fill="#007177"/>
<path d="M123.622 161.053C112.934 161.198 104.345 166.699 104.345 169.683C104.345 172.233 110.638 174.382 119.15 174.987C114.685 172.045 111.794 167.21 123.622 161.053Z" fill="#007177"/>
<path d="M128.078 162.512C128.078 162.512 127.296 162.409 126.412 163.296C131.216 167.85 133.104 172.088 133.835 174.433C136.165 174.067 138.189 173.563 139.796 172.975C136.182 166.11 128.078 162.512 128.078 162.512V162.512Z" fill="#0C9EA5"/>
<path d="M82.8061 164.183C82.8061 164.183 81.6326 164.371 81.6326 164.865C84.4302 168.703 85.1785 173.086 85.2466 175.158C87.3979 174.894 89.3367 174.527 90.9779 174.092C88.6394 168.225 82.8061 164.183 82.8061 164.183Z" fill="#0C9EA5"/>
<path d="M87.602 121.084C87.0238 121.118 86.4456 121.152 85.8503 121.221C79.2432 121.937 74.1071 124.521 74.3707 126.985C74.6003 129.066 78.6054 130.396 83.8095 130.328C82.6275 128.52 79.7194 124.444 87.602 121.084V121.084Z" fill="#007177"/>
<path d="M114.116 119.157C108.41 119.993 104.133 122.133 104.354 124.154C104.541 125.877 107.951 126.985 112.517 127.019C110.655 125.587 107.398 122.133 114.116 119.157V119.157Z" fill="#007177"/>
<path d="M79.7789 128.682C79.7789 128.682 89.2602 142.506 70.8843 163.782C70.3996 164.669 75.3826 171.235 85.4507 164.865C87.6956 162.315 95.9098 153.609 94.6428 127.028C93.5714 124.367 84.966 123.685 79.7789 128.682V128.682Z" fill="#424242"/>
<path d="M94.5153 133.603C93.6565 133.407 92.7636 133.228 91.8452 133.151C90.9269 133.048 90 133.031 89.0731 133.048C88.1463 133.074 87.2279 133.142 86.3265 133.262C85.4252 133.381 84.5493 133.526 83.716 133.722C83.0527 133.859 82.4235 134.038 81.8197 134.217C81.9303 134.78 82.0238 135.377 82.0918 136.016C82.7296 135.922 83.3844 135.837 84.0646 135.769C85.6888 135.581 87.415 135.428 89.1327 135.394C89.9915 135.368 90.8418 135.385 91.6837 135.428C92.517 135.47 93.3333 135.556 94.1242 135.658C94.3282 135.692 94.5238 135.726 94.7279 135.76C94.7534 135.087 94.7704 134.387 94.7789 133.68C94.6939 133.654 94.6173 133.628 94.5323 133.603H94.5153Z" fill="#323332"/>
<path d="M92.7636 145.874C92.3639 145.9 91.9643 145.925 91.5561 145.959C91.148 145.976 90.7313 145.959 90.3146 145.985C89.4813 146.019 88.6395 145.968 87.7891 145.942C86.9388 145.942 86.1054 145.789 85.2721 145.738C84.4473 145.635 83.631 145.49 82.8401 145.388C82.3469 145.303 81.8622 145.2 81.3861 145.098C81.2415 145.695 81.0629 146.3 80.8759 146.914C81.3605 147.094 81.8537 147.273 82.3725 147.418C83.2058 147.614 84.0646 147.852 84.949 147.997C85.8418 148.108 86.7517 148.27 87.6701 148.287C88.5884 148.304 89.5068 148.356 90.4082 148.262C91.3095 148.228 92.1939 148.1 93.0357 147.946C93.1463 147.929 93.2568 147.904 93.3674 147.887C93.5034 147.213 93.6395 146.522 93.7585 145.797C93.4354 145.831 93.1037 145.866 92.7721 145.883L92.7636 145.874Z" fill="#323332"/>
<path d="M89.6769 156.713C88.9881 156.713 88.2738 156.747 87.551 156.713C86.8367 156.662 86.1054 156.67 85.3827 156.551C85.0255 156.508 84.6599 156.474 84.3027 156.423C83.9541 156.346 83.5969 156.278 83.2483 156.21C82.534 156.099 81.8707 155.868 81.216 155.689C80.5442 155.536 79.949 155.246 79.3452 155.033C78.733 154.837 78.1973 154.572 77.6871 154.316C77.6701 154.308 77.6531 154.299 77.6361 154.291C77.4235 154.675 77.1854 155.058 76.9558 155.451C77.1854 155.647 77.432 155.851 77.6871 156.065C77.9422 156.278 78.2483 156.423 78.5374 156.619C79.1412 156.969 79.7619 157.395 80.4847 157.651C81.1905 157.941 81.9218 158.273 82.7211 158.435C83.1122 158.538 83.5119 158.631 83.9031 158.725C84.3027 158.793 84.7109 158.836 85.119 158.887C85.9354 159.007 86.7517 158.998 87.551 158.99C87.9507 159.007 88.3503 158.947 88.7415 158.904C89.0476 158.87 89.3537 158.845 89.6514 158.802C89.9915 158.145 90.3316 157.42 90.6718 156.636C90.3401 156.653 90.0085 156.67 89.6769 156.696V156.713Z" fill="#323332"/>
<path d="M82.0068 126.985C81.216 127.454 80.4677 128.017 79.7704 128.682C79.7704 128.682 89.2517 142.506 70.8759 163.782C70.6463 164.191 71.6071 165.829 73.699 166.827C79.6769 160.977 92.0068 144.518 82.0068 126.985V126.985Z" fill="#323332"/>
<path d="M110.179 126.9C110.179 126.9 119.668 137.901 119.277 162.512C122.109 164.763 128.665 164.865 129.838 162.017C130.128 157.898 128.954 132.724 122.602 124.964C120.451 124.163 111.241 124.922 110.179 126.892V126.9Z" fill="#424242"/>
<path d="M125.366 130.132C125.221 130.115 125.077 130.106 124.932 130.089C124.201 130.047 123.444 130.089 122.679 130.098C121.922 130.183 121.148 130.26 120.391 130.405C119.643 130.575 118.878 130.712 118.163 130.959C117.432 131.164 116.735 131.42 116.071 131.693C115.4 131.94 114.787 132.272 114.192 132.554C114.031 132.639 113.878 132.724 113.716 132.81C113.937 133.287 114.167 133.782 114.396 134.319C114.549 134.276 114.694 134.234 114.847 134.183C115.451 134.021 116.071 133.816 116.735 133.654C117.058 133.569 117.389 133.475 117.73 133.39C118.07 133.313 118.41 133.228 118.75 133.151C119.43 132.972 120.136 132.852 120.825 132.707C121.522 132.554 122.219 132.494 122.908 132.358C123.597 132.315 124.277 132.196 124.932 132.162C125.315 132.162 125.689 132.136 126.054 132.119C125.833 131.428 125.604 130.763 125.357 130.123L125.366 130.132Z" fill="#323332"/>
<path d="M128.231 141.661C128.036 141.619 127.84 141.576 127.636 141.551C126.964 141.423 126.258 141.371 125.544 141.329C124.83 141.269 124.099 141.329 123.367 141.329C122.645 141.389 121.922 141.465 121.207 141.568C120.502 141.704 119.821 141.858 119.158 142.011C118.512 142.207 117.883 142.412 117.304 142.616C117.253 142.634 117.219 142.651 117.168 142.676C117.304 143.222 117.44 143.785 117.568 144.365C117.636 144.365 117.696 144.339 117.764 144.331C118.35 144.254 118.954 144.169 119.575 144.058C120.204 143.998 120.859 143.93 121.514 143.836C122.168 143.785 122.84 143.734 123.503 143.682C124.175 143.665 124.838 143.606 125.493 143.614C126.148 143.614 126.803 143.597 127.432 143.631C127.815 143.631 128.18 143.657 128.546 143.674C128.452 143.009 128.342 142.335 128.231 141.67V141.661Z" fill="#323332"/>
<path d="M129.473 151.92C129.175 151.988 128.886 152.074 128.563 152.125C127.44 152.312 126.224 152.398 124.991 152.406C122.84 152.415 120.638 152.193 118.818 152.023C118.878 152.585 118.937 153.157 118.98 153.737C120.689 154.316 122.798 154.76 125 154.76C125.697 154.743 126.395 154.717 127.075 154.606C127.764 154.521 128.427 154.351 129.065 154.154C129.26 154.095 129.439 154.018 129.617 153.95C129.575 153.293 129.524 152.628 129.464 151.929L129.473 151.92Z" fill="#323332"/>
<path d="M123.622 164.106C123.512 156.303 122.389 133.893 113.41 125.348C111.803 125.723 110.527 126.243 110.17 126.909C110.17 126.909 119.66 137.909 119.269 162.52C120.349 163.381 121.964 163.919 123.614 164.115L123.622 164.106Z" fill="#323332"/>
<path d="M70.068 67.6414C71.318 71.8029 69.7959 75.9473 66.6582 76.8939C63.5204 77.849 59.966 75.2395 58.716 71.078C57.466 66.9165 58.9881 62.7721 62.1258 61.8255C65.2636 60.8789 68.818 63.4799 70.068 67.6414Z" fill="#068894"/>
<path d="M65.6377 67.7266C65.4677 67.5817 61.7007 66.149 59.8129 63.4116C58.3333 65.211 57.8231 68.1445 58.7075 71.0865C59.9575 75.248 63.5204 77.849 66.6496 76.9024C67.7551 76.5698 68.6564 75.8279 69.3112 74.8387C69.2177 72.4254 68.2058 69.8756 65.6292 67.7352L65.6377 67.7266Z" fill="#007177"/>
<path d="M55 106.886C51.284 106.886 44.7449 107.15 40.6718 103.961C37.9507 101.837 34.6428 97.7355 34.3452 90.3079C33.6905 74.3441 58.4184 66.6948 61.2415 65.8676C63.7245 65.1428 66.335 66.5839 67.0578 69.074C67.7806 71.5726 66.352 74.1735 63.8605 74.9069C57.1684 76.8683 43.4524 83.1105 43.733 89.9156C43.8605 93.0197 44.7449 95.1772 46.4371 96.516C49.5153 98.9464 54.949 98.5285 56.7772 98.1618C59.3112 97.6502 61.7857 99.296 62.3044 101.837C62.8231 104.378 61.199 106.852 58.6735 107.38C58.2143 107.474 57.7296 106.877 55.017 106.877L55 106.886Z" fill="#424242"/>
<path d="M62.0748 104.455C61.9047 104.489 33.869 109.725 35.9864 82.8888C34.8639 85.1316 34.2347 87.5961 34.3452 90.3079C34.6513 97.7355 37.9592 101.837 40.6718 103.961C44.7449 107.141 51.284 106.886 55 106.886C57.7126 106.886 58.1888 107.491 58.6565 107.389C60.2806 107.048 61.5306 105.905 62.0748 104.455V104.455Z" fill="#323332"/>
<path d="M61.2245 65.8761C60.9014 65.9699 60.2976 66.149 59.4983 66.4219C61.6582 68.315 62.9762 70.3617 63.4439 72.5362C63.6309 73.4061 63.6565 74.2332 63.5884 75.0007C63.6735 74.9751 63.767 74.9496 63.852 74.924C64.3452 74.779 64.7874 74.5658 65.1871 74.2929C65.1871 73.6448 65.1275 72.9626 64.983 72.2463C64.5068 69.9779 63.2483 67.8545 61.233 65.8932L61.2245 65.8761Z" fill="#323332"/>
<path d="M49.9235 70.4555C49.2602 70.7966 48.5884 71.1633 47.9167 71.5556C49.8554 71.9222 51.4371 72.7494 52.636 74.0456C53.886 75.4015 54.5493 77.0729 54.8894 78.5141C55.3656 78.2668 55.8503 78.0366 56.3265 77.8148C55.9439 76.3566 55.2721 74.7278 54.0731 73.3122C52.9592 71.999 51.5731 71.0439 49.915 70.464L49.9235 70.4555Z" fill="#323332"/>
<path d="M59.4983 111.004C59.4983 111.004 55 112.309 53.2398 104.464C52.0663 99.4921 54.9235 95.4671 57.7976 94.964C60.6718 94.4608 65.8844 107.466 59.4983 110.996V111.004Z" fill="#007177"/>
<path d="M58.2653 104.865C58.2653 104.865 55.2806 106.391 53.2398 104.447C55 112.301 59.4983 110.996 59.4983 110.996C60.1786 110.621 60.7228 110.126 61.1564 109.563C60.9183 107.858 60.0425 106.22 58.2653 104.865V104.865Z" fill="#28544B"/>
<path d="M75.017 94.1027C75.017 94.1027 75.017 100.081 80.8758 99.5945C76.6411 102.247 75.119 107.781 75.017 108.148C74.915 108.514 68.1377 114.254 64.3877 113.836C60.6377 113.418 57.8316 108.378 56.7772 101.36C55.7228 94.3414 59.3452 92.0305 63.6054 92.2351C67.8656 92.4398 75.017 94.1027 75.017 94.1027V94.1027Z" fill="#28544B"/>
<path d="M38.1122 79.5715C37.5935 80.2282 37.1173 80.9189 36.6837 81.6267C39.8214 80.5096 42.2364 80.5266 43.7755 81.7035C44.9405 82.5989 45.4422 84.0059 45.6462 85.1827C46.0289 84.7222 46.4541 84.2618 46.9218 83.8183C46.7177 83.1532 46.4371 82.4965 46.0799 81.9422C44.8979 80.1003 42.5935 78.5226 38.1207 79.5715H38.1122Z" fill="#323332"/>
<path d="M64.3878 115.362C64.3878 115.362 72.2704 117.144 83.682 109.887C85.3146 108.514 85.5697 102.434 84.3963 99.3983C80.3997 99.9185 66.6071 105.624 66.6071 105.624C66.6071 105.624 66.8027 114.109 64.3878 115.371V115.362Z" fill="#0A9EA5"/>
<path d="M43.903 91.6979C42.602 91.1436 41.0714 90.811 39.4218 91.1095C37.7211 91.4165 36.165 92.346 34.7534 93.8895C34.8809 94.5546 35.0425 95.1771 35.2211 95.7741C36.5731 94.0003 38.0697 92.96 39.6854 92.6615C41.4711 92.3374 43.1548 92.9855 44.4218 93.7445C44.1837 93.139 44.0136 92.4568 43.8945 91.7064L43.903 91.6979Z" fill="#323332"/>
<path d="M46.8962 96.8571C46.7347 96.7548 46.5731 96.6439 46.4201 96.5245C46.1394 96.3028 45.8843 96.047 45.6462 95.7741C44.3367 96.6098 43.0357 97.8548 42.4064 99.6456C41.8367 101.283 41.9047 103.116 42.619 105.146C43.2653 105.453 43.9371 105.709 44.6258 105.922C43.5714 103.713 43.3163 101.795 43.8775 100.174C44.4218 98.6053 45.6803 97.5478 46.8962 96.8571V96.8571Z" fill="#323332"/>
<path d="M75.2126 95.5524V95.5353C75.0765 94.964 75.034 94.512 75.0255 94.2732L74.983 94.0856C74.6259 94.0003 67.7636 92.4227 63.6054 92.2266C59.3367 92.0219 55.7228 94.3329 56.7772 101.351C57.0153 102.946 57.3554 104.438 57.7636 105.794L63.665 107.466L75.2126 95.5438V95.5524Z" fill="#1F443B"/>
<path d="M65.2721 99.5945C65.7143 99.5945 82.7296 92.3886 82.7296 92.3886C82.7296 92.3886 80.3826 86.334 77.1598 86.2487C73.9371 86.1634 61.6156 88.6023 56.7772 92.9259C59.4643 94.205 60.2466 94.7934 60.2466 94.7934L65.2721 99.5945V99.5945Z" fill="#0A9EA5"/>
<path d="M77.1598 86.2487C73.9371 86.1634 61.6156 88.6023 56.7772 92.9259C57.6871 93.3608 58.3673 93.7104 58.886 93.9833C59.0901 93.5569 59.2942 93.1135 59.4983 92.6359C68.5544 88.3124 75.5527 87.3147 79.2432 87.1356C78.6054 86.6239 77.9081 86.2743 77.1598 86.2487V86.2487Z" fill="#63BCB8"/>
<path d="M67.1939 69.8159C67.1939 69.8159 45.3486 76.2884 44.1922 87.5023C46.6411 81.6779 57.9677 76.638 63.852 74.9154C66.0969 74.2588 67.4745 72.0757 67.1939 69.8159V69.8159Z" fill="#323332"/>
<path d="M65.6378 105.462L82.8316 98.3153L84.3963 99.3983L67.1854 105.717L66.7007 107.244L65.6378 105.462Z" fill="#63BCB8"/>
<path d="M65.6378 105.462C66.2415 108.838 65.7653 111.567 64.3112 112.045C62.466 112.65 59.7619 109.435 58.2653 104.865C56.7687 100.285 57.0408 96.0896 58.8861 95.4842C60.2806 95.0237 62.1599 96.7462 63.648 99.5945H65.2806C63.1122 94.7849 59.915 91.732 57.5425 92.508C54.7619 93.429 54.1752 99.2534 56.233 105.538C58.2908 111.815 62.2109 116.164 64.9915 115.243C67.2449 114.501 68.0527 110.535 67.1854 105.717L65.6378 105.47V105.462Z" fill="#098989"/>
</svg>
