<svg width="235" height="214" viewBox="0 0 235 214" fill="none" xmlns="http://www.w3.org/2000/svg">
<path d="M89.5648 64.5835C89.5648 64.5835 79.4811 58.1499 77.3086 73.5947C75.1463 88.9673 64.581 104.577 58.4528 71.2234C51.0643 65.3774 47.9285 69.6459 47.9285 69.6459C47.9285 69.6459 46.0224 100.628 66.7535 103.319C77.7492 103.474 83.4367 90.5139 84.6869 86.4104C85.9474 82.2966 89.5546 64.5938 89.5546 64.5938L89.5648 64.5835Z" fill="#424242"/>
<path d="M47.8875 70.6254C49.4554 69.749 51.8943 69.0891 54.3845 68.7592C55.563 69.2335 56.9157 70.0067 58.4528 71.2234C58.75 72.8524 59.0574 74.3577 59.3854 75.7599C54.9276 77.9869 50.3572 75.6052 47.9285 73.904C47.8772 72.5018 47.8772 71.3677 47.8977 70.6254H47.8875Z" fill="#323332"/>
<path d="M56.9362 87.4002C58.8012 86.9362 60.3384 85.534 61.5271 83.2554C61.8243 84.0596 62.1215 84.7814 62.4187 85.4412C61.0762 87.4517 59.3956 88.7405 57.3871 89.2354C56.721 89.4004 56.0549 89.4725 55.399 89.4725C53.5852 89.4725 51.8533 88.9158 50.3981 88.2456C50.1112 87.4002 49.8448 86.5444 49.6193 85.6887C51.4127 86.7712 54.2615 88.0497 56.9259 87.3899L56.9362 87.4002Z" fill="#323332"/>
<path d="M65.8926 90.3077C66.5178 90.7407 67.1429 90.9572 67.768 90.9985C67.604 96.3907 65.8619 100.164 62.5826 102.288C61.8448 102.01 61.1377 101.701 60.4614 101.34C62.9925 100.175 65.8209 97.3908 65.8824 90.3077H65.8926Z" fill="#323332"/>
<path d="M71.0575 89.4725C71.5289 89.0189 71.9798 88.4621 72.4102 87.8332C73.8653 88.2353 75.1156 88.9467 76.1403 89.9777C77.7185 91.5655 78.7125 93.875 79.1224 96.7516C78.5895 97.4114 78.0157 98.0404 77.4008 98.6487C77.2163 95.4113 76.335 92.8646 74.7979 91.3181C73.8243 90.3386 72.5741 89.72 71.0472 89.4725H71.0575Z" fill="#323332"/>
<path d="M75.382 81.6883C75.5972 81.0594 75.8022 80.4201 75.9866 79.7706C79.0609 79.7396 81.6946 80.5438 83.8671 82.2038C84.4615 82.6575 84.9738 83.1523 85.4145 83.6472C85.189 84.5648 84.9943 85.3484 84.8201 85.9464C84.1848 85.0185 83.3035 84.0493 82.0942 83.2761C80.2394 82.0801 77.9849 81.5646 75.3718 81.6986L75.382 81.6883Z" fill="#323332"/>
<path d="M78.4256 68.8726C78.5998 68.8211 78.7843 68.7798 78.9687 68.7386C81.7766 68.1715 84.9021 68.8726 88.2634 70.8006C88.1301 71.4296 87.9969 72.0791 87.8535 72.7493C84.7074 70.8419 81.8688 70.1098 79.3786 70.5944C78.7638 70.7182 78.2411 70.9037 77.7595 71.1306C77.9542 70.2954 78.1694 69.5531 78.4153 68.8829L78.4256 68.8726Z" fill="#323332"/>
<path d="M59.6313 100.865C65.452 100.412 76.9704 97.5145 84.2155 75.1103C85.8961 69.9243 87.6382 66.4909 89.3086 64.4392C89.4623 64.5217 89.5546 64.5835 89.5546 64.5835C89.5546 64.5835 85.9371 82.2863 84.6869 86.4001C83.4264 90.5139 77.7492 103.474 66.7535 103.309C63.9968 102.948 61.6501 102.082 59.6313 100.865Z" fill="#323332"/>
<path d="M48.8712 39.7667C48.8712 39.7667 51.2487 42.303 54.241 46.6127C51.6996 50.2007 50.9413 54.5929 50.7261 54.9434C50.5211 55.294 51.5254 61.6967 51.5561 62.0575C51.5766 62.4081 54.1181 66.5013 61.0045 65.6146C67.9012 64.7279 69.7253 58.5005 69.7253 55.1806C69.7253 51.8607 66.6305 46.1694 66.6305 46.1694L48.861 39.7667H48.8712Z" fill="#28544B"/>
<path d="M69.7253 55.1806C69.7253 55.593 69.6946 56.0569 69.6331 56.5518L48.8712 39.7667L66.6407 46.1694C66.6407 46.1694 69.7355 51.8607 69.7355 55.1806H69.7253Z" fill="#1F443B"/>
<path d="M59.3956 69.0066C59.3956 69.0066 59.5493 75.3268 51.8533 73.5947C44.1573 71.8523 40.2324 67.9447 42.8968 62.872C45.5715 57.7891 59.3956 69.017 59.3956 69.017V69.0066Z" fill="#007177"/>
<path d="M40.7448 43.0866L56.5263 50.4378L59.3956 49.1284L44.6287 41.9009L40.7448 43.0866Z" fill="#63BCB8"/>
<path d="M67.4913 45.2208L50.7261 37.2819L48.8712 39.7667L65.247 47.7159L67.4913 48.1902V45.2208Z" fill="#63BCB8"/>
<path d="M47.8772 66.9137C47.3956 65.264 48.6561 64.0371 50.6953 63.2432C54.9994 65.4496 59.3854 69.0066 59.3854 69.0066C59.3854 69.0066 59.5391 75.3268 51.8431 73.5947C50.3469 73.2545 48.9942 72.8318 47.8055 72.3369C48.3384 71.0172 48.5536 69.2541 47.867 66.9137H47.8772Z" fill="#28544B"/>
<path d="M40.7448 43.0866C40.7448 43.0866 29.1957 62.1709 47.8157 68.6973C56.5365 71.4296 63.4537 69.9036 66.7637 65.7383C61.5989 66.6765 55.8294 66.9137 56.3008 60.3976C56.7722 53.8815 57.551 49.9739 57.551 49.9739L40.7448 43.0866Z" fill="#0A9EA5"/>
<path d="M56.5263 50.4378C56.5263 50.4378 49.6911 72.4915 65.3598 66.6765C76.5503 60.0367 67.8295 45.3343 67.4811 45.2208L65.2471 47.7056C65.2471 47.7056 73.1788 59.5934 63.0438 63.9443C52.9191 68.2952 59.3854 49.1284 59.3854 49.1284C56.639 48.6542 56.516 50.4378 56.516 50.4378H56.5263Z" fill="#098989"/>
<path d="M105.356 31.4463C105.356 37.6737 109.538 42.7361 114.692 42.7361C119.847 42.7361 124.028 37.684 124.028 31.4463C124.028 25.2086 119.847 20.1566 114.692 20.1566C109.538 20.1566 105.356 25.2086 105.356 31.4463Z" fill="#28544B"/>
<path d="M181.343 10.4649C180.047 10.4649 178.996 9.40785 178.996 8.10388C178.996 6.79991 180.047 5.74283 181.343 5.74283C182.639 5.74283 183.69 6.79991 183.69 8.10388C183.69 9.40785 182.639 10.4649 181.343 10.4649Z" fill="#007177"/>
<path d="M181.343 5.74283C181.978 5.74283 182.552 6.00058 182.972 6.413C182.972 6.43362 182.972 6.44393 182.972 6.46455C182.972 7.76364 181.927 8.8256 180.626 8.8256C179.99 8.8256 179.417 8.56784 178.996 8.15543C178.996 8.13481 178.996 8.1245 178.996 8.10388C178.996 6.80479 180.042 5.74283 181.343 5.74283Z" fill="#068894"/>
<path d="M103.02 48.6542L121.076 37.684L125.585 23.3321C126.446 20.5999 128.844 18.4451 130.924 18.5585L150.877 19.5998L167.621 9.4339L179.775 21.7753V21.7959C180.636 22.7135 180.923 24.3529 180.339 26.1984L169.743 59.9645C168.882 62.6968 166.484 64.8516 164.414 64.7382L117.213 62.274C116.352 62.2328 115.686 61.7895 115.256 61.0987H115.235C115.051 60.7687 103.03 48.6542 103.03 48.6542H103.02Z" fill="#007177"/>
<path d="M165.838 10.4959L167.611 9.42358L179.765 21.765V21.7856C180.564 22.6414 180.851 24.126 180.431 25.8169L167.068 11.9702C166.648 11.4753 166.238 10.9907 165.849 10.5165L165.838 10.4959Z" fill="#068894"/>
<path d="M173.35 34.4672C173.688 34.4672 173.996 34.2507 174.098 33.9105L181.384 9.66073C181.507 9.238 181.271 8.80497 180.861 8.67094C180.452 8.54722 180.011 8.78435 179.878 9.19676L172.592 33.4568C172.469 33.8692 172.704 34.3126 173.114 34.4363C173.186 34.4569 173.268 34.4672 173.34 34.4672H173.35Z" fill="black"/>
<path d="M121.763 2.36105C121.763 3.66015 122.808 4.7221 124.11 4.7221C125.411 4.7221 126.456 3.67046 126.456 2.36105C126.456 1.05165 125.411 0 124.11 0C122.808 0 121.763 1.05165 121.763 2.36105Z" fill="#007177"/>
<path d="M124.099 0C124.509 0 124.889 0.113413 125.216 0.298998C125.278 0.515514 125.319 0.732029 125.319 0.969166C125.319 2.26826 124.274 3.33022 122.972 3.33022C122.562 3.33022 122.183 3.2168 121.845 3.03122C121.784 2.8147 121.743 2.59819 121.743 2.36105C121.743 1.06196 122.788 0 124.089 0H124.099Z" fill="#068894"/>
<path d="M116.117 28.7244C116.455 28.7244 116.762 28.5079 116.865 28.1574L124.151 3.9076C124.274 3.48488 124.038 3.05185 123.628 2.91781C123.218 2.79409 122.778 3.03122 122.655 3.44364L115.368 27.6934C115.246 28.1161 115.481 28.5491 115.891 28.6832C115.963 28.7038 116.045 28.7141 116.117 28.7141V28.7244Z" fill="black"/>
<path d="M165.777 45.6436C166.699 36.6015 174.867 33.3331 178.392 32.3433L171.413 54.5723L165.777 45.6436Z" fill="#28544B"/>
<path d="M168.492 62.3256C167.365 63.8206 165.818 64.8001 164.404 64.7279L117.203 62.2637C116.342 62.2225 115.676 61.7792 115.246 61.0884H115.225C115.041 60.7584 103.02 48.6439 103.02 48.6439L112.755 42.7258C128.332 43.365 148.622 44.396 148.622 44.396L168.492 62.3153V62.3256Z" fill="#28544B"/>
<path d="M103.02 48.6542L112.755 42.7361C128.332 43.3753 148.622 44.4063 148.622 44.4063L155.201 50.3347C154.033 51.6545 152.516 52.4999 151.123 52.4277L104.127 49.7677C103.44 49.0769 103.02 48.6542 103.02 48.6542Z" fill="#068894"/>
<path d="M153.336 44.4063L169.517 60.511C168.769 62.3565 167.355 63.8618 165.869 64.4598L150.457 48.1077L153.336 44.4167V44.4063Z" fill="#0A9EA5"/>
<path d="M104.629 49.3553L151.83 51.8194C153.91 51.9225 156.308 49.778 157.169 47.0458L167.765 13.2796C168.626 10.5474 167.632 8.21729 165.551 8.11419L118.351 5.65003C116.27 5.53662 113.872 7.69147 113.012 10.4237L102.415 44.1898C101.555 46.9221 102.559 49.2522 104.629 49.3553Z" fill="#28544B"/>
<path d="M113.011 10.4134C113.872 7.68115 116.27 5.5263 118.351 5.63972L165.551 8.10387C166.238 8.1348 166.791 8.4338 167.212 8.88745C167.447 9.75352 167.427 10.8155 167.068 11.9496L156.472 45.7158C155.611 48.448 153.213 50.6028 151.133 50.4894L103.932 48.0253C103.245 47.9943 102.692 47.6953 102.272 47.2417C102.046 46.3756 102.057 45.3136 102.415 44.1795L113.011 10.4134Z" fill="#068894"/>
<path d="M107.949 43.7052L110.665 43.2207L112.94 36.6736C113.206 35.8901 114.702 35.323 116.24 35.4055L145.005 37.1067L152.035 35.3952L153.449 38.2924C153.521 38.3748 153.572 38.4676 153.613 38.5604C153.674 38.7254 153.695 38.9007 153.633 39.0759L150.262 48.7882C149.985 49.5718 148.499 50.1389 146.962 50.0564L111.895 47.984C110.685 47.9118 109.794 47.4479 109.599 46.8705H109.548L107.98 43.7052H107.949Z" fill="#1F443B"/>
<path d="M106.381 40.3853L109.097 39.9008L111.372 33.3537C111.649 32.5701 113.134 32.0031 114.672 32.0856L143.437 33.7868L150.467 32.0753L151.881 34.9724C151.953 35.0549 152.004 35.1477 152.035 35.2405C152.096 35.4055 152.117 35.5807 152.055 35.756L148.684 45.4683C148.407 46.2519 146.921 46.8189 145.384 46.7365L110.316 44.6641C109.107 44.5919 108.216 44.128 108.011 43.5506L107.959 43.53L106.392 40.375L106.381 40.3853Z" fill="#007177"/>
<path d="M145.353 42.7361L147.679 46.3653C147.054 46.6437 146.224 46.7983 145.374 46.7468L110.306 44.6744C109.097 44.6022 108.205 44.1383 108 43.5609L107.949 43.5403L106.381 40.3853L108.615 39.9832L113.124 40.4472L145.343 42.7258L145.353 42.7361Z" fill="#28544B"/>
<path d="M143.642 42.169L145.866 41.0452L148.776 45.1487L148.663 45.4889C148.458 46.0663 147.618 46.5199 146.562 46.6849L143.632 42.169H143.642Z" fill="#FAFAFA"/>
<path d="M141.828 56.5622L154.791 64.2227L138.631 63.3772C137.842 61.4905 138.446 59.2016 141.828 56.5622Z" fill="#1F443B"/>
<path d="M117.736 7.37184C117.018 7.23781 116.229 7.77394 115.963 8.56783C115.696 9.37203 116.065 10.1247 116.783 10.269C117.5 10.4031 118.289 9.86693 118.556 9.07304C118.812 8.26883 118.453 7.51618 117.736 7.37184Z" fill="#007177"/>
<path d="M115.891 7.65022C115.43 8.32039 115.532 9.18645 116.127 9.59886C116.711 10.0113 117.561 9.79476 118.023 9.1349C118.484 8.46473 118.371 7.59867 117.787 7.18626C117.203 6.77385 116.352 6.99036 115.901 7.65022H115.891Z" fill="#068894"/>
<path d="M117.018 7.26874C116.721 7.2275 116.444 7.44401 116.403 7.75332C116.363 8.05232 116.578 8.3307 116.885 8.37194C117.182 8.41318 117.459 8.19666 117.5 7.88736C117.541 7.58836 117.326 7.30998 117.018 7.26874Z" fill="#0A9EA5"/>
<path d="M108.667 41.4576L143.734 43.53C145.271 43.6228 146.757 43.0557 147.034 42.2618L150.405 32.5495C150.682 31.7659 149.637 31.0442 148.1 30.9514L113.032 28.8791C111.485 28.7863 109.999 29.3533 109.732 30.1472L106.361 39.8595C106.084 40.6431 107.129 41.3648 108.667 41.4576Z" fill="#0A9EA5"/>
<path d="M112.058 39.2821L142.392 41.0349C143.724 41.1174 144.974 40.7359 145.159 40.1998L147.464 33.5806C147.649 33.0444 146.716 32.5392 145.384 32.467L115.051 30.7143C113.719 30.6318 112.468 31.0133 112.284 31.5494L109.968 38.1686C109.783 38.7048 110.716 39.21 112.058 39.2821Z" fill="#007177"/>
<path d="M113.124 30.9308C113.637 30.7555 114.323 30.6627 115.041 30.704L145.374 32.4567C146.706 32.5289 147.649 33.0341 147.454 33.5702L146.337 36.7664L115.317 34.4672L113.114 30.9308H113.124Z" fill="#28544B"/>
<path d="M111.341 39.1893L113.585 32.7557C113.77 32.2196 115.02 31.8484 116.352 31.9206L146.685 33.6733C146.942 33.6837 147.177 33.7249 147.393 33.7661L145.148 40.1997C144.964 40.7359 143.714 41.107 142.381 41.0349L112.048 39.2821C111.792 39.2718 111.556 39.2306 111.341 39.1893Z" fill="#A74D4B"/>
<path d="M162.241 36.8077C162.241 43.0454 166.422 48.0974 171.587 48.0974C176.752 48.0974 180.923 43.0454 180.923 36.8077C180.923 30.57 176.742 25.5179 171.587 25.5179C166.433 25.5179 162.241 30.57 162.241 36.8077Z" fill="#068894"/>
<path d="M172.069 25.5489C176.998 25.8582 180.923 30.7659 180.923 36.8077C180.923 41.7463 178.289 45.9323 174.631 47.4685C169.702 47.1592 165.777 42.2412 165.777 36.2097C165.777 31.2711 168.411 27.0851 172.069 25.5489Z" fill="#0A9EA5"/>
<path d="M177.797 28.4048C179.714 30.4669 180.913 33.4568 180.913 36.8077C180.913 41.7463 178.279 45.9323 174.621 47.4685C172.51 47.3345 170.583 46.355 169.077 44.8084C171.382 43.7568 179.519 40.705 177.797 28.4151V28.4048Z" fill="#068894"/>
<path d="M172.715 36.2097C172.715 38.5501 174.139 40.4472 175.902 40.4472C177.664 40.4472 179.089 38.5501 179.089 36.2097C179.089 33.8692 177.664 31.9722 175.902 31.9722C174.139 31.9722 172.715 33.8692 172.715 36.2097Z" fill="#007177"/>
<path d="M175.912 31.9722C176.158 31.9722 176.393 32.0134 176.619 32.0856C177.674 32.7764 178.402 34.2095 178.402 35.8694C178.402 38.2099 176.978 40.1173 175.215 40.1173C174.969 40.1173 174.733 40.076 174.508 40.0039C173.463 39.3131 172.725 37.8799 172.725 36.22C172.725 33.8796 174.149 31.9825 175.912 31.9825V31.9722Z" fill="#068894"/>
<path d="M118.453 36.4777L112.386 36.1994L112.755 35.158L118.781 35.4467L119.847 32.1165L120.933 32.1784L119.867 35.4983L125.831 35.7766L126.866 32.5186L127.953 32.5805L126.907 35.8282L132.39 36.086L133.415 32.9001L134.491 32.9619L133.476 36.1375L140.014 36.4468L141.008 33.3434L142.094 33.4053L141.1 36.4984L146.357 36.7458L145.999 37.7872L140.772 37.5397L139.696 40.8699L138.62 40.8081L139.686 37.4882L133.148 37.1788L132.103 40.4369L131.017 40.375L132.062 37.1273L126.579 36.8695L125.555 40.0554L124.479 39.9935L125.493 36.818L119.529 36.5293L118.535 39.6533L117.449 39.5915L118.453 36.4777Z" fill="#BC5C5C"/>
<path d="M132.523 79.9459C123.479 79.9459 116.147 74.2035 116.147 67.1199C116.147 60.0363 123.479 54.2939 132.523 54.2939C141.567 54.2939 148.899 60.0363 148.899 67.1199C148.899 74.2035 141.567 79.9459 132.523 79.9459Z" fill="#424242"/>
<path d="M146.347 72.2131C146.347 65.13 139.01 59.3872 129.971 59.3872C122.132 59.3872 115.594 63.7072 113.985 69.4603C114.528 62.7586 121.62 57.4488 130.31 57.4488C139 57.4488 146.685 63.1917 146.685 70.2748C146.685 71.2234 146.542 72.141 146.296 73.0277C146.317 72.7596 146.347 72.4812 146.347 72.2028V72.2131Z" fill="#323332"/>
<path d="M154.012 12.1867C157.722 13.2899 159.854 18.9503 158.071 23.2394C156.287 27.5284 151.83 30.106 148.12 29.0028C148.12 29.0028 144.503 28.2089 143.314 25.0436C144.482 21.4041 154.012 12.1867 154.012 12.1867Z" fill="#28544B"/>
<path d="M152.496 10.3721C156.205 11.4753 158.337 17.1357 156.554 21.4247C154.771 25.7138 150.19 27.6109 146.48 26.5077C146.48 26.5077 142.986 26.4046 141.797 23.2394C142.965 19.5998 152.496 10.3824 152.496 10.3824V10.3721Z" fill="#FAFAFA"/>
<path d="M154.064 19.4452L156.154 22.2289C154.176 26.0231 150.057 28.2192 146.583 27.1882C146.583 27.1882 142.965 26.3943 141.777 23.229C142.115 22.1774 143.16 20.6618 144.462 19.0328C146.839 18.5379 149.995 18.5585 154.053 19.4452H154.064Z" fill="#007177"/>
<path d="M156.544 21.4248C156.277 22.0537 155.96 22.6414 155.591 23.1878L153.018 20.7237L154.443 17.5996L156.923 20.2494C156.82 20.6515 156.708 21.0433 156.544 21.4248Z" fill="#0A9EA5"/>
<path d="M141.295 15.5994C139.512 19.8885 141.07 24.2601 144.779 25.3633C148.489 26.4665 152.947 23.8889 154.73 19.5998C156.513 15.3108 154.955 10.9392 151.246 9.836C147.536 8.7328 143.078 11.3207 141.295 15.5994Z" fill="#068894"/>
<path d="M142.146 15.7438C140.721 19.1668 141.961 22.6517 144.923 23.5383C147.884 24.4147 151.44 22.3527 152.875 18.9297C154.299 15.5066 153.059 12.0218 150.098 11.1351C147.136 10.2587 143.58 12.3208 142.156 15.7438H142.146Z" fill="#007177"/>
<path d="M151.256 12.3826C151.779 12.5373 152.24 12.7744 152.65 13.0837C153.613 14.62 153.767 16.7851 152.875 18.9297C151.451 22.3527 147.895 24.4147 144.923 23.5383C144.4 23.3837 143.939 23.1466 143.529 22.8372C142.566 21.301 142.412 19.1359 143.304 16.9913C144.728 13.5683 148.284 11.5063 151.246 12.3826H151.256Z" fill="#FFD6A0"/>
<path d="M146.398 13.8982C145.63 14.7024 145.527 15.8469 146.163 16.4655C146.798 17.0841 147.331 16.4655 148.089 15.6716C148.858 14.8674 149.565 14.1766 148.93 13.558C148.294 12.9394 147.157 13.094 146.388 13.8982H146.398Z" fill="#F56462"/>
<path d="M127.819 9.77414C131.529 10.8773 133.661 16.5377 131.877 20.8268C130.094 25.1158 125.637 27.6934 121.927 26.5902C121.927 26.5902 118.31 25.7963 117.121 22.6311C118.289 18.9915 127.819 9.77414 127.819 9.77414Z" fill="#28544B"/>
<path d="M126.303 7.96983C130.012 9.07303 132.144 14.7334 130.361 19.0224C128.578 23.3115 123.997 25.2086 120.287 24.1054C120.287 24.1054 116.793 24.0023 115.604 20.8371C116.772 17.1975 126.303 7.98014 126.303 7.98014V7.96983Z" fill="#FAFAFA"/>
<path d="M127.881 17.0429L129.971 19.8266C127.994 23.6208 123.874 25.8169 120.4 24.7859C120.4 24.7859 116.783 23.992 115.594 20.8267C115.932 19.7751 116.977 18.2595 118.279 16.6305C120.656 16.1356 123.813 16.1562 127.871 17.0429H127.881Z" fill="#007177"/>
<path d="M130.351 19.0121C130.084 19.6411 129.766 20.2288 129.398 20.7752L126.825 18.311L128.24 15.187L130.72 17.8368C130.617 18.2389 130.504 18.6307 130.34 19.0121H130.351Z" fill="#0A9EA5"/>
<path d="M115.102 13.1971C113.319 17.4862 114.877 21.8578 118.586 22.961C122.296 24.0642 126.754 21.4763 128.537 17.1975C130.32 12.9085 128.762 8.5369 125.053 7.4337C121.343 6.3305 116.885 8.91838 115.102 13.1971Z" fill="#068894"/>
<path d="M115.953 13.3312C114.528 16.7542 115.768 20.2391 118.73 21.1257C121.691 22.0021 125.247 19.9401 126.672 16.5171C128.096 13.094 126.856 9.60918 123.895 8.72249C120.933 7.84612 117.377 9.90817 115.953 13.3312Z" fill="#007177"/>
<path d="M125.063 9.98034C125.585 10.135 126.047 10.3721 126.456 10.6814C127.42 12.2177 127.573 14.3828 126.682 16.5274C125.258 19.9504 121.691 22.0124 118.74 21.1361C118.217 20.9814 117.756 20.7443 117.346 20.435C116.383 18.8987 116.229 16.7336 117.121 14.589C118.545 11.166 122.101 9.10396 125.063 9.98034Z" fill="#FFD6A0"/>
<path d="M120.205 11.4856C119.437 12.2898 119.334 13.4343 119.97 14.0529C120.605 14.6715 121.138 14.0529 121.906 13.259C122.675 12.4548 123.382 11.764 122.747 11.1454C122.111 10.5268 120.974 10.6814 120.205 11.4856Z" fill="#F56462"/>
<path d="M175.594 34.4775C175.871 34.7662 176.127 35.0652 176.383 35.3849C176.598 34.9106 176.783 34.426 176.957 33.9105C177.06 33.5909 177.295 33.4775 177.48 33.6837C177.664 33.8899 177.715 34.3435 177.603 34.6631C177.408 35.1683 177.193 35.6632 176.967 36.1375C177.203 36.4777 177.439 36.8283 177.654 37.1892C177.797 37.416 177.756 37.8593 177.582 38.148C177.398 38.4367 177.142 38.4676 177.019 38.2305C176.824 37.8696 176.609 37.5191 176.393 37.1892C176.137 37.6325 175.85 38.0449 175.563 38.447C175.379 38.6945 175.123 38.7254 175 38.5192C174.877 38.313 174.928 37.9624 175.102 37.7047C175.379 37.3026 175.635 36.8798 175.881 36.4468C175.645 36.1272 175.399 35.8282 175.153 35.5395C175 35.3539 174.969 34.9828 175.092 34.6941C175.215 34.4054 175.44 34.3023 175.615 34.4775H175.594Z" fill="#007177"/>
<path d="M175.082 37.6944C175.358 37.2923 175.615 36.8695 175.861 36.4365C175.625 36.1169 175.379 35.8179 175.133 35.5292C174.979 35.3436 174.949 34.9724 175.072 34.6838C175.092 34.6322 175.123 34.591 175.153 34.5497C175.153 34.5497 175.174 34.5497 175.184 34.5703C175.461 34.859 175.717 35.158 175.973 35.4776L176.383 35.3849C176.598 34.9106 176.783 34.426 176.957 33.9105C176.978 33.8486 177.008 33.8074 177.029 33.7661C177.029 33.7661 177.049 33.7661 177.06 33.7868C177.244 33.993 177.295 34.4466 177.172 34.7662C176.978 35.2714 176.762 35.7663 176.537 36.2406C176.773 36.5808 177.008 36.9314 177.224 37.2923C177.367 37.5191 177.336 37.9624 177.152 38.2511C177.131 38.282 177.111 38.3027 177.09 38.3233C177.06 38.3027 177.029 38.282 177.008 38.2408C176.814 37.8799 176.598 37.5294 176.383 37.1995C176.322 37.1995 175.973 37.2923 175.973 37.2923C175.707 37.7356 175.43 38.148 175.143 38.5501C175.123 38.5707 175.102 38.5914 175.082 38.612C175.051 38.5914 175.02 38.5707 175 38.5295C174.877 38.3233 174.928 37.9727 175.102 37.715L175.082 37.6944Z" fill="#28544B"/>
<path d="M164.875 9.33079C164.158 9.19676 163.369 9.7329 163.102 10.5268C162.846 11.331 163.205 12.0836 163.922 12.228C164.639 12.362 165.428 11.8259 165.685 11.032C165.951 10.2278 165.582 9.47514 164.865 9.33079H164.875Z" fill="#007177"/>
<path d="M163.03 9.60917C162.569 10.2793 162.682 11.1454 163.266 11.5578C163.85 11.9702 164.701 11.7537 165.162 11.0939C165.623 10.4237 165.51 9.55762 164.926 9.14521C164.342 8.7328 163.492 8.94932 163.03 9.60917Z" fill="#068894"/>
<path d="M164.158 9.22769C163.861 9.18645 163.584 9.40297 163.543 9.71228C163.502 10.0113 163.717 10.2897 164.025 10.3309C164.322 10.3721 164.598 10.1556 164.639 9.84631C164.68 9.54731 164.465 9.26893 164.158 9.22769Z" fill="#0A9EA5"/>
<path d="M153.633 45.1796C152.916 45.0456 152.127 45.5817 151.871 46.3756C151.604 47.1695 151.973 47.9325 152.691 48.0768C153.408 48.2108 154.197 47.6747 154.453 46.8808C154.72 46.0869 154.351 45.324 153.633 45.1796Z" fill="#007177"/>
<path d="M139.246 55.428C144.933 57.4385 148.899 61.9132 148.899 67.1199C148.899 69.7696 147.874 72.2235 146.122 74.2649C141.756 74.5639 137.042 73.172 132.656 70.5944C131.17 69.7181 136.827 62.1503 139.246 55.428Z" fill="#323332"/>
<path d="M151.789 45.458C151.328 46.1282 151.44 46.9942 152.024 47.4066C152.609 47.819 153.459 47.6025 153.92 46.9427C154.381 46.2725 154.269 45.4064 153.685 44.994C153.1 44.5816 152.25 44.7981 151.789 45.458Z" fill="#068894"/>
<path d="M152.916 45.0765C152.619 45.0353 152.342 45.2518 152.301 45.5611C152.26 45.8704 152.475 46.1385 152.783 46.1797C153.08 46.2209 153.357 46.0044 153.398 45.6951C153.439 45.3961 153.223 45.1178 152.916 45.0765Z" fill="#0A9EA5"/>
<path d="M169.148 79.8324L156.062 150.066C155.55 153.087 152.803 155.335 149.975 155.066L100.55 150.169C100.284 150.138 100.038 150.076 99.7818 150.014H99.7305L99.628 149.984C99.5768 149.963 99.5256 149.953 99.4743 149.932L75.6792 142.869C75.6792 142.869 89.5136 125.888 101.77 112.454L108.964 70.3367C109.476 67.3158 112.222 65.0681 115.051 65.3362L142.105 67.9241C144.585 65.4187 146.224 63.7793 146.224 63.7793L165.5 73.9659C165.736 74.0174 165.972 74.0793 166.197 74.1721L166.361 74.2236V74.2443C168.37 75.1206 169.579 77.358 169.159 79.8324H169.148Z" fill="#007177"/>
<path d="M151.082 155.046C150.713 155.097 150.344 155.108 149.975 155.066L100.55 150.169C100.284 150.138 100.038 150.076 99.7817 150.014H99.7305L99.628 149.984C99.5768 149.963 99.5255 149.953 99.4743 149.932L75.6792 142.869C75.6792 142.869 76.8987 141.364 78.938 138.91L129.982 144.034L151.092 155.046H151.082Z" fill="#28544B"/>
<path d="M126.836 146.973C129.377 141.416 134.04 140.735 134.04 140.735L155.662 151.396C154.689 153.716 152.373 155.304 149.975 155.066L140.168 154.097C133.353 150.942 126.538 147.602 126.825 146.973H126.836Z" fill="#0A9EA5"/>
<path d="M143.488 66.5219C145.169 64.831 146.224 63.769 146.224 63.769L165.5 73.9556C165.736 74.0071 165.972 74.069 166.197 74.1618L166.361 74.2133V74.234C168.37 75.1103 169.579 77.3477 169.159 79.8221L169.087 80.2345L143.662 68.419C143.57 67.7385 143.519 67.1096 143.498 66.5219H143.488Z" fill="#068894"/>
<path d="M105.479 43.1382C104.762 43.0041 103.973 43.5403 103.707 44.3342C103.45 45.1384 103.809 45.891 104.526 46.0354C105.244 46.1694 106.033 45.6333 106.289 44.8394C106.555 44.0352 106.187 43.2825 105.469 43.1382H105.479Z" fill="#007177"/>
<path d="M103.625 43.4269C103.163 44.097 103.276 44.9631 103.86 45.3755C104.444 45.7879 105.295 45.5714 105.756 44.9115C106.217 44.2414 106.105 43.3753 105.52 42.9629C104.936 42.5505 104.086 42.767 103.625 43.4269Z" fill="#068894"/>
<path d="M104.752 43.0454C104.455 43.0041 104.178 43.2207 104.137 43.53C104.096 43.829 104.311 44.1073 104.619 44.1486C104.916 44.1898 105.193 43.9733 105.234 43.664C105.264 43.365 105.059 43.0866 104.752 43.0454Z" fill="#0A9EA5"/>
<path d="M77.1549 143.261L131.037 148.416C133.876 148.684 136.612 146.437 137.124 143.416L149.739 69.5531C150.252 66.5322 148.356 63.8412 145.527 63.5731L91.6451 58.418C88.8167 58.1499 86.0704 60.3976 85.558 63.4185L72.9431 137.281C72.4307 140.302 74.3265 142.993 77.1549 143.272V143.261Z" fill="#28544B"/>
<path d="M72.5024 136.982L85.1173 63.1195C85.6297 60.0986 88.3761 57.8509 91.2044 58.119L145.087 63.2741C146.409 63.3979 147.515 64.068 148.284 65.0372C148.725 65.9857 148.899 67.1096 148.694 68.2746L136.079 142.137C135.567 145.158 132.82 147.406 129.992 147.138L76.1096 141.983C74.7876 141.859 73.6809 141.189 72.9123 140.22C72.4717 139.271 72.2974 138.147 72.5024 136.982Z" fill="#068894"/>
<path d="M85.476 137.044L122.89 140.704C125.852 140.993 128.69 138.828 129.193 135.889L134.89 102.762C135.392 99.8241 133.384 97.1846 130.422 96.8856L93.008 93.2255C90.0465 92.9368 87.2078 95.102 86.7057 98.0404L81.008 131.167C80.5058 134.106 82.5144 136.745 85.476 137.034V137.044Z" fill="#007177"/>
<path d="M86.6954 135.611L121.906 139.065C124.694 139.343 127.358 137.312 127.84 134.559L133.179 103.525C133.65 100.773 131.765 98.2981 128.977 98.0197L93.7663 94.5658C90.979 94.2874 88.3146 96.3185 87.8329 99.0714L82.4836 130.105C82.0122 132.858 83.8978 135.333 86.6852 135.611H86.6954Z" fill="#28544B"/>
<path d="M82.1967 130.487L87.546 99.4529C88.0174 96.7 90.692 94.6689 93.4794 94.9473L128.69 98.4012C129.92 98.525 130.955 99.0817 131.703 99.8859C132.041 100.69 132.175 101.597 132.011 102.536L126.672 133.57C126.2 136.322 123.526 138.354 120.738 138.075L85.5272 134.621C84.2975 134.497 83.2625 133.941 82.5144 133.126C82.1762 132.322 82.043 131.415 82.2069 130.476L82.1967 130.487Z" fill="#068894"/>
<path d="M131.898 142.766C131.181 142.632 130.392 143.168 130.135 143.962C129.879 144.767 130.238 145.519 130.955 145.664C131.673 145.798 132.462 145.261 132.718 144.468C132.984 143.663 132.615 142.911 131.898 142.766Z" fill="#007177"/>
<path d="M130.043 143.055C129.582 143.715 129.695 144.591 130.279 145.004C130.863 145.416 131.714 145.2 132.175 144.54C132.636 143.87 132.523 143.003 131.939 142.591C131.355 142.179 130.504 142.385 130.043 143.055Z" fill="#068894"/>
<path d="M131.181 142.674C130.883 142.632 130.607 142.849 130.566 143.158C130.525 143.467 130.74 143.735 131.047 143.777C131.345 143.818 131.621 143.591 131.662 143.292C131.703 142.993 131.488 142.715 131.181 142.674Z" fill="#0A9EA5"/>
<path d="M146.112 66.161C145.394 66.027 144.605 66.5631 144.349 67.357C144.082 68.1509 144.451 68.9139 145.169 69.0582C145.886 69.1922 146.675 68.6561 146.931 67.8622C147.198 67.0683 146.829 66.3054 146.112 66.161Z" fill="#007177"/>
<path d="M144.267 66.4497C143.806 67.1199 143.919 67.9859 144.503 68.3983C145.087 68.8108 145.937 68.5942 146.398 67.9344C146.86 67.2642 146.747 66.3982 146.163 65.9857C145.579 65.5733 144.728 65.7898 144.267 66.4497Z" fill="#068894"/>
<path d="M145.394 66.0682C145.097 66.027 144.82 66.2435 144.779 66.5528C144.738 66.8518 144.954 67.1302 145.261 67.1714C145.558 67.2127 145.835 66.9961 145.876 66.6868C145.917 66.3878 145.702 66.1095 145.394 66.0682Z" fill="#0A9EA5"/>
<path d="M89.8415 60.5419C89.1242 60.4079 88.3351 60.944 88.0789 61.7379C87.8124 62.5318 88.1814 63.2948 88.8987 63.4391C89.616 63.5731 90.4051 63.037 90.6613 62.2431C90.9175 61.4389 90.5588 60.6863 89.8415 60.5419Z" fill="#007177"/>
<path d="M87.9969 60.8306C87.5357 61.5008 87.6485 62.3668 88.2326 62.7792C88.8167 63.1917 89.6673 62.9751 90.1284 62.3153C90.5896 61.6451 90.4768 60.779 89.8927 60.3666C89.3086 59.9542 88.458 60.1707 87.9969 60.8306Z" fill="#068894"/>
<path d="M89.1241 60.4491C88.8269 60.4079 88.5503 60.6244 88.5093 60.9337C88.4683 61.243 88.6835 61.5111 88.9909 61.5523C89.2881 61.5936 89.5648 61.377 89.6058 61.0677C89.6468 60.7687 89.4316 60.4904 89.1241 60.4491Z" fill="#0A9EA5"/>
<path d="M106.904 71.8007C104.793 76.4713 106.842 81.9667 111.485 84.0906C116.127 86.2145 121.589 84.1524 123.7 79.4819C125.811 74.8113 123.761 69.316 119.119 67.192C114.477 65.0681 109.015 67.1302 106.904 71.8007Z" fill="#28544B"/>
<path d="M76.2838 137.003C75.5665 136.869 74.7774 137.395 74.5212 138.199C74.2548 139.003 74.6237 139.756 75.341 139.9C76.0584 140.034 76.8474 139.508 77.1036 138.704C77.3598 137.9 77.0011 137.147 76.2838 137.003Z" fill="#007177"/>
<path d="M74.4392 137.292C73.9781 137.962 74.0908 138.828 74.6749 139.24C75.259 139.653 76.1096 139.436 76.5707 138.776C77.0319 138.106 76.9192 137.24 76.335 136.828C75.7509 136.415 74.9004 136.632 74.4392 137.292Z" fill="#068894"/>
<path d="M75.5665 136.91C75.2693 136.869 74.9926 137.085 74.9516 137.395C74.9106 137.704 75.1258 137.972 75.4332 138.013C75.7304 138.055 76.0071 137.838 76.0481 137.529C76.0891 137.23 75.8739 136.951 75.5665 136.91Z" fill="#0A9EA5"/>
<path d="M111.403 81.8429C115.399 83.6678 120.236 81.4718 122.163 77.2033C124.1 72.9245 122.419 67.9756 118.422 66.1507L115.194 64.9959L109.015 80.8016L111.403 81.8532V81.8429Z" fill="#007177"/>
<path d="M92.6698 92.5862L132.882 96.6176C134.624 96.7928 136.315 95.5453 136.632 93.8544L137.258 90.586C137.575 88.8952 136.417 87.3692 134.675 87.194L94.4632 83.173C92.7211 82.9977 91.0302 84.2452 90.7125 85.9361L90.0874 89.2045C89.7697 90.8953 90.9277 92.4213 92.6698 92.5965V92.5862Z" fill="#28544B"/>
<path d="M130.381 100.505C129.664 100.37 128.875 100.907 128.619 101.701C128.352 102.494 128.721 103.257 129.439 103.391C130.156 103.525 130.945 102.989 131.211 102.195C131.468 101.391 131.109 100.639 130.392 100.494L130.381 100.505Z" fill="#007177"/>
<path d="M129.664 100.401C129.367 100.36 129.09 100.577 129.049 100.886C129.008 101.185 129.223 101.463 129.531 101.505C129.828 101.546 130.105 101.329 130.146 101.02C130.187 100.721 129.971 100.443 129.664 100.401Z" fill="#28544B"/>
<path d="M128.557 100.762L129.029 101.391L129.91 102.092C129.91 102.092 130.453 102.185 130.556 101.958C130.668 101.721 130.822 100.999 130.269 100.968C129.715 100.938 129.295 100.278 128.557 100.773V100.762Z" fill="#007177"/>
<path d="M130.31 101.948C130.392 101.752 130.484 101.536 130.484 101.536C130.484 101.536 129.705 100.525 128.557 100.762C129.018 100.123 129.838 99.9271 130.422 100.329C131.006 100.742 131.119 101.608 130.658 102.278C130.197 102.948 129.357 103.154 128.762 102.742C128.27 102.402 128.137 101.742 128.373 101.144C128.731 101.103 129.592 101.113 130.31 101.958V101.948Z" fill="#068894"/>
<path d="M129.387 100.494C129.387 100.659 129.562 100.793 129.766 100.793C129.971 100.793 130.146 100.659 130.146 100.494C130.146 100.329 129.971 100.195 129.766 100.195C129.562 100.195 129.387 100.329 129.387 100.494Z" fill="#0A9EA5"/>
<path d="M92.0755 96.2876C91.3582 96.1536 90.5691 96.6897 90.3129 97.4836C90.0465 98.2775 90.4154 99.0405 91.1327 99.1848C91.85 99.3188 92.6391 98.7827 92.8953 97.9888C93.1618 97.1846 92.7928 96.432 92.0755 96.2876Z" fill="#007177"/>
<path d="M91.3581 96.1845C91.061 96.1433 90.7843 96.3598 90.7433 96.6691C90.7023 96.9681 90.9175 97.2465 91.2249 97.2877C91.5221 97.329 91.7988 97.1125 91.8398 96.8031C91.8808 96.5041 91.6656 96.2258 91.3581 96.1845Z" fill="#28544B"/>
<path d="M90.2514 96.5454L90.7228 97.1743L91.6041 97.8754C91.6041 97.8754 92.1472 97.9785 92.2497 97.7414C92.3624 97.5042 92.5161 96.7825 91.9628 96.7516C91.4094 96.7207 90.9892 96.0608 90.2514 96.5557V96.5454Z" fill="#007177"/>
<path d="M92.014 97.7311C92.096 97.5455 92.1882 97.3187 92.1882 97.3187C92.1882 97.3187 91.4094 96.3082 90.2616 96.5454C90.7228 95.9061 91.5426 95.7103 92.1267 96.1124C92.7108 96.5145 92.8236 97.3908 92.3624 98.0507C91.9013 98.7209 91.061 98.9271 90.4666 98.5147C89.9747 98.1744 89.8415 97.5146 90.0772 96.9166C90.4359 96.8753 91.2967 96.8856 92.014 97.7311Z" fill="#068894"/>
<path d="M91.0814 96.2773C91.0814 96.4423 91.2557 96.5763 91.4606 96.5763C91.6656 96.5763 91.8398 96.4423 91.8398 96.2773C91.8398 96.1124 91.6656 95.9783 91.4606 95.9783C91.2557 95.9783 91.0814 96.1124 91.0814 96.2773Z" fill="#0A9EA5"/>
<path d="M85.8756 130.507C85.1583 130.373 84.3692 130.91 84.113 131.703C83.8466 132.508 84.2155 133.26 84.9328 133.405C85.6502 133.539 86.4393 133.003 86.6954 132.209C86.9516 131.404 86.593 130.652 85.8756 130.507Z" fill="#007177"/>
<path d="M85.1583 130.415C84.8611 130.373 84.5844 130.6 84.5434 130.899C84.5024 131.198 84.7176 131.477 85.0251 131.518C85.3222 131.559 85.5989 131.343 85.6399 131.033C85.6809 130.734 85.4657 130.456 85.1583 130.415Z" fill="#28544B"/>
<path d="M84.0618 130.765L84.5332 131.394L85.4145 132.095C85.4145 132.095 85.9474 132.188 86.0601 131.961C86.1728 131.724 86.3265 130.992 85.7732 130.971C85.2198 130.94 84.7996 130.281 84.0618 130.775V130.765Z" fill="#007177"/>
<path d="M85.8142 131.961C85.9064 131.765 85.9884 131.549 85.9884 131.549C85.9884 131.549 85.2096 130.538 84.0618 130.775C84.523 130.136 85.3428 129.94 85.9269 130.342C86.511 130.755 86.6237 131.621 86.1626 132.291C85.7014 132.951 84.8611 133.167 84.2668 132.755C83.7749 132.415 83.6417 131.755 83.8774 131.157C84.236 131.116 85.0968 131.116 85.8142 131.971V131.961Z" fill="#068894"/>
<path d="M84.8816 130.497C84.8816 130.662 85.0558 130.796 85.2608 130.796C85.4657 130.796 85.6399 130.662 85.6399 130.497C85.6399 130.332 85.4657 130.198 85.2608 130.198C85.0558 130.198 84.8816 130.332 84.8816 130.497Z" fill="#0A9EA5"/>
<path d="M112.212 72.6049L115.194 64.9856L118.422 66.1404C122.029 67.79 123.731 71.976 122.624 75.9145C120.585 75.2547 118.084 74.4402 118.084 74.4402C115.266 74.8423 113.411 73.9762 112.212 72.6049Z" fill="#FAFAFA"/>
<path d="M124.059 134.054C123.341 133.92 122.552 134.456 122.286 135.25C122.029 136.054 122.388 136.807 123.105 136.951C123.823 137.085 124.612 136.549 124.868 135.755C125.124 134.951 124.766 134.199 124.048 134.054H124.059Z" fill="#007177"/>
<path d="M123.341 133.951C123.044 133.91 122.767 134.126 122.726 134.436C122.685 134.735 122.901 135.013 123.208 135.054C123.505 135.096 123.782 134.869 123.823 134.57C123.864 134.271 123.649 133.992 123.341 133.951Z" fill="#28544B"/>
<path d="M122.245 134.302L122.716 134.931L123.597 135.632C123.597 135.632 124.14 135.724 124.243 135.498C124.356 135.26 124.509 134.539 123.956 134.508C123.403 134.477 122.982 133.817 122.245 134.312V134.302Z" fill="#007177"/>
<path d="M123.997 135.498C124.079 135.302 124.171 135.085 124.171 135.085C124.171 135.085 123.392 134.075 122.245 134.312C122.706 133.673 123.536 133.477 124.11 133.879C124.694 134.291 124.807 135.157 124.345 135.828C123.884 136.487 123.044 136.704 122.45 136.291C121.958 135.951 121.825 135.291 122.06 134.693C122.419 134.652 123.28 134.652 123.997 135.508V135.498Z" fill="#068894"/>
<path d="M123.064 134.044C123.064 134.209 123.239 134.343 123.444 134.343C123.649 134.343 123.823 134.209 123.823 134.044C123.823 133.879 123.649 133.745 123.444 133.745C123.239 133.745 123.064 133.879 123.064 134.044Z" fill="#0A9EA5"/>
<path d="M124.786 105.608C124.253 105.691 123.741 106.051 123.505 106.546C123.187 107.227 123.505 107.918 124.212 108.083L126.764 108.701C127.389 108.846 127.983 109.835 127.809 110.877L125.442 125.528C125.36 126.043 125.124 126.352 124.95 126.466C124.909 126.497 124.827 126.548 124.643 126.507L122.091 125.888C121.384 125.713 120.544 126.126 120.226 126.806C119.908 127.487 120.226 128.177 120.933 128.342L123.485 128.961C124.427 129.188 125.421 129.002 126.303 128.435C127.328 127.775 128.024 126.682 128.229 125.435L130.597 110.784C130.935 108.681 129.766 106.67 127.922 106.227L125.37 105.608C125.186 105.567 124.981 105.557 124.786 105.588V105.608Z" fill="#1F443B"/>
<path d="M119.55 73.0483L122.901 74.4814C122.798 75.3887 122.562 76.3063 122.163 77.193C122.009 77.5229 121.845 77.8425 121.661 78.1415L118.084 77.0693L119.55 73.038V73.0483Z" fill="#0A9EA5"/>
<path d="M121.486 128.28C121.968 128.28 122.429 128.002 122.644 127.528C122.931 126.889 122.644 126.136 122.009 125.847L119.714 124.806C119.15 124.548 118.617 123.455 118.771 122.414L120.902 107.845C120.974 107.33 121.189 107.052 121.343 106.969C121.384 106.948 121.456 106.907 121.62 106.969L123.915 108.01C124.55 108.299 125.298 108.01 125.596 107.371C125.883 106.732 125.596 105.969 124.96 105.68L122.665 104.639C121.825 104.257 120.923 104.278 120.134 104.711C119.211 105.216 118.586 106.216 118.402 107.454L116.27 122.022C115.963 124.115 117.018 126.352 118.668 127.105L120.964 128.146C121.138 128.219 121.312 128.26 121.486 128.26V128.28Z" fill="#0A9EA5"/>
<path d="M117.387 123.032L119.519 108.464C119.703 107.227 120.328 106.227 121.251 105.722C122.04 105.288 122.931 105.268 123.782 105.649L125.626 106.484C125.719 106.773 125.719 107.093 125.585 107.392C125.298 108.031 124.55 108.32 123.905 108.031L121.609 106.99C121.445 106.918 121.374 106.959 121.333 106.99C121.179 107.072 120.964 107.361 120.892 107.866L118.76 122.434C118.607 123.466 119.14 124.569 119.703 124.826L120.154 125.033C120.339 125.404 120.574 125.693 120.83 125.816L122.675 126.651C122.767 126.94 122.767 127.26 122.634 127.559C122.419 128.033 121.958 128.311 121.476 128.311C121.302 128.311 121.128 128.27 120.953 128.198L118.658 127.157C118.576 127.115 118.504 127.064 118.422 127.023C117.602 125.981 117.172 124.497 117.377 123.063L117.387 123.032Z" fill="#007177"/>
<path d="M92.6391 63.5113L96.8919 70.5944L98.1319 66.7899L98.1524 66.7178C98.2036 66.5425 98.3368 66.3982 98.511 66.326C98.839 66.192 99.2079 66.3466 99.3411 66.6765L103.614 77.0796L99.0439 68.8314L98.1421 73.306C98.1011 73.5329 97.9782 73.7391 97.7732 73.8937C97.3428 74.234 96.7177 74.1515 96.3795 73.7184L96.3078 73.6257L91.5836 67.5117L92.6186 63.5216L92.6391 63.5113Z" fill="#63BCB8"/>
<path d="M132.974 68.6149C133.087 68.5014 133.24 68.419 133.415 68.419C133.763 68.4087 134.06 68.6767 134.071 69.0376V69.1097L134.234 73.471L142.197 67.4292L142.412 72.0069L133.866 76.296L133.763 76.3579C133.599 76.461 133.404 76.5125 133.189 76.4919C132.646 76.4507 132.246 75.9764 132.287 75.4299L132.656 70.5944L125.012 76.9971L132.974 68.6252V68.6149Z" fill="#63BCB8"/>
<path d="M105.275 69.7387C103.348 74.0174 105.018 78.9664 109.015 80.7913C113.012 82.6162 117.818 80.6366 119.754 76.3579C121.691 72.0791 120.011 67.1302 116.014 65.3053C112.017 63.4803 107.211 65.4599 105.275 69.7387Z" fill="#068894"/>
<path d="M89.821 80.616L90.8355 81.3687L94.289 81.9254V80.616L96.1541 81.2759L95.2318 78.0384L95.4265 74.966L94.5554 74.1721L89.821 80.616Z" fill="#28544B"/>
<path d="M93.8381 73.4916L94.5554 74.1721L93.3257 81.0078L89.821 80.616L89.2164 79.8324L93.8381 73.4916Z" fill="#007177"/>
<path d="M89.2164 79.8324L89.7083 79.1623C90.9072 79.0179 92.3317 79.1623 92.3419 79.8531L93.3257 81.0078L89.821 80.616L89.2164 79.8427V79.8324Z" fill="#007177"/>
<path d="M89.2164 79.8324L92.6186 80.2655L93.8381 73.4916L90.4461 73.0586L89.2164 79.8324Z" fill="#068894"/>
<path d="M92.2292 79.5644L93.1617 73.8628L90.7433 73.6669L89.575 79.3478L92.2292 79.5644Z" fill="#C65128"/>
<path d="M91.2761 77.6673L92.3522 76.2651L93.1617 73.8628L90.7433 73.6669L89.862 76.2651L88.5093 77.2446L90.1489 78.0384L91.2761 77.6673Z" fill="#C65128"/>
<path d="M92.2292 79.5644L91.2762 77.6673L88.5093 77.2446L89.575 79.3478L92.2292 79.5644Z" fill="#DD6B38"/>
<path d="M90.7433 73.6669L93.1617 73.8628L92.3522 76.2651H89.862L90.7433 73.6669Z" fill="#DD6B38"/>
<path d="M95.5699 81.3171L96.5845 82.0698L100.028 82.6368V81.3171L101.893 81.977L100.981 78.7499L101.165 75.6671L100.294 74.8732L95.5699 81.3171Z" fill="#28544B"/>
<path d="M99.5768 74.1927L100.294 74.8732L99.0644 81.7089L95.5699 81.3171L94.9653 80.5438L99.5768 74.1927Z" fill="#007177"/>
<path d="M94.9653 80.5438L95.4572 79.8737C96.6562 79.7293 98.0806 79.8737 98.0909 80.5645L99.0746 81.7192L95.5699 81.3274L94.9653 80.5542V80.5438Z" fill="#007177"/>
<path d="M94.9654 80.5438L98.3573 80.9666L99.5768 74.1927L96.1848 73.77L94.9654 80.5438Z" fill="#068894"/>
<path d="M97.9782 80.2655L98.9005 74.5639L96.482 74.368L95.324 80.049L97.9782 80.2655Z" fill="#8C3838"/>
<path d="M97.0149 78.3787L98.0909 76.9662L98.9005 74.5639L96.482 74.368L95.6109 76.9662L94.2582 77.9457L95.8979 78.7499L97.0149 78.3787Z" fill="#8C3838"/>
<path d="M97.9781 80.2655L97.0149 78.3787L94.2582 77.9457L95.324 80.0489L97.9781 80.2655Z" fill="#A74D4B"/>
<path d="M96.482 74.368L98.9005 74.5639L98.0909 76.9662H95.6109L96.482 74.368Z" fill="#A74D4B"/>
<path d="M105.869 71.9554C105.428 75.5846 107.806 78.853 111.157 79.2654C114.518 79.6778 117.592 77.059 118.023 73.4298C118.463 69.8005 116.086 66.5322 112.735 66.1198C109.374 65.7074 106.299 68.3262 105.869 71.9554Z" fill="#007177"/>
<path d="M107.047 72.3059C107.478 68.6767 110.552 66.0682 113.913 66.4703C114.026 66.4806 114.139 66.5116 114.251 66.5322C116.772 67.5838 118.392 70.3779 118.023 73.4298C117.592 77.059 114.518 79.6675 111.157 79.2654C111.044 79.2551 110.931 79.2241 110.819 79.2035C108.298 78.1519 106.678 75.3578 107.047 72.3059Z" fill="#F56462"/>
<path d="M107.56 71.9451C107.273 74.3164 108.82 76.4507 111.013 76.7187C113.206 76.9868 115.215 75.2753 115.502 72.9143C115.789 70.5429 114.241 68.4087 112.048 68.1406C109.855 67.8725 107.847 69.584 107.56 71.9451Z" fill="#28544B"/>
<path d="M108.748 72.2338C109.025 69.9346 110.921 68.2746 113.032 68.419C114.672 69.1097 115.737 70.9244 115.502 72.9142C115.225 75.2134 113.329 76.8734 111.218 76.729C109.579 76.0382 108.513 74.2236 108.748 72.2338Z" fill="#FFD6A0"/>
<path d="M117.336 107.113L118.084 103.907L93.09 101.103L92.6391 104.536L117.336 107.113Z" fill="#007177"/>
<path d="M116.209 110.454L116.67 108.34L103.666 107.113L103.348 109.103L116.209 110.454Z" fill="#007177"/>
<path d="M91.7066 91.6893L131.918 95.7103C133.661 95.8855 135.351 94.6483 135.669 92.9574L136.294 89.6891C136.612 87.9982 135.454 86.4723 133.712 86.297L93.4999 82.276C91.7578 82.1007 90.0669 83.3482 89.7492 85.0288L89.1241 88.2972C88.8065 89.9881 89.9644 91.514 91.7066 91.6893Z" fill="#007177"/>
<path d="M131.847 93.8544C128.209 92.3182 128.67 88.9055 129.766 85.9052L133.702 86.297C135.444 86.4722 136.612 87.9982 136.284 89.689L135.659 92.9574C135.464 93.9678 134.778 94.8133 133.886 95.2978C132.954 94.5864 132.123 93.9781 131.837 93.8544H131.847Z" fill="#007177"/>
<path d="M132.708 93.875L134.275 95.0607C133.599 95.535 132.759 95.8031 131.908 95.7103L131.283 95.1123L132.708 93.875Z" fill="#0A9EA5"/>
<path d="M90.6408 91.0809L130.853 95.102C132.595 95.2772 134.286 94.04 134.603 92.3491L135.228 89.0808C135.546 87.3899 134.388 85.864 132.646 85.6887L92.4341 81.6677C90.692 81.4924 89.0012 82.7399 88.6835 84.4308L88.0584 87.6992C87.7407 89.3901 88.8987 90.916 90.6408 91.0913V91.0809Z" fill="#068894"/>
<path d="M91.5324 90.3077L129.828 94.0503C131.488 94.2153 133.046 93.1842 133.292 91.7614L133.763 89.0189C134.009 87.5961 132.851 86.3073 131.191 86.1423L92.8953 82.3997C91.2352 82.2347 89.6775 83.2658 89.4316 84.6886L88.9602 87.4311C88.7142 88.8539 89.8722 90.1427 91.5324 90.3077Z" fill="#007177"/>
<path d="M129.828 94.0606L91.5324 90.318C90.774 90.2458 90.1284 89.9262 89.6673 89.4829C89.4931 89.0911 89.4111 88.658 89.4931 88.2044L89.9645 85.4618C90.2104 84.039 91.7681 83.008 93.4282 83.173L131.724 86.9156C132.482 86.9878 133.128 87.3074 133.589 87.761C133.763 88.1528 133.845 88.5859 133.763 89.0395L133.292 91.782C133.046 93.2049 131.488 94.2359 129.828 94.0709V94.0606Z" fill="#A74D4B"/>
<path d="M94.3915 87.0187L89.7698 86.6166L89.8517 86.0908L94.4837 86.5032L95.0063 83.3276L95.529 83.3689L95.0063 86.5444L100.571 87.0393L101.093 83.9153L101.616 83.9669L101.093 87.0909L105.992 87.5239L106.504 84.4514L107.027 84.4927L106.514 87.5651L111.905 88.0497L112.407 85.0185L112.93 85.0701L112.427 88.091L117.203 88.5137L117.705 85.5443L118.228 85.5959L117.725 88.5652L122.706 88.9983L123.187 86.0805L123.71 86.132L123.228 89.0498L128.281 89.4932L128.762 86.6166L129.285 86.6785L128.803 89.5447L133.609 89.9674L133.517 90.483L128.721 90.0602L128.076 93.8853L127.553 93.8338L128.188 90.019L123.136 89.5653L122.511 93.3389L121.989 93.2873L122.614 89.5241L117.643 89.0808L117.018 92.8028L116.496 92.7512L117.121 89.0395L112.335 88.6168L111.72 92.2873L111.198 92.2357L111.813 88.5652L106.422 88.091L105.828 91.7099L105.305 91.6583L105.9 88.0394L101.011 87.6064L100.407 91.1841L99.8842 91.1325L100.479 87.5651L94.9141 87.0702L94.33 90.5861L93.8074 90.5345L94.3915 87.0187Z" fill="#BC5C5C"/>
<path d="M89.5648 87.8126L89.821 86.3382C90.3744 87.2558 91.1839 88.2044 92.0857 88.3487C92.8646 88.4724 93.6741 87.9363 94.4837 86.7713C95.8159 84.8535 96.9636 83.9772 98.0396 84.0184C99.3616 84.0596 100.171 85.4412 100.889 86.6475L101.093 86.9981C101.288 87.328 101.462 87.6682 101.637 87.9879C102.036 88.7611 102.374 89.421 102.825 89.4932C103.194 89.5447 103.953 89.2766 105.531 87.6786C107.242 85.9361 108.677 85.1835 109.927 85.4C111.341 85.6474 112.181 87.0496 112.807 88.39C113.165 89.1632 114.016 90.9778 114.897 91.0191C115.338 91.0706 116.076 90.6788 117.182 88.8127C118.228 87.0496 119.273 86.1836 120.308 86.2145C121.712 86.2248 122.583 87.761 123.146 88.7405L123.341 89.0911C123.802 89.9365 125.206 92.5347 126.293 92.411C126.62 92.38 127.266 91.9986 127.922 89.8643C128.486 88.0188 129.305 87.0496 130.351 86.9568C131.611 86.8537 132.841 88.1528 133.702 89.3488L133.435 90.8644C132.605 89.4828 131.365 87.926 130.443 88.0085C129.879 88.0497 129.336 88.823 128.926 90.1736C128.281 92.2666 127.461 93.3389 126.405 93.4523C126.344 93.4523 126.293 93.4523 126.231 93.4523C124.561 93.4523 123.177 90.9469 122.429 89.586L122.204 89.1839C121.794 88.4621 121.107 87.2558 120.298 87.2455C119.662 87.2455 118.904 87.9672 118.084 89.3385C116.957 91.2253 115.891 92.112 114.846 92.0604C113.452 91.9882 112.571 90.3489 111.864 88.823C111.136 87.2661 110.501 86.5547 109.753 86.4207C108.882 86.266 107.713 86.9362 106.279 88.4003C104.711 89.9984 103.594 90.6582 102.672 90.5139C101.698 90.3695 101.227 89.4416 100.714 88.4518C100.561 88.1528 100.397 87.8332 100.202 87.5239L99.9867 87.163C99.3821 86.132 98.7467 85.0701 97.9986 85.0494C97.5273 85.0185 96.6767 85.4206 95.3343 87.3589C94.2685 88.8849 93.1207 89.5653 91.9115 89.3797C90.9687 89.2354 90.1694 88.5652 89.5546 87.8023L89.5648 87.8126Z" fill="#F1986B"/>
<path d="M128.199 84.5855L129.213 85.3484L132.656 85.9052V84.5855L134.521 85.2453L133.609 82.0182L133.804 78.9354L132.923 78.1519L128.199 84.5855Z" fill="#28544B"/>
<path d="M132.205 77.4611L132.923 78.1519L131.703 84.9773L128.199 84.5855L127.594 83.8122L132.205 77.4611Z" fill="#007177"/>
<path d="M127.594 83.8122L128.086 83.142C129.285 83.008 130.709 83.142 130.72 83.8328L131.703 84.9876L128.199 84.5958L127.604 83.8225L127.594 83.8122Z" fill="#007177"/>
<path d="M127.594 83.8122L130.986 84.2349L132.205 77.4611L128.813 77.0384L127.594 83.8122Z" fill="#068894"/>
<path d="M130.607 83.5338L131.529 77.8322L129.111 77.6363L127.953 83.3276L130.607 83.5338Z" fill="#C65128"/>
<path d="M129.644 81.647L130.72 80.2448L131.529 77.8322L129.111 77.6363L128.24 80.2448L126.887 81.2243L128.527 82.0182L129.644 81.647Z" fill="#C65128"/>
<path d="M130.607 83.5338L129.644 81.647L126.887 81.2243L127.953 83.3276L130.607 83.5338Z" fill="#DD6B38"/>
<path d="M129.111 77.6363L131.529 77.8322L130.72 80.2448H128.24L129.111 77.6363Z" fill="#DD6B38"/>
<path d="M133.937 85.2866L134.952 86.0495L138.405 86.6063V85.2866L140.27 85.9464L139.348 82.7193L139.543 79.6365L138.672 78.853L133.937 85.2866Z" fill="#28544B"/>
<path d="M137.954 78.1622L138.672 78.853L137.442 85.6887L133.937 85.2866L133.343 84.5133L137.954 78.1622Z" fill="#007177"/>
<path d="M133.343 84.5133L133.835 83.8431C135.034 83.7091 136.458 83.8431 136.468 84.5339L137.452 85.6887L133.948 85.2969L133.343 84.5236V84.5133Z" fill="#007177"/>
<path d="M133.343 84.5133L136.735 84.936L137.954 78.1622L134.562 77.7395L133.343 84.5133Z" fill="#068894"/>
<path d="M136.346 84.2349L137.278 78.5333L134.86 78.3374L133.691 84.0287L136.346 84.2349Z" fill="#8C3838"/>
<path d="M135.392 82.3481L136.468 80.9459L137.278 78.5333L134.86 78.3374L133.978 80.9459L132.626 81.9254L134.265 82.7193L135.392 82.3481Z" fill="#8C3838"/>
<path d="M136.345 84.2349L135.392 82.3481L132.626 81.9254L133.691 84.0287L136.345 84.2349Z" fill="#A74D4B"/>
<path d="M134.86 78.3374L137.278 78.5333L136.468 80.9459H133.978L134.86 78.3374Z" fill="#A74D4B"/>
<path d="M151.276 85.4309C149.77 90.4623 151.604 95.4731 155.386 96.6176C159.167 97.762 163.451 94.6174 164.957 89.5859C166.463 84.5545 164.629 79.5437 160.848 78.3993C157.066 77.2549 152.783 80.3995 151.276 85.4309Z" fill="#28544B"/>
<path d="M165.213 86.6063C165.398 86.4723 166.392 87.2765 167.56 88.3178L165.879 97.329C163.389 94.5864 158.737 93.0193 158.665 92.7306C156.431 83.9565 164.793 86.9259 165.213 86.596V86.6063Z" fill="#28544B"/>
<path d="M158.757 135.611L156.923 145.478C152.117 141.158 143.703 134.343 143.703 134.343C144.544 128.445 152.824 132.033 158.757 135.611Z" fill="#28544B"/>
<path d="M116.547 150.386C116.229 153.365 122.419 156.479 130.381 157.355C138.334 158.221 145.056 156.51 145.374 153.53C145.691 150.551 139.502 147.427 131.539 146.561C123.577 145.694 116.875 147.406 116.547 150.386Z" fill="#068894"/>
<path d="M81.6741 147.107C81.3974 149.726 87.341 152.51 94.9448 153.345C102.559 154.169 108.953 152.726 109.24 150.107C109.527 147.488 103.573 144.694 95.9594 143.87C88.3453 143.045 81.9508 144.488 81.6638 147.107H81.6741Z" fill="#068894"/>
<path d="M118.709 206.205C118.709 209.608 129.336 212.371 142.453 212.371C155.57 212.371 166.197 209.608 166.197 206.205C166.197 202.803 155.57 196.483 142.453 196.483C129.336 196.483 118.709 202.803 118.709 206.205Z" fill="#068894"/>
<path d="M61.7628 205.154C61.7628 208.814 72.3897 211.773 85.5067 211.773C98.6238 211.773 109.251 208.814 109.251 205.154C109.251 201.494 98.6238 194.709 85.5067 194.709C72.3897 194.709 61.7628 201.494 61.7628 205.154Z" fill="#068894"/>
<path d="M135.126 197.132C137.432 196.72 139.901 196.483 142.453 196.483C155.57 196.483 166.197 202.803 166.197 206.205C166.197 209.608 156.144 212.216 143.539 212.361C149.299 208.835 158.573 200.978 135.126 197.132Z" fill="#007177"/>
<path d="M86.0191 194.72C98.9004 194.895 109.251 201.545 109.251 205.154C109.251 208.237 101.667 210.835 91.4094 211.567C96.7894 208.01 100.274 202.164 86.0191 194.72Z" fill="#007177"/>
<path d="M80.6493 196.483C80.6493 196.483 81.5921 196.359 82.6578 197.431C76.8679 202.937 74.5929 208.061 73.7116 210.897C70.9037 210.453 68.4648 209.845 66.528 209.134C70.8833 200.834 80.6493 196.483 80.6493 196.483Z" fill="#0C9EA5"/>
<path d="M135.208 198.504C135.208 198.504 136.622 198.73 136.622 199.328C133.251 203.968 132.349 209.268 132.267 211.773C129.674 211.453 127.338 211.01 125.36 210.484C128.178 203.391 135.208 198.504 135.208 198.504Z" fill="#0C9EA5"/>
<path d="M129.428 146.396C130.125 146.437 130.822 146.478 131.539 146.561C139.502 147.427 145.691 150.551 145.374 153.53C145.097 156.046 140.27 157.654 133.999 157.572C135.423 155.386 138.928 150.458 129.428 146.396Z" fill="#007177"/>
<path d="M97.476 144.065C104.352 145.076 109.507 147.664 109.24 150.107C109.015 152.19 104.906 153.53 99.4026 153.571C101.647 151.839 105.572 147.664 97.476 144.065Z" fill="#007177"/>
<path d="M138.856 155.582C138.856 155.582 127.43 172.295 149.575 198.019C150.159 199.091 144.154 207.03 132.021 199.328C129.316 196.246 119.416 185.719 120.943 153.582C122.234 150.365 132.605 149.54 138.856 155.582Z" fill="#424242"/>
<path d="M121.097 161.531C122.132 161.294 123.208 161.077 124.315 160.985C125.421 160.861 126.538 160.84 127.655 160.861C128.772 160.892 129.879 160.974 130.965 161.119C132.052 161.263 133.107 161.438 134.111 161.675C134.911 161.84 135.669 162.057 136.397 162.273C136.264 162.954 136.151 163.676 136.069 164.449C135.3 164.335 134.511 164.232 133.691 164.15C131.734 163.923 129.654 163.737 127.584 163.696C126.549 163.665 125.524 163.686 124.509 163.737C123.505 163.789 122.521 163.892 121.568 164.016C121.322 164.057 121.087 164.098 120.841 164.14C120.81 163.325 120.79 162.48 120.779 161.624C120.882 161.593 120.974 161.562 121.076 161.531H121.097Z" fill="#323332"/>
<path d="M123.208 176.368C123.69 176.398 124.171 176.429 124.663 176.471C125.155 176.491 125.657 176.471 126.159 176.502C127.164 176.543 128.178 176.481 129.203 176.45C130.228 176.45 131.232 176.264 132.236 176.203C133.23 176.079 134.214 175.904 135.167 175.78C135.761 175.677 136.346 175.553 136.919 175.429C137.094 176.151 137.309 176.883 137.534 177.625C136.95 177.842 136.356 178.058 135.731 178.234C134.726 178.471 133.691 178.759 132.626 178.935C131.55 179.069 130.453 179.265 129.346 179.285C128.24 179.306 127.133 179.368 126.047 179.254C124.96 179.213 123.895 179.058 122.88 178.873C122.747 178.852 122.614 178.821 122.48 178.801C122.316 177.986 122.152 177.151 122.009 176.275C122.398 176.316 122.798 176.357 123.198 176.378L123.208 176.368Z" fill="#323332"/>
<path d="M126.928 189.472C127.758 189.472 128.619 189.513 129.49 189.472C130.351 189.41 131.232 189.42 132.103 189.276C132.533 189.224 132.974 189.183 133.404 189.121C133.825 189.029 134.255 188.946 134.675 188.864C135.536 188.73 136.335 188.451 137.124 188.235C137.934 188.049 138.651 187.699 139.379 187.441C140.117 187.204 140.762 186.884 141.377 186.575C141.398 186.564 141.418 186.554 141.439 186.544C141.695 187.008 141.982 187.472 142.258 187.946C141.982 188.183 141.685 188.431 141.377 188.688C141.07 188.946 140.701 189.121 140.352 189.358C139.625 189.781 138.877 190.297 138.006 190.606C137.155 190.957 136.274 191.359 135.31 191.555C134.839 191.678 134.357 191.792 133.886 191.905C133.404 191.988 132.913 192.039 132.421 192.101C131.437 192.245 130.453 192.235 129.49 192.225C129.008 192.245 128.527 192.173 128.055 192.122C127.686 192.08 127.317 192.049 126.959 191.998C126.549 191.204 126.139 190.328 125.729 189.379C126.129 189.4 126.528 189.42 126.928 189.451V189.472Z" fill="#323332"/>
<path d="M136.171 153.53C137.124 154.097 138.026 154.778 138.866 155.582C138.866 155.582 127.44 172.295 149.586 198.019C149.862 198.514 148.704 200.494 146.183 201.7C138.979 194.627 124.12 174.728 136.171 153.53Z" fill="#323332"/>
<path d="M102.221 153.427C102.221 153.427 90.7843 166.727 91.2557 196.483C87.8432 199.205 79.9422 199.328 78.5281 195.885C78.1796 190.905 79.5938 160.469 87.2488 151.087C89.8415 150.118 100.94 151.035 102.221 153.417V153.427Z" fill="#424242"/>
<path d="M83.9183 157.335C84.0926 157.314 84.2668 157.304 84.441 157.283C85.3223 157.232 86.2343 157.283 87.1566 157.294C88.0686 157.397 89.0012 157.489 89.9132 157.665C90.815 157.871 91.7373 158.036 92.5981 158.335C93.4794 158.582 94.3197 158.892 95.1191 159.222C95.9286 159.521 96.6665 159.923 97.3838 160.263C97.5785 160.366 97.763 160.469 97.9577 160.572C97.6912 161.15 97.4145 161.748 97.1379 162.397C96.9534 162.346 96.7792 162.294 96.5947 162.232C95.8671 162.036 95.1191 161.789 94.3197 161.593C93.9303 161.49 93.5307 161.376 93.1208 161.273C92.7109 161.18 92.301 161.077 91.891 160.985C91.0712 160.768 90.2207 160.624 89.3906 160.448C88.5503 160.263 87.71 160.191 86.8799 160.026C86.0499 159.974 85.23 159.83 84.441 159.789C83.9798 159.789 83.5289 159.758 83.0883 159.737C83.3547 158.902 83.6314 158.098 83.9286 157.324L83.9183 157.335Z" fill="#323332"/>
<path d="M80.4649 171.274C80.7006 171.223 80.9363 171.171 81.1822 171.14C81.9918 170.986 82.8423 170.924 83.7031 170.872C84.5639 170.8 85.4452 170.872 86.3265 170.872C87.1976 170.944 88.0687 171.037 88.9295 171.161C89.78 171.326 90.5998 171.511 91.3991 171.697C92.178 171.934 92.9363 172.182 93.6332 172.429C93.6946 172.45 93.7356 172.47 93.7971 172.501C93.6332 173.161 93.4692 173.841 93.3155 174.543C93.2335 174.543 93.1617 174.512 93.0798 174.501C92.3727 174.409 91.6451 174.305 90.897 174.171C90.1387 174.099 89.3496 174.017 88.5605 173.903C87.7715 173.841 86.9619 173.78 86.1626 173.718C85.353 173.697 84.5537 173.625 83.7646 173.635C82.9756 173.635 82.1865 173.615 81.4282 173.656C80.967 173.656 80.5264 173.687 80.0857 173.707C80.1984 172.903 80.3316 172.089 80.4649 171.285V171.274Z" fill="#323332"/>
<path d="M78.9687 183.677C79.3274 183.76 79.6758 183.863 80.0652 183.925C81.4179 184.152 82.8833 184.255 84.3692 184.265C86.9619 184.275 89.616 184.007 91.8091 183.801C91.7373 184.482 91.6656 185.172 91.6143 185.874C89.5546 186.575 87.0131 187.111 84.359 187.111C83.5187 187.09 82.6784 187.059 81.8585 186.925C81.0285 186.822 80.2292 186.616 79.4606 186.379C79.2249 186.307 79.0097 186.214 78.7945 186.131C78.8457 185.337 78.9072 184.533 78.9789 183.688L78.9687 183.677Z" fill="#323332"/>
<path d="M86.0191 198.411C86.1523 188.977 87.505 161.882 98.3266 151.551C100.263 152.004 101.801 152.633 102.231 153.437C102.231 153.437 90.7945 166.738 91.2659 196.493C89.9645 197.535 88.0174 198.184 86.0294 198.421L86.0191 198.411Z" fill="#323332"/>
<path d="M150.559 81.7811C149.053 86.8125 150.887 91.8233 154.668 92.9677C158.45 94.1225 162.733 90.9675 164.24 85.9361C165.746 80.9047 163.912 75.8939 160.13 74.7495C156.349 73.605 152.065 76.7497 150.559 81.7811Z" fill="#068894"/>
<path d="M155.898 81.8842C156.103 81.7089 160.643 79.9768 162.918 76.6672C164.701 78.8426 165.316 82.3894 164.25 85.9464C162.744 90.9778 158.45 94.1225 154.679 92.978C153.346 92.5759 152.26 91.6789 151.471 90.4829C151.584 87.5651 152.803 84.4824 155.908 81.8945L155.898 81.8842Z" fill="#007177"/>
<path d="M168.718 129.229C173.196 129.229 181.077 129.549 185.985 125.693C189.265 123.125 193.251 118.166 193.61 109.186C194.399 89.885 164.598 80.6366 161.196 79.6365C158.204 78.7602 155.058 80.5026 154.187 83.5132C153.316 86.5341 155.037 89.6787 158.04 90.5654C166.105 92.9368 182.634 100.484 182.296 108.712C182.142 112.464 181.077 115.073 179.037 116.692C175.328 119.63 168.779 119.125 166.576 118.682C163.522 118.063 160.54 120.053 159.915 123.125C159.29 126.198 161.247 129.188 164.291 129.827C164.844 129.94 165.428 129.219 168.697 129.219L168.718 129.229Z" fill="#424242"/>
<path d="M160.192 126.291C160.397 126.332 194.183 132.662 191.632 100.216C192.984 102.927 193.743 105.907 193.61 109.186C193.241 118.166 189.254 123.125 185.985 125.693C181.077 129.538 173.196 129.229 168.718 129.229C165.449 129.229 164.875 129.961 164.311 129.837C162.354 129.425 160.848 128.043 160.192 126.291Z" fill="#323332"/>
<path d="M161.217 79.6469C161.606 79.7603 162.334 79.9768 163.297 80.3067C160.694 82.5956 159.106 85.0701 158.542 87.6992C158.317 88.7508 158.286 89.7509 158.368 90.6788C158.265 90.6479 158.153 90.617 158.05 90.586C157.456 90.4108 156.923 90.153 156.441 89.8231C156.441 89.0395 156.513 88.2147 156.687 87.3486C157.261 84.6061 158.778 82.0388 161.206 79.6675L161.217 79.6469Z" fill="#323332"/>
<path d="M174.836 85.1835C175.635 85.5959 176.445 86.0392 177.254 86.5135C174.918 86.9568 173.012 87.9569 171.567 89.5241C170.06 91.1634 169.261 93.1842 168.851 94.9267C168.277 94.6277 167.693 94.3493 167.119 94.0812C167.58 92.3182 168.39 90.3489 169.835 88.6374C171.177 87.0496 172.848 85.8949 174.846 85.1938L174.836 85.1835Z" fill="#323332"/>
<path d="M163.297 134.209C163.297 134.209 168.718 135.786 170.839 126.301C172.253 120.29 168.81 115.423 165.346 114.815C161.883 114.207 155.601 129.93 163.297 134.198V134.209Z" fill="#007177"/>
<path d="M164.783 126.785C164.783 126.785 168.38 128.631 170.839 126.28C168.718 135.776 163.297 134.198 163.297 134.198C162.477 133.745 161.821 133.147 161.299 132.466C161.586 130.404 162.641 128.425 164.783 126.785Z" fill="#28544B"/>
<path d="M144.595 113.774C144.595 113.774 144.595 121.001 137.534 120.414C142.638 123.62 144.472 130.312 144.595 130.755C144.718 131.198 152.885 138.137 157.404 137.632C161.924 137.127 165.305 131.033 166.576 122.548C167.847 114.063 163.481 111.268 158.347 111.516C153.213 111.763 144.595 113.774 144.595 113.774Z" fill="#28544B"/>
<path d="M189.07 96.2051C189.695 96.999 190.269 97.8342 190.791 98.6899C187.01 97.3393 184.1 97.3599 182.245 98.7827C180.841 99.8653 180.236 101.566 179.99 102.989C179.529 102.433 179.017 101.876 178.453 101.34C178.699 100.535 179.037 99.7416 179.468 99.0714C180.892 96.8444 183.669 94.937 189.06 96.2051H189.07Z" fill="#323332"/>
<path d="M157.404 139.477C157.404 139.477 147.905 141.632 134.152 132.858C132.185 131.198 131.877 123.847 133.292 120.177C138.108 120.805 154.73 127.703 154.73 127.703C154.73 127.703 154.494 137.962 157.404 139.488V139.477Z" fill="#0A9EA5"/>
<path d="M182.091 110.866C183.659 110.196 185.504 109.794 187.492 110.155C189.541 110.526 191.417 111.65 193.118 113.516C192.964 114.32 192.769 115.073 192.554 115.795C190.925 113.65 189.121 112.392 187.174 112.031C185.022 111.64 182.993 112.423 181.466 113.341C181.753 112.609 181.958 111.784 182.101 110.877L182.091 110.866Z" fill="#323332"/>
<path d="M178.484 117.104C178.679 116.98 178.873 116.846 179.058 116.702C179.396 116.434 179.703 116.125 179.99 115.795C181.569 116.805 183.136 118.31 183.895 120.476C184.581 122.455 184.499 124.672 183.639 127.126C182.86 127.497 182.05 127.806 181.22 128.064C182.491 125.394 182.798 123.074 182.122 121.115C181.466 119.218 179.949 117.939 178.484 117.104Z" fill="#323332"/>
<path d="M144.359 115.527V115.506C144.523 114.815 144.574 114.269 144.585 113.98L144.636 113.753C145.066 113.65 153.336 111.743 158.347 111.506C163.492 111.258 167.847 114.052 166.576 122.538C166.289 124.466 165.879 126.27 165.387 127.909L158.276 129.93L144.359 115.516V115.527Z" fill="#1F443B"/>
<path d="M156.339 120.414C155.806 120.414 135.3 111.701 135.3 111.701C135.3 111.701 138.129 104.381 142.012 104.278C145.896 104.175 160.745 107.124 166.576 112.351C163.338 113.898 162.395 114.609 162.395 114.609L156.339 120.414Z" fill="#0A9EA5"/>
<path d="M142.012 104.278C145.896 104.175 160.745 107.124 166.576 112.351C165.48 112.877 164.66 113.3 164.035 113.63C163.789 113.114 163.543 112.578 163.297 112C152.383 106.773 143.949 105.567 139.502 105.35C140.27 104.732 141.111 104.309 142.012 104.278Z" fill="#63BCB8"/>
<path d="M154.023 84.4102C154.023 84.4102 180.349 92.2357 181.743 105.794C178.791 98.7518 165.142 92.6584 158.05 90.5757C155.345 89.7818 153.685 87.1424 154.023 84.4102Z" fill="#323332"/>
<path d="M155.898 127.507L135.177 118.867L133.292 120.177L154.033 127.816L154.617 129.662L155.898 127.507Z" fill="#63BCB8"/>
<path d="M155.898 127.507C155.17 131.59 155.744 134.889 157.497 135.467C159.72 136.199 162.979 132.312 164.783 126.785C166.586 121.249 166.258 116.176 164.035 115.444C162.354 114.887 160.089 116.97 158.296 120.414H156.328C158.942 114.599 162.795 110.908 165.654 111.846C169.005 112.959 169.712 120.001 167.232 127.6C164.752 135.188 160.028 140.447 156.677 139.333C153.961 138.436 152.988 133.642 154.033 127.816L155.898 127.517V127.507Z" fill="#098989"/>
</svg>
