<svg width="898" height="867" viewBox="0 0 898 867" fill="none" xmlns="http://www.w3.org/2000/svg">
<path d="M523.026 196.471C435.163 152.325 319.258 173.413 252.732 256.865C216.36 302.508 205.291 361.745 167.309 406.626C124.552 457.21 72.507 507.277 56.958 572.282C40.432 641.372 67.285 716.416 122.551 763.074C189.805 819.815 278.606 792.837 364.058 784.06C713.964 748.033 954.23 503.692 598.189 261.849C568.419 241.485 552.071 210.996 523.026 196.471Z" fill="url(#paint0_linear_0_1)" fill-opacity="0.78"/>
<path d="M617.156 46.4705C511.672 -28.1318 363.437 -13.0554 270.185 97.6784C219.199 158.244 198.489 241.554 145.565 300.82C85.981 367.625 45.007 425.368 18 516.347C-10.7027 613.044 -8.1866 706.394 56 780.347C134.114 870.285 241.361 867.876 349.873 866.446C794.215 860.468 1124.47 542.173 704.232 149.796C669.111 116.784 652.035 71.0347 617.156 46.4705Z" fill="url(#paint1_linear_0_1)" fill-opacity="0.22"/>
<g opacity="0.7">
<g opacity="0.75">
<path d="M375.805 533.872C375.805 533.872 324.82 607.155 272.79 583.347C220.643 559.538 259.782 538.633 259.782 538.633C259.782 538.633 250.143 518.541 313.322 540.84C343.17 551.176 375.805 533.872 375.805 533.872Z" fill="#5585FF" fill-opacity="0.96"/>
<path d="M313.672 307.749C313.672 307.749 363.031 365.819 297.064 446.071C231.097 526.439 241.318 568.946 241.318 568.946C241.318 568.946 149.336 429.23 313.672 307.749Z" fill="#0E538C"/>
<path d="M251.069 565.229C220.409 571.384 245.262 482.073 291.253 454.897C337.36 427.72 378.474 425.049 404.373 398.802C404.373 398.802 402.282 534.684 251.069 565.229Z" fill="#73B2EB"/>
<path d="M312.047 705.06C312.047 705.06 323.429 724.339 328.19 727.475C334.694 731.772 330.629 736.07 327.493 736.07C324.358 736.07 308.679 737.231 305.195 733.282C301.711 729.333 299.969 717.487 296.717 714.468C293.465 711.332 290.097 699.137 298.343 696.118C305.543 693.33 312.047 705.06 312.047 705.06Z" fill="#0E538C"/>
<path d="M307.168 696.582C307.168 696.582 320.176 719.113 322.382 722.481C324.589 725.849 318.201 725.849 314.136 724.223C310.188 722.597 300.084 706.454 298.574 703.55C296.832 700.066 298.225 696.001 298.225 696.001L307.168 696.582Z" fill="#FFE3CA"/>
<path d="M293.929 708.776L296.948 731.772L298.574 731.888L298.11 715.28L293.929 708.776Z" fill="#0E538C"/>
<path d="M200.78 713.19C200.78 713.19 212.161 732.469 216.923 735.604C223.427 739.901 219.362 744.199 216.226 744.199C213.091 744.199 197.412 745.36 193.928 741.411C190.443 737.463 188.701 725.616 185.45 722.597C182.198 719.461 178.713 706.918 187.075 704.247C194.276 701.808 200.78 713.19 200.78 713.19Z" fill="#0E538C"/>
<path d="M196.482 704.828C196.482 704.828 208.792 727.243 210.999 730.611C213.206 733.979 206.818 733.979 202.753 732.353C198.805 730.727 188.7 714.583 187.191 711.68C185.449 708.196 186.842 704.131 186.842 704.131L196.482 704.828Z" fill="#FFE3CA"/>
<path d="M182.666 716.906L185.685 739.902L187.195 740.018L186.731 723.41L182.666 716.906Z" fill="#0E538C"/>
<path d="M150.375 538.169L253.041 584.973C253.041 584.973 264.539 588.689 265.817 601.465C269.765 641.184 299.497 704.131 299.497 704.131C309.02 708.777 308.324 704.712 308.324 704.712C302.284 685.433 294.967 605.994 292.412 574.056C291.832 567.32 291.483 562.674 291.483 561.164C291.483 560.119 290.322 558.842 288.464 557.332C274.411 545.95 216.458 522.258 216.458 522.258C172.789 521.096 150.375 538.169 150.375 538.169Z" fill="#FFE3CA"/>
<path d="M133.43 558.202C136.566 585.959 176.169 582.823 176.169 582.823H224.135C224.135 582.823 211.476 610.929 206.714 634.505C201.604 659.591 189.409 704.073 189.409 704.073C189.409 704.073 190.222 705.582 198.933 704.769C198.933 704.769 236.562 629.627 251.079 610.813C254.215 606.748 263.041 584.682 264.551 571.558C265.016 567.145 264.783 563.66 263.041 562.383C261.415 560.989 257.583 558.318 252.473 555.182C237.491 545.659 211.359 531.142 196.726 527.89C177.215 523.476 146.438 515.347 146.438 515.347C146.438 515.347 130.178 530.445 133.43 558.202Z" fill="#FFE3CA"/>
<path d="M163.734 344.565C163.734 344.565 156.533 330.977 160.017 316.343C163.502 301.826 176.974 287.308 196.717 294.044C216.461 300.664 232.372 315.995 220.526 333.764C208.68 351.533 231.211 359.547 225.52 367.909C219.829 376.387 221.92 385.097 224.358 387.072C226.797 389.046 234.579 396.015 233.766 404.26C232.953 412.506 195.44 380.104 195.44 380.104C195.44 380.104 175.232 339.339 163.734 344.565Z" fill="#0E538C"/>
<path d="M223.894 518.89C223.894 518.89 220.874 533.291 144.222 515.057C144.222 515.173 169.889 506.579 223.894 518.89Z" fill="#EB4747"/>
<path d="M143.41 519.238C142.248 521.561 141.087 523.768 139.809 526.091C167.799 526.904 195.905 527.716 223.894 528.529C219.481 513.664 220.874 493.572 221.687 478.357C222.617 459.775 232.953 446.768 231.792 427.953C237.366 428.882 238.295 428.998 243.87 429.927C235.392 405.77 232.488 393.692 206.125 384.401C197.531 381.381 191.84 380.801 182.549 381.497C152.004 384.053 142.829 384.401 127.731 412.042C151.191 415.758 147.358 424.237 154.443 447.581C157.927 458.962 161.527 471.737 159.669 483.7C157.927 495.43 143.41 508.437 143.41 519.238Z" fill="white"/>
<path d="M192.071 390.092C179.528 387.769 182.2 380.801 182.2 380.801C182.2 380.801 182.78 376.852 183.012 371.858C183.129 370.58 183.129 369.303 183.129 367.909C183.129 365.819 183.012 363.728 182.78 361.754C181.735 353.392 205.427 358.386 205.427 358.386C205.427 358.386 204.034 375.342 207.286 380.452C210.654 385.562 204.614 392.415 192.071 390.092Z" fill="#FFE3CA"/>
<path d="M168.264 380.684C168.264 380.684 193.466 409.835 202.757 416.571C202.757 416.571 213.442 406.932 206.822 381.381C206.938 381.381 194.744 375.226 168.264 380.684Z" fill="#FFE3CA"/>
<path d="M168.961 310.652C168.961 310.652 155.837 335.854 168.845 359.779C181.853 383.704 207.403 349.326 209.029 345.378C210.655 341.313 219.482 318.55 202.061 311.698C184.64 304.729 172.678 303.8 168.961 310.652Z" fill="white"/>
<path d="M173.258 319.595C173.258 319.595 164.2 331.441 163.154 340.152C163.154 340.152 159.554 323.66 169.658 307.749C179.762 291.838 205.661 306.936 209.029 313.324C212.513 319.711 222.618 325.286 205.545 352.579C205.777 352.579 175.117 331.325 173.258 319.595Z" fill="#0E538C"/>
<path d="M194.279 362.334C194.279 362.334 191.956 367.328 183.13 371.974C183.246 370.696 183.246 369.418 183.246 368.025C183.13 367.909 189.169 367.212 194.279 362.334Z" fill="#FFCBA3"/>
<path d="M61.88 496.475C61.88 496.475 55.609 499.262 52.705 497.985C49.802 496.707 45.156 496.475 43.762 496.475C41.788 496.475 35.865 494.268 35.865 496.707C35.981 499.03 45.621 500.656 47.595 501.469C49.569 502.166 41.672 506.579 40.975 508.437C40.278 510.412 49.221 523.071 54.215 519.47C59.209 515.87 61.996 508.67 63.041 508.205C64.087 507.74 66.874 505.766 66.874 505.766L61.88 496.475Z" fill="#FFE3CA"/>
</g>
<path d="M41.905 507.275C41.905 507.275 27.272 519.354 27.039 520.98C26.807 522.606 27.62 523.419 29.014 522.257C30.407 521.212 43.531 510.992 43.531 510.992C43.531 510.992 28.898 528.297 28.433 529.574C28.201 530.271 29.594 531.897 30.407 531.432C31.22 530.968 46.783 514.708 46.783 514.708C46.783 514.708 33.195 530.852 33.079 532.129C32.962 533.174 34.705 534.336 35.75 533.174C36.795 532.013 50.383 517.844 50.383 517.844C50.383 517.844 41.208 530.271 41.789 531.316C42.137 532.013 43.299 533.407 45.505 530.155C47.712 526.903 53.867 519.702 53.867 519.702L41.905 507.275Z" fill="#FFE3CA"/>
<g filter="url(#filter0_d_0_1)">
<path d="M216.811 582.882H173.84C173.84 582.882 134.236 586.018 131.101 558.26C127.965 530.503 144.108 515.057 144.108 515.057C144.108 515.057 165.013 520.631 183.247 525.045C192.422 523.07 203.455 521.793 216.23 522.141C216.23 522.141 293.695 547.692 291.372 561.164C291.372 561.28 258.97 543.975 216.811 582.882Z" fill="#254368"/>
</g>
<path d="M188.818 534.801L270.812 533.64L229.466 554.661L188.818 534.801Z" fill="#E6E6E6"/>
<path d="M214.37 524.348C214.37 524.348 195.904 531.432 173.373 525.044L172.328 516.566L218.899 519.121L214.37 524.348Z" fill="#458EB8"/>
<path d="M229.466 554.661L188.818 538.866V534.801L232.602 550.596L229.466 554.661Z" fill="#F2F2F2"/>
<path d="M214.024 528.297C213.792 531.316 216.811 533.523 219.715 532.361L224.476 530.271C225.87 529.69 226.683 528.18 226.451 526.671C224.476 514.244 220.179 466.046 226.451 457.684C228.774 454.664 230.167 451.993 230.98 449.554C235.045 460.123 240.155 473.711 242.246 481.028L280.92 532.594L293.928 535.846C277.784 496.823 264.661 476.15 264.661 476.15C262.106 469.298 254.905 448.741 248.401 430.391C244.336 418.778 240.62 408.093 238.645 402.402C237.6 399.499 235.626 397.06 232.955 395.434C226.915 391.833 216.927 386.143 207.869 381.845H207.752C207.52 381.729 207.172 381.613 206.939 381.381C224.128 407.396 217.392 481.028 214.024 528.297C214.024 528.18 214.024 528.18 214.024 528.297Z" fill="#9EABFC"/>
<path d="M150.03 383.588C144.455 384.401 130.867 397.757 123.55 411.113C115.305 426.443 106.826 443.864 100.439 449.555C88.825 460.123 56.19 497.404 54.68 496.475C54.099 496.127 63.623 507.624 64.784 508.089C65.365 508.321 118.324 462.446 123.434 455.478C128.312 448.858 141.204 421.101 145.036 421.681C145.385 422.262 150.03 432.482 154.443 447.348C154.56 447.58 154.56 447.813 154.676 448.045C157.695 458.381 157.463 469.647 155.837 482.306C154.56 491.829 147.475 507.508 143.178 515.057C142.713 515.986 142.83 517.728 143.294 519.006C143.642 519.819 144.107 520.4 144.688 520.632L160.25 526.439L163.851 527.832C166.522 528.762 169.193 528.297 171.284 526.787C173.026 525.51 174.187 523.651 174.535 521.445C178.02 494.849 182.317 467.672 185.801 457.452C201.131 412.506 179.878 378.826 179.878 378.826C179.878 378.826 154.908 381.73 150.03 383.588Z" fill="#AFC0FD"/>
<path d="M229.469 554.661L253.858 488.113L332.368 489.391L309.14 550.712L229.469 554.661Z" fill="#F2F2F2"/>
<path d="M278.944 517.496C276.505 522.258 277.318 527.484 280.569 529.11C283.821 530.736 288.467 528.181 290.906 523.419C293.345 518.657 292.532 513.431 289.28 511.805C285.912 510.179 281.382 512.734 278.944 517.496Z" fill="#D3D3D3"/>
<path d="M196.135 335.738C196.135 335.738 201.129 343.52 196.484 350.372C191.838 357.108 197.645 363.728 198.69 370.929C199.736 378.129 179.295 397.06 201.942 406.699C224.706 416.223 231.906 400.428 226.099 391.718C220.292 383.007 216.227 375.923 215.647 363.496C215.182 351.069 211.117 331.79 196.135 335.738Z" fill="#3971A2"/>
</g>
<defs>
<filter id="filter0_d_0_1" x="118.697" y="515.057" width="184.726" height="96.9315" filterUnits="userSpaceOnUse" color-interpolation-filters="sRGB">
<feFlood flood-opacity="0" result="BackgroundImageFix"/>
<feColorMatrix in="SourceAlpha" type="matrix" values="0 0 0 0 0 0 0 0 0 0 0 0 0 0 0 0 0 0 127 0" result="hardAlpha"/>
<feOffset dy="17"/>
<feGaussianBlur stdDeviation="6"/>
<feColorMatrix type="matrix" values="0 0 0 0 0.211137 0 0 0 0 0.193958 0 0 0 0 0.316667 0 0 0 0.18 0"/>
<feBlend mode="normal" in2="BackgroundImageFix" result="effect1_dropShadow_0_1"/>
<feBlend mode="normal" in="SourceGraphic" in2="effect1_dropShadow_0_1" result="shape"/>
</filter>
<linearGradient id="paint0_linear_0_1" x1="405.643" y1="717.497" x2="350.479" y2="327.087" gradientUnits="userSpaceOnUse">
<stop offset="0.156389" stop-color="#665BEA" stop-opacity="0.14"/>
<stop offset="0.653188" stop-color="#C18CEA" stop-opacity="0.71"/>
<stop offset="0.8125" stop-color="#FDC7A5" stop-opacity="0.38"/>
<stop offset="1" stop-color="#FBD0B5" stop-opacity="0.31"/>
</linearGradient>
<linearGradient id="paint1_linear_0_1" x1="409.813" y1="776.628" x2="373.728" y2="41.3686" gradientUnits="userSpaceOnUse">
<stop stop-color="#785BEA"/>
<stop offset="0.5" stop-color="#FBD0B5"/>
<stop offset="1" stop-color="#ABDBFF" stop-opacity="0.5"/>
</linearGradient>
</defs>
</svg>
