<svg width="310" height="754" viewBox="0 0 310 754" fill="none" xmlns="http://www.w3.org/2000/svg">
<path d="M219.355 42.9222C219.355 42.9222 231.658 47.6639 235.553 65.2797C239.446 82.893 229.089 120.83 227.453 138.782C225.817 156.734 244.638 193.15 195.642 196.451C146.647 199.751 139.511 60.0834 162.223 50.3174C184.934 40.5514 219.355 42.9222 219.355 42.9222Z" fill="url(#paint0_linear_1_5530)"/>
<path d="M149.148 125.76L150.567 125.553C146.204 95.4875 150.468 59.7427 159.175 53.3895C160.754 52.2372 162.4 52.1093 164.206 52.9975L164.838 51.7077C162.542 50.5783 160.352 50.7524 158.331 52.2278C148.387 59.4841 145.176 98.3877 149.148 125.76Z" fill="url(#paint1_linear_1_5530)"/>
<path d="M48.2227 33.5801L42.3813 16.8299C42.3813 16.8299 44.8147 13.7655 33.6215 8.17614C22.4283 2.58678 15.5681 -0.462249 10.9668 1.06354C6.36556 2.58678 0.0368614 13.3726 0.524101 17.1253C1.01121 20.8782 31.6752 25.959 31.6752 25.959L36.0551 38.8972L48.2227 33.5801Z" fill="#FBD0B5"/>
<path d="M143.076 119.224C143.076 119.224 89.5386 102.446 80.7763 93.8561C72.0167 85.264 47.2484 21.3867 47.2484 21.3867L29.2393 29.0079C29.2393 29.0079 47.6814 103.247 63.257 120.421C78.8301 137.598 138.696 168.083 138.696 168.083L143.076 119.224Z" fill="url(#paint2_linear_1_5530)"/>
<path d="M239.922 688.975L228.037 696.27C228.037 696.27 222.279 687.719 209.976 673.926V673.897C206.532 670.096 202.915 665.886 199.15 661.362C191.62 652.346 183.476 642.046 174.938 630.975C172.428 627.713 169.869 624.376 167.285 620.983C137.537 581.914 105.377 535.986 93.3444 504.934C89.6043 495.273 87.7834 487.079 88.5954 480.943C91.0314 462.394 97.9457 434.473 105.844 407.502C117.852 366.275 131.361 327.206 131.361 327.206L164.554 385.902C164.554 385.902 154.367 411.252 145.091 438.252C135.962 464.757 127.719 492.884 130.77 500.207C131.065 500.924 131.434 501.772 131.853 502.673C137.364 514.589 152.62 541.586 169.943 571.408C171.69 574.413 173.461 577.444 175.233 580.478C184.534 596.401 194.204 612.763 203.161 627.793C206.655 633.698 210.05 639.4 213.274 644.797C228.529 670.407 239.922 688.975 239.922 688.975Z" fill="#EAAC8C"/>
<path d="M225.848 451.144C221.739 480.404 215.883 506.91 212.069 522.707C209.781 532.185 208.231 537.785 208.231 537.785C208.452 567.299 206.188 598.919 203.162 627.793C201.907 639.558 200.554 650.857 199.151 661.363C193.984 700.252 188.546 728.176 188.546 728.176L174.398 726.25L174.939 630.976L175.234 580.478L175.628 511.767L175.775 499.794L176.464 447.551L177.473 370.491L226.685 347.373C233.279 376.653 230.819 415.902 225.848 451.144Z" fill="#FBD0B5"/>
<path d="M91.7789 446.519C122.561 465.398 213.103 473.405 213.103 473.405L227.919 429.943L226.302 472.932H230.689C230.689 472.932 263.779 356.074 219.821 279.472L141.082 273.127L132.47 315.461C132.47 315.461 110.283 376.138 91.7789 446.519Z" fill="#3C3C3B"/>
<path d="M149.513 747.104C151.835 745.652 154.394 744.653 157.062 744.16C157.062 744.16 165.757 737.399 172.657 714.179L183.004 712.938C186.594 712.576 190.019 714.592 191.579 717.986C191.8 718.445 191.95 718.939 192.027 719.447C192.196 722.072 192.201 724.703 192.044 727.328C191.955 735.519 188.638 753.446 188.638 753.446L186.835 753.179L188.346 736.685C188.835 731.086 183.872 737.004 181.889 742.822C179.908 748.64 176.562 754.648 164.84 753.215C151.176 751.473 145.598 750.078 149.513 747.104Z" fill="#3C3C3B"/>
<path d="M175.515 705.938C175.515 705.938 171.825 716.454 166.903 728.013C161.982 739.572 157.061 744.162 157.061 744.162C157.061 744.162 165.609 747.062 170.223 741.465C174.836 735.868 182.727 715.663 191.578 717.985C191.578 717.985 190.931 715.573 189.605 713.284C188.279 710.995 175.515 705.938 175.515 705.938Z" fill="#FBD0B5"/>
<path d="M236.21 737.969C236.71 735.192 237.689 732.531 239.104 730.119C239.104 730.119 240.014 718.84 227.928 698.057L233.9 689.146C236.016 686.1 239.731 684.757 243.201 685.789C243.676 685.92 244.131 686.128 244.547 686.408C246.54 688.014 248.432 689.753 250.211 691.615C256.028 697.114 266.689 711.586 266.689 711.586L265.304 712.819L254.473 700.708C250.779 696.613 251.739 704.417 254.596 709.824C257.455 715.226 259.546 721.825 250.752 730.037C240.45 739.567 235.75 743.003 236.21 737.969Z" fill="#3C3C3B"/>
<path d="M223.913 690.36C223.913 690.36 229.011 700.216 234.043 711.721C239.072 723.231 239.104 730.121 239.104 730.121C239.104 730.121 246.848 725.358 245.893 718.043C244.933 710.727 235.669 691.167 243.201 685.788C243.201 685.788 241.041 684.696 238.521 684.213C236.002 683.733 223.913 690.36 223.913 690.36Z" fill="#EAAC8C"/>
<path d="M220.527 271.068L220.975 283.47L139.598 280.169L139.069 265.502L220.527 271.068Z" fill="#3C3C3B"/>
<path d="M242.636 276.303L224.036 287.41C224.036 287.41 218.384 289.005 213.827 296.626C209.268 304.25 215.81 333.717 219.354 333.717C222.894 333.717 242.909 329.143 242.636 325.079C242.363 321.015 234.604 301.709 234.604 301.709L252.584 290.022L242.636 276.303Z" fill="#FBD0B5"/>
<path d="M220.976 271.054C220.976 271.054 225.875 195.733 242.637 152.693C242.637 152.693 208.294 133.367 143.076 119.224C143.076 119.224 124.422 166.597 139.07 266.312L220.976 271.054Z" fill="url(#paint3_linear_1_5530)"/>
<path d="M164.543 196.452C164.543 197.79 165.581 198.874 166.863 198.874C168.145 198.874 169.184 197.79 169.184 196.452C169.184 195.113 168.145 194.029 166.863 194.029C165.581 194.029 164.543 195.113 164.543 196.452Z" fill="url(#paint4_linear_1_5530)"/>
<path d="M162.223 225.676C162.223 227.014 163.261 228.098 164.543 228.098C165.825 228.098 166.863 227.014 166.863 225.676C166.863 224.338 165.825 223.254 164.543 223.254C163.261 223.254 162.223 224.338 162.223 225.676Z" fill="url(#paint5_linear_1_5530)"/>
<path d="M162.223 253.44C162.223 254.778 163.261 255.862 164.543 255.862C165.825 255.862 166.863 254.778 166.863 253.44C166.863 252.102 165.825 251.018 164.543 251.018C163.261 251.018 162.223 252.102 162.223 253.44Z" fill="url(#paint6_linear_1_5530)"/>
<path d="M242.637 152.692C257.939 161.475 313.426 228.036 309.043 247.851C304.664 267.665 242.637 298.661 242.637 298.661L231.968 279.471C231.968 279.471 272.617 247.851 274.563 242.77C276.512 237.689 229.827 199.347 229.827 199.347C229.827 199.347 228.747 181.359 230.691 168.878C232.63 156.394 242.637 152.692 242.637 152.692Z" fill="url(#paint7_linear_1_5530)"/>
<path d="M213.828 166.049C213.828 166.049 229.386 139.472 195.317 130.319C161.248 121.17 150.864 142.508 150.864 142.508L167.839 139.459L169.973 181.801C169.973 181.801 180.024 159.951 205.833 150.637L213.828 166.049Z" fill="url(#paint8_linear_1_5530)"/>
<path d="M175.178 160.968C191.93 153.173 207.924 141.339 207.924 141.339C199.927 133.479 201.379 121.868 203.421 114.625C204.528 110.618 205.832 107.946 205.832 107.946L182.284 112.544C182.9 116.605 183.17 120.022 183.195 122.896C183.244 126.055 182.973 128.547 182.531 130.502C180.931 137.848 176.92 137.951 176.92 137.951C172.787 146.014 175.178 160.968 175.178 160.968Z" fill="#EAAC8C"/>
<path d="M187.854 43.3467C162.497 43.3467 160.366 56.1386 158.912 78.1853C157.096 105.739 162.99 125.297 188.597 119.353C223.375 111.28 221.884 43.3467 187.854 43.3467Z" fill="#FBD0B5"/>
<path d="M209.9 80.6253C209.9 80.6253 200.281 63.0737 201.703 49.501C201.703 49.501 187.257 33.9477 167.792 49.3186C167.792 49.3186 159.654 63.9419 159.15 75.3108C159.15 75.3108 155.1 37.1149 190.321 36.1799C225.487 35.2475 225.51 89.0428 207.353 105.115C207.353 105.115 215.849 91.6012 209.9 80.6253Z" fill="url(#paint9_linear_1_5530)"/>
<path d="M207.331 81.8194C207.449 76.2604 210.518 66.8417 216.068 67.9443C221.812 69.0885 224.576 91.0392 210.297 96.3786C208.248 97.1455 207.088 93.4186 207.331 81.8194Z" fill="#FBD0B5"/>
<path d="M201.703 49.4997C201.703 49.4997 178.291 38.6472 162.794 52.9803C162.794 52.9803 156.704 34.116 177.471 27.679C198.236 21.2445 219.355 42.9214 219.355 42.9214L201.703 49.4997Z" fill="url(#paint10_linear_1_5530)"/>
<path d="M201.703 49.4998C201.703 49.4998 215.374 63.5786 213.396 91.6155C211.418 119.647 214.016 137.373 219.355 154.92C224.69 172.464 210.724 177.701 210.724 177.701C210.724 177.701 226.641 181.798 229.919 164.018C232.069 152.351 226.951 127.073 229.53 96.9608C232.106 66.8486 221.819 45.5698 201.703 49.4998Z" fill="url(#paint11_linear_1_5530)"/>
<defs>
<linearGradient id="paint0_linear_1_5530" x1="236.422" y1="119.589" x2="149.857" y2="119.589" gradientUnits="userSpaceOnUse">
<stop offset="0.0139665" stop-color="#5E4743"/>
<stop offset="1" stop-color="#211611"/>
</linearGradient>
<linearGradient id="paint1_linear_1_5530" x1="164.838" y1="88.3669" x2="147.491" y2="88.3669" gradientUnits="userSpaceOnUse">
<stop offset="0.0139665" stop-color="#5E4743"/>
<stop offset="1" stop-color="#211611"/>
</linearGradient>
<linearGradient id="paint2_linear_1_5530" x1="143.076" y1="94.7346" x2="29.2393" y2="94.7346" gradientUnits="userSpaceOnUse">
<stop stop-color="#3F9AD5"/>
<stop offset="1" stop-color="#AEDEF9"/>
</linearGradient>
<linearGradient id="paint3_linear_1_5530" x1="236.626" y1="255.371" x2="121.68" y2="140.665" gradientUnits="userSpaceOnUse">
<stop stop-color="#1A97F6"/>
<stop offset="1" stop-color="#AEDEF9"/>
</linearGradient>
<linearGradient id="paint4_linear_1_5530" x1="169.184" y1="196.452" x2="164.543" y2="196.452" gradientUnits="userSpaceOnUse">
<stop offset="0.181564" stop-color="#ECF7FC"/>
<stop offset="1" stop-color="#B0DEF0"/>
</linearGradient>
<linearGradient id="paint5_linear_1_5530" x1="166.863" y1="225.676" x2="162.223" y2="225.676" gradientUnits="userSpaceOnUse">
<stop offset="0.181564" stop-color="#ECF7FC"/>
<stop offset="1" stop-color="#B0DEF0"/>
</linearGradient>
<linearGradient id="paint6_linear_1_5530" x1="166.863" y1="253.44" x2="162.223" y2="253.44" gradientUnits="userSpaceOnUse">
<stop offset="0.181564" stop-color="#ECF7FC"/>
<stop offset="1" stop-color="#B0DEF0"/>
</linearGradient>
<linearGradient id="paint7_linear_1_5530" x1="309.289" y1="225.677" x2="229.528" y2="225.677" gradientUnits="userSpaceOnUse">
<stop stop-color="#1A97F6"/>
<stop offset="1" stop-color="#B9E0FE"/>
</linearGradient>
<linearGradient id="paint8_linear_1_5530" x1="205.195" y1="174.7" x2="161.261" y2="130.858" gradientUnits="userSpaceOnUse">
<stop offset="0.181564" stop-color="#ECF7FC"/>
<stop offset="1" stop-color="#B0DEF0"/>
</linearGradient>
<linearGradient id="paint9_linear_1_5530" x1="219.354" y1="70.6415" x2="159.008" y2="70.6415" gradientUnits="userSpaceOnUse">
<stop offset="0.0139665" stop-color="#5E4743"/>
<stop offset="1" stop-color="#211611"/>
</linearGradient>
<linearGradient id="paint10_linear_1_5530" x1="219.355" y1="39.7328" x2="161.962" y2="39.7328" gradientUnits="userSpaceOnUse">
<stop offset="0.0139665" stop-color="#5E4743"/>
<stop offset="1" stop-color="#211611"/>
</linearGradient>
<linearGradient id="paint11_linear_1_5530" x1="230.461" y1="113.571" x2="201.703" y2="113.571" gradientUnits="userSpaceOnUse">
<stop offset="0.0139665" stop-color="#5E4743"/>
<stop offset="1" stop-color="#211611"/>
</linearGradient>
</defs>
</svg>
