<svg width="986" height="946" viewBox="0 0 986 946" fill="none" xmlns="http://www.w3.org/2000/svg">
<path d="M463.48 119.398C571.489 92.0514 689.519 147.736 735.271 262.232C760.28 324.851 753.912 396.364 780.885 458.535C811.231 528.593 828.775 586.035 825.444 665.429C821.902 749.813 793.55 822.335 719.789 861.389C630.04 908.869 542.253 875.252 453.148 842.029C88.3086 705.888 -94.5176 358.374 362.57 174.734C400.833 159.214 427.796 128.359 463.48 119.398Z" fill="url(#paint0_linear_7_592)" fill-opacity="0.29"/>
<path d="M476.068 210.351C569.698 200.805 668.587 256.87 703.199 350.805C722.117 402.177 713.798 457.061 734.417 508.298C757.609 566.03 789.412 626.345 783.378 687.682C776.964 752.874 729.242 809.067 664.485 831.422C585.693 858.593 513.288 806.272 438.279 770.797C131.164 625.46 -11.5524 335.588 387.4 242.417C420.802 234.503 445.137 213.447 476.068 210.351Z" fill="url(#paint1_linear_7_592)" fill-opacity="0.78"/>
<g opacity="0.4">
<path d="M15.9437 882.087C15.9437 898.151 229.541 911.172 493.026 911.172C756.511 911.172 970.108 898.151 970.108 882.087C970.108 866.023 756.511 853.002 493.026 853.002C229.541 853.002 15.9437 866.023 15.9437 882.087Z" fill="white"/>
<path d="M15.9437 882.087C15.9437 898.151 229.541 911.172 493.026 911.172C756.511 911.172 970.108 898.151 970.108 882.087C970.108 866.023 756.511 853.002 493.026 853.002C229.541 853.002 15.9437 866.023 15.9437 882.087Z" fill="url(#paint2_linear_7_592)"/>
<path d="M15.9437 882.087C15.9437 898.151 229.541 911.172 493.026 911.172C756.511 911.172 970.108 898.151 970.108 882.087C970.108 866.023 756.511 853.002 493.026 853.002C229.541 853.002 15.9437 866.023 15.9437 882.087Z" fill="url(#paint3_linear_7_592)"/>
</g>
<path d="M102.555 680.252C107.759 678.015 113.22 678.563 118.796 681.898C133.839 690.895 140.154 727.766 142.805 756.349C141.818 715.68 135.422 659.405 109.873 628.797L112.214 626.67C133.593 652.285 141.929 694.308 144.826 731.156C145.208 715.472 146.152 698.476 148.133 682.287C147.453 647.592 144.568 616.079 136.965 605.348L139.461 603.422C146.167 612.889 149.402 636.922 150.716 665.122C154.547 644.104 160.623 626.175 170.133 617.044L172.234 619.43C160.849 630.359 154.609 655.257 151.29 682.812C151.368 686.721 151.417 690.665 151.442 694.623C154.413 678.498 158.372 665.09 163.641 659.746C181.338 641.787 202.111 659.486 202.319 659.661L200.332 662.154C199.571 661.492 181.483 646.153 165.805 662.069C158.924 669.051 154.355 691.842 151.358 715.884C150.973 744.691 149.601 771.776 148.663 787.544C148.781 790.017 148.869 791.446 148.875 791.582L148.415 791.611C148.074 797.066 147.825 800.566 147.76 801.458L145.016 801.241C144.866 803.227 144.752 804.556 144.711 804.987L141.622 804.673C141.641 804.433 142.066 799.62 142.429 791.696L141.613 791.702C141.606 790.775 140.582 698.664 117.253 684.708C112.487 681.859 108.069 681.38 103.745 683.247C90.0745 689.142 82.7909 716.432 82.7195 716.707L79.7235 715.852C80.0339 714.669 87.4821 686.76 102.555 680.252Z" fill="url(#paint4_linear_7_592)"/>
<path d="M183.315 683.214C196.877 684.206 207.38 703.354 207.824 704.168L205.117 705.763C205.02 705.578 194.989 687.311 183.095 686.446C178.081 686.112 173.331 688.935 168.938 694.921C150.617 719.887 154.302 790.882 154.342 791.595L151.244 791.78C151.079 788.818 147.453 718.869 166.472 692.954C171.542 686.044 177.237 682.741 183.315 683.214Z" fill="url(#paint5_linear_7_592)"/>
<path d="M97.1516 696.97C97.1516 696.97 109.306 701.647 105.693 712.693C102.079 723.735 63.6457 741.908 63.6457 741.908C63.6457 741.908 47.5478 726.506 62.3292 701.459C77.1139 676.409 96.8225 689.069 97.1516 696.97Z" fill="url(#paint6_linear_7_592)"/>
<path d="M149.991 675.947C149.991 675.947 137.048 675.38 136.312 687.025C135.576 698.67 164.35 730.886 164.35 730.886C164.35 730.886 184.888 723.137 180.476 694.078C176.065 665.018 153.208 668.784 149.991 675.947Z" fill="url(#paint7_linear_7_592)"/>
<path d="M160.951 620.206C160.951 620.206 152.32 619.237 153.015 613.75C153.711 608.263 186.561 594.142 205.944 616.978C205.944 616.978 193.531 639.231 175.592 639.523C157.653 639.815 160.951 620.206 160.951 620.206Z" fill="url(#paint8_linear_7_592)"/>
<path d="M144.869 606.881C144.869 606.881 152.684 610.826 154.876 605.782C157.065 600.743 136.338 570.62 108.321 579.3C108.321 579.3 107.579 605.04 122.655 615.188C137.735 625.342 144.869 606.881 144.869 606.881Z" fill="url(#paint9_linear_7_592)"/>
<path d="M185.725 692.529C185.725 692.529 179.77 687.509 186.197 685.058C192.624 682.608 224.162 683.305 224.488 715.916C224.488 715.916 187.759 722.288 183.214 709.869C178.668 697.446 185.725 692.529 185.725 692.529Z" fill="url(#paint10_linear_7_592)"/>
<path d="M110.828 619.387C110.828 619.387 116.783 614.366 110.356 611.916C103.929 609.466 72.3912 610.163 72.0621 642.775C72.0621 642.775 108.794 649.15 113.339 636.727C117.885 624.304 110.828 619.387 110.828 619.387Z" fill="url(#paint11_linear_7_592)"/>
<path d="M191.051 654.355C191.051 654.355 187.493 649.484 192.706 648.881C197.918 648.275 221.284 654.786 215.842 679.136C215.842 679.136 187.378 676.903 186.158 666.788C184.937 656.672 191.051 654.355 191.051 654.355Z" fill="url(#paint12_linear_7_592)"/>
<path d="M130.244 645.658C130.244 645.658 130.768 639.555 126.049 641.947C121.33 644.342 104.888 662.855 121.933 680.428C121.933 680.428 144.87 662.689 140.734 653.453C136.602 644.219 130.244 645.658 130.244 645.658Z" fill="url(#paint13_linear_7_592)"/>
<path d="M94.8802 882.087H192.551L203.089 770.455H84.3428L94.8802 882.087Z" fill="#346FB6"/>
<path d="M94.8802 882.087H192.551L203.089 770.455H84.3428L94.8802 882.087Z" fill="url(#paint14_linear_7_592)"/>
<path d="M79.1274 758.138H208.302V782.773H79.1274V758.138Z" fill="url(#paint15_linear_7_592)"/>
<defs>
<linearGradient id="paint0_linear_7_592" x1="428.987" y1="753.803" x2="662.948" y2="186.267" gradientUnits="userSpaceOnUse">
<stop stop-color="#785BEA"/>
<stop offset="0.5" stop-color="#FBD0B5"/>
<stop offset="1" stop-color="#ABDBFF" stop-opacity="0.5"/>
</linearGradient>
<linearGradient id="paint1_linear_7_592" x1="421.113" y1="699.617" x2="588.043" y2="377.395" gradientUnits="userSpaceOnUse">
<stop offset="0.156389" stop-color="#665BEA" stop-opacity="0.14"/>
<stop offset="0.653188" stop-color="#C18CEA" stop-opacity="0.71"/>
<stop offset="0.8125" stop-color="#FDC7A5" stop-opacity="0.38"/>
<stop offset="1" stop-color="#FBD0B5" stop-opacity="0.31"/>
</linearGradient>
<linearGradient id="paint2_linear_7_592" x1="111.271" y1="966.28" x2="122.474" y2="853.05" gradientUnits="userSpaceOnUse">
<stop stop-color="#4490EA"/>
<stop offset="0.287749" stop-color="#785BEA"/>
<stop offset="0.440608" stop-color="#90A3F5" stop-opacity="0.83"/>
<stop offset="0.578125" stop-color="#348AEE" stop-opacity="0.38"/>
<stop offset="1" stop-color="white" stop-opacity="0"/>
</linearGradient>
<linearGradient id="paint3_linear_7_592" x1="1724.17" y1="886.821" x2="1716.42" y2="740.566" gradientUnits="userSpaceOnUse">
<stop stop-color="#785BEA"/>
<stop offset="0.869807" stop-color="#F9FCFD" stop-opacity="0.97"/>
<stop offset="0.896614" stop-color="#FAFDFE" stop-opacity="0.203678"/>
<stop offset="0.94738" stop-color="#E0F0F7" stop-opacity="0.4"/>
<stop offset="1" stop-color="white" stop-opacity="0.17"/>
<stop offset="1" stop-color="white" stop-opacity="0.17"/>
</linearGradient>
<linearGradient id="paint4_linear_7_592" x1="196.963" y1="808.478" x2="36.0713" y2="711.998" gradientUnits="userSpaceOnUse">
<stop stop-color="#785BEA"/>
<stop offset="0.776042" stop-color="#E9ABD9"/>
<stop offset="1" stop-color="#FEDA7A"/>
</linearGradient>
<linearGradient id="paint5_linear_7_592" x1="205.335" y1="793.661" x2="125.142" y2="752.196" gradientUnits="userSpaceOnUse">
<stop stop-color="#785BEA"/>
<stop offset="0.776042" stop-color="#E9ABD9"/>
<stop offset="1" stop-color="#FEDA7A"/>
</linearGradient>
<linearGradient id="paint6_linear_7_592" x1="104.167" y1="742.864" x2="54.4805" y2="698.268" gradientUnits="userSpaceOnUse">
<stop stop-color="#785BEA"/>
<stop offset="0.776042" stop-color="#E9ABD9"/>
<stop offset="1" stop-color="#FEDA7A"/>
</linearGradient>
<linearGradient id="paint7_linear_7_592" x1="179.14" y1="731.926" x2="127.284" y2="693.767" gradientUnits="userSpaceOnUse">
<stop stop-color="#785BEA"/>
<stop offset="0.776042" stop-color="#E9ABD9"/>
<stop offset="1" stop-color="#FEDA7A"/>
</linearGradient>
<linearGradient id="paint8_linear_7_592" x1="203.629" y1="640.135" x2="174.171" y2="596.359" gradientUnits="userSpaceOnUse">
<stop stop-color="#785BEA"/>
<stop offset="0.776042" stop-color="#E9ABD9"/>
<stop offset="1" stop-color="#FEDA7A"/>
</linearGradient>
<linearGradient id="paint9_linear_7_592" x1="152.993" y1="618.938" x2="116.649" y2="577.601" gradientUnits="userSpaceOnUse">
<stop stop-color="#785BEA"/>
<stop offset="0.776042" stop-color="#E9ABD9"/>
<stop offset="1" stop-color="#FEDA7A"/>
</linearGradient>
<linearGradient id="paint10_linear_7_592" x1="222.618" y1="718.128" x2="193.251" y2="680.976" gradientUnits="userSpaceOnUse">
<stop stop-color="#785BEA"/>
<stop offset="0.776042" stop-color="#E9ABD9"/>
<stop offset="1" stop-color="#FEDA7A"/>
</linearGradient>
<linearGradient id="paint11_linear_7_592" x1="112.995" y1="644.988" x2="83.6275" y2="607.833" gradientUnits="userSpaceOnUse">
<stop stop-color="#785BEA"/>
<stop offset="0.776042" stop-color="#E9ABD9"/>
<stop offset="1" stop-color="#FEDA7A"/>
</linearGradient>
<linearGradient id="paint12_linear_7_592" x1="215.318" y1="679.661" x2="187.906" y2="652.307" gradientUnits="userSpaceOnUse">
<stop stop-color="#785BEA"/>
<stop offset="0.776042" stop-color="#E9ABD9"/>
<stop offset="1" stop-color="#FEDA7A"/>
</linearGradient>
<linearGradient id="paint13_linear_7_592" x1="140.06" y1="681.104" x2="107.238" y2="658.838" gradientUnits="userSpaceOnUse">
<stop stop-color="#785BEA"/>
<stop offset="0.776042" stop-color="#E9ABD9"/>
<stop offset="1" stop-color="#FEDA7A"/>
</linearGradient>
<linearGradient id="paint14_linear_7_592" x1="198.617" y1="876.008" x2="88.584" y2="766.205" gradientUnits="userSpaceOnUse">
<stop stop-color="#3F9AD5"/>
<stop offset="1" stop-color="#AEDEF9"/>
</linearGradient>
<linearGradient id="paint15_linear_7_592" x1="182.154" y1="808.976" x2="105.115" y2="732.096" gradientUnits="userSpaceOnUse">
<stop offset="0.181564" stop-color="#ECF7FC"/>
<stop offset="1" stop-color="#B0DEF0"/>
</linearGradient>
</defs>
</svg>
