<svg width="251" height="162" viewBox="0 0 251 162" fill="none" xmlns="http://www.w3.org/2000/svg">
<g filter="url(#filter0_dd_392_410)">
<path fillRule="evenodd" clipRule="evenodd" d="M12 104.742C12.1977 119.939 13.2614 128.503 18.9843 134.225C26.0138 141.255 37.3275 141.255 59.9549 141.255H170.164C184.082 141.255 191.042 141.255 196.875 138.063C202.707 134.871 206.459 129.009 213.962 117.286L225.983 98.502C234.027 85.934 238.049 79.6499 238.049 72.6274C238.049 65.605 234.027 59.3209 225.983 46.7529L212.192 25.2035C205.555 14.8329 202.236 9.64757 197.076 6.82378C191.916 4 185.76 4 173.447 4H59.9549C37.3275 4 26.0138 4 18.9843 11.0294C13.6593 16.3544 12.3682 24.1387 12.0551 37.438L23.9634 57.8144C28.9673 66.3766 28.8745 76.9929 23.7217 85.4664L12 104.742Z" fill="#58B4FA"/>
</g>
<defs>
<filter id="filter0_dd_392_410" x="3.05176e-05" y="0" width="250.049" height="161.255" filterUnits="userSpaceOnUse" colorInterpolationFilters="sRGB">
<feFlood floodOpacity="0" result="BackgroundImageFix"/>
<feColorMatrix in="SourceAlpha" type="matrix" values="0 0 0 0 0 0 0 0 0 0 0 0 0 0 0 0 0 0 127 0" result="hardAlpha"/>
<feOffset dy="8"/>
<feGaussianBlur stdDeviation="6"/>
<feColorMatrix type="matrix" values="0 0 0 0 0.0823529 0 0 0 0 0.0823529 0 0 0 0 0.0823529 0 0 0 0.08 0"/>
<feBlend mode="normal" in2="BackgroundImageFix" result="effect1_dropShadow_392_410"/>
<feColorMatrix in="SourceAlpha" type="matrix" values="0 0 0 0 0 0 0 0 0 0 0 0 0 0 0 0 0 0 127 0" result="hardAlpha"/>
<feOffset dy="1"/>
<feGaussianBlur stdDeviation="2"/>
<feColorMatrix type="matrix" values="0 0 0 0 0.0823529 0 0 0 0 0.0823529 0 0 0 0 0.0823529 0 0 0 0.02 0"/>
<feBlend mode="normal" in2="effect1_dropShadow_392_410" result="effect2_dropShadow_392_410"/>
<feBlend mode="normal" in="SourceGraphic" in2="effect2_dropShadow_392_410" result="shape"/>
</filter>
</defs>
</svg>
