<svg width="247" height="444" viewBox="0 0 247 444" fill="none" xmlns="http://www.w3.org/2000/svg">
<g opacity="0.25">
<path d="M108.694 99.0412C108.694 99.0412 109.461 90.1418 102.565 93.6298C95.6687 97.1225 71.6417 124.119 96.549 149.744C96.549 149.744 130.067 123.877 124.024 110.408C117.985 96.9428 108.694 99.0412 108.694 99.0412Z" fill="url(#paint0_linear_302_11073)"/>
<path d="M68.237 149.488C75.841 146.227 83.8213 147.026 91.9694 151.889C113.95 165.009 123.178 218.774 127.053 260.454C125.61 201.15 116.264 119.089 78.9305 74.4549L82.3514 71.3545C113.592 108.706 125.773 169.986 130.006 223.718C130.564 200.848 131.943 176.063 134.838 152.456C133.845 101.862 129.63 55.9092 118.519 40.2609L122.167 37.4535C131.966 51.2586 136.693 86.3035 138.613 127.426C144.211 96.7766 153.09 70.6314 166.986 57.3176L170.057 60.7962C153.421 76.7328 144.302 113.04 139.452 153.222C139.565 158.921 139.638 164.673 139.674 170.444C144.016 146.931 149.801 127.379 157.499 119.585C183.36 93.3975 213.715 119.207 214.02 119.463L211.116 123.097C210.004 122.133 183.573 99.7637 160.662 122.974C150.608 133.154 143.93 166.389 139.552 201.448C138.989 243.454 136.984 282.951 135.614 305.944C135.786 309.55 135.913 311.634 135.922 311.833L135.251 311.875C134.752 319.83 134.389 324.934 134.294 326.234L130.283 325.917C130.065 328.814 129.897 330.752 129.838 331.381L125.324 330.922C125.351 330.572 125.973 323.554 126.504 311.998L125.311 312.008C125.301 310.656 123.804 176.338 89.7146 155.987C82.7504 151.832 76.2946 151.133 69.9749 153.855C49.999 162.452 39.3556 202.247 39.2512 202.648L34.8732 201.401C35.3268 199.676 46.2108 158.978 68.237 149.488Z" fill="url(#paint1_linear_302_11073)"/>
<path d="M186.25 153.808C206.067 155.254 221.415 183.176 222.063 184.363L218.107 186.688C217.967 186.419 203.308 159.782 185.928 158.52C178.601 158.033 171.659 162.15 165.24 170.879C138.468 207.285 143.853 310.812 143.912 311.852L139.384 312.121C139.144 307.802 133.845 205.801 161.637 168.01C169.046 157.934 177.367 153.118 186.25 153.808Z" fill="url(#paint2_linear_302_11073)"/>
<path d="M60.338 173.866C60.338 173.866 78.0996 180.686 72.8189 196.793C67.5379 212.895 11.3765 239.394 11.3765 239.394C11.3765 239.394 -12.1471 216.936 9.45272 180.412C31.0573 143.883 59.8571 162.343 60.338 173.866Z" fill="url(#paint3_linear_302_11073)"/>
<path d="M137.553 143.21C137.553 143.21 118.639 142.382 117.564 159.364C116.489 176.345 158.536 223.324 158.536 223.324C158.536 223.324 188.547 212.023 182.1 169.648C175.653 127.273 142.253 132.765 137.553 143.21Z" fill="url(#paint4_linear_302_11073)"/>
<path d="M153.564 61.9282C153.564 61.9282 140.951 60.5152 141.968 52.5136C142.984 44.5122 190.988 23.9202 219.312 57.221C219.312 57.221 201.173 89.6711 174.959 90.0964C148.746 90.5217 153.564 61.9282 153.564 61.9282Z" fill="url(#paint5_linear_302_11073)"/>
<path d="M130.064 42.4958C130.064 42.4958 141.483 48.2476 144.686 40.8937C147.885 33.5444 117.597 -10.3809 76.6565 2.27583C76.6565 2.27583 75.5721 39.8112 97.6029 54.609C119.639 69.4163 130.064 42.4958 130.064 42.4958Z" fill="url(#paint6_linear_302_11073)"/>
<path d="M189.767 167.39C189.767 167.39 181.066 160.069 190.457 156.496C199.848 152.923 245.934 153.939 246.41 201.494C246.41 201.494 192.739 210.785 186.097 192.675C179.455 174.559 189.767 167.39 189.767 167.39Z" fill="url(#paint7_linear_302_11073)"/>
<path d="M80.3196 60.7318C80.3196 60.7318 89.0214 53.4109 79.63 49.8379C70.2388 46.2649 24.1536 47.281 23.6726 94.8361C23.6726 94.8361 77.348 104.133 83.9899 86.017C90.6318 67.9015 80.3196 60.7318 80.3196 60.7318Z" fill="url(#paint8_linear_302_11073)"/>
<path d="M197.549 111.724C197.549 111.724 192.35 104.621 199.968 103.742C207.585 102.858 241.729 112.353 233.776 147.861C233.776 147.861 192.182 144.604 190.4 129.854C188.616 115.103 197.549 111.724 197.549 111.724Z" fill="url(#paint9_linear_302_11073)"/>
<path d="M57.016 443.808H199.741L215.139 281.024H41.618L57.016 443.808Z" fill="#346FB6"/>
<path d="M57.016 443.808H199.741L215.139 281.024H41.618L57.016 443.808Z" fill="url(#paint10_linear_302_11073)"/>
<path d="M33.997 263.064H222.757V298.988H33.997V263.064Z" fill="url(#paint11_linear_302_11073)"/>
</g>
<defs>
<linearGradient id="paint0_linear_302_11073" x1="123.038" y1="150.73" x2="75.1397" y2="118.168" gradientUnits="userSpaceOnUse">
<stop stop-color="#785BEA"/>
<stop offset="0.776042" stop-color="#E9ABD9"/>
<stop offset="1" stop-color="#FEDA7A"/>
</linearGradient>
<linearGradient id="paint1_linear_302_11073" x1="206.192" y1="336.471" x2="-28.6544" y2="195.348" gradientUnits="userSpaceOnUse">
<stop stop-color="#785BEA"/>
<stop offset="0.776042" stop-color="#E9ABD9"/>
<stop offset="1" stop-color="#FEDA7A"/>
</linearGradient>
<linearGradient id="paint2_linear_302_11073" x1="218.427" y1="314.864" x2="101.345" y2="254.199" gradientUnits="userSpaceOnUse">
<stop stop-color="#785BEA"/>
<stop offset="0.776042" stop-color="#E9ABD9"/>
<stop offset="1" stop-color="#FEDA7A"/>
</linearGradient>
<linearGradient id="paint3_linear_302_11073" x1="70.5895" y1="240.789" x2="-1.88091" y2="175.608" gradientUnits="userSpaceOnUse">
<stop stop-color="#785BEA"/>
<stop offset="0.776042" stop-color="#E9ABD9"/>
<stop offset="1" stop-color="#FEDA7A"/>
</linearGradient>
<linearGradient id="paint4_linear_302_11073" x1="180.147" y1="224.839" x2="104.483" y2="169.045" gradientUnits="userSpaceOnUse">
<stop stop-color="#785BEA"/>
<stop offset="0.776042" stop-color="#E9ABD9"/>
<stop offset="1" stop-color="#FEDA7A"/>
</linearGradient>
<linearGradient id="paint5_linear_302_11073" x1="215.93" y1="90.9886" x2="173.006" y2="27.0694" gradientUnits="userSpaceOnUse">
<stop stop-color="#785BEA"/>
<stop offset="0.776042" stop-color="#E9ABD9"/>
<stop offset="1" stop-color="#FEDA7A"/>
</linearGradient>
<linearGradient id="paint6_linear_302_11073" x1="141.935" y1="60.0781" x2="88.9509" y2="-0.311368" gradientUnits="userSpaceOnUse">
<stop stop-color="#785BEA"/>
<stop offset="0.776042" stop-color="#E9ABD9"/>
<stop offset="1" stop-color="#FEDA7A"/>
</linearGradient>
<linearGradient id="paint7_linear_302_11073" x1="243.677" y1="204.719" x2="200.875" y2="150.456" gradientUnits="userSpaceOnUse">
<stop stop-color="#785BEA"/>
<stop offset="0.776042" stop-color="#E9ABD9"/>
<stop offset="1" stop-color="#FEDA7A"/>
</linearGradient>
<linearGradient id="paint8_linear_302_11073" x1="83.4868" y1="98.0634" x2="40.6834" y2="43.7972" gradientUnits="userSpaceOnUse">
<stop stop-color="#785BEA"/>
<stop offset="0.776042" stop-color="#E9ABD9"/>
<stop offset="1" stop-color="#FEDA7A"/>
</linearGradient>
<linearGradient id="paint9_linear_302_11073" x1="233.011" y1="148.626" x2="193.039" y2="108.653" gradientUnits="userSpaceOnUse">
<stop stop-color="#785BEA"/>
<stop offset="0.776042" stop-color="#E9ABD9"/>
<stop offset="1" stop-color="#FEDA7A"/>
</linearGradient>
<linearGradient id="paint10_linear_302_11073" x1="208.605" y1="434.944" x2="48.1511" y2="274.491" gradientUnits="userSpaceOnUse">
<stop stop-color="#3F9AD5"/>
<stop offset="1" stop-color="#AEDEF9"/>
</linearGradient>
<linearGradient id="paint11_linear_302_11073" x1="184.548" y1="337.197" x2="72.2054" y2="224.856" gradientUnits="userSpaceOnUse">
<stop offset="0.181564" stop-color="#ECF7FC"/>
<stop offset="1" stop-color="#B0DEF0"/>
</linearGradient>
</defs>
</svg>
