<svg width="135" height="242" viewBox="0 0 135 242" fill="none" xmlns="http://www.w3.org/2000/svg">
<path d="M37.4729 81.4847C41.597 79.7124 45.9251 80.1464 50.3443 82.7895C62.2658 89.9202 67.2707 119.141 69.3721 141.794C68.5895 109.563 63.5208 64.9631 43.2726 40.7047L45.1279 39.0197C62.0715 59.3197 68.6781 92.6249 70.974 121.828C71.2765 109.398 72.0245 95.9282 73.5943 83.0977C73.0556 55.6003 70.7696 30.6253 64.7436 22.1205L66.722 20.5947C72.0369 28.0977 74.6007 47.1443 75.6416 69.4942C78.678 52.8364 83.4933 38.6267 91.0301 31.3907L92.6959 33.2813C83.6729 41.9428 78.7272 61.6752 76.0968 83.5139C76.1584 86.6117 76.1977 89.7378 76.2174 92.874C78.5721 80.0951 81.7095 69.4685 85.885 65.2328C99.9104 50.9999 116.374 65.0273 116.539 65.166L114.964 67.1413C114.361 66.6172 100.026 54.4599 87.6001 67.0745C82.1473 72.6074 78.5255 90.6702 76.1509 109.724C75.8458 132.555 74.7582 154.021 74.0151 166.517C74.1086 168.477 74.1776 169.61 74.1824 169.718L73.8183 169.741C73.5476 174.064 73.3508 176.838 73.2991 177.545L71.124 177.373C71.0059 178.947 70.9148 180 70.8828 180.342L68.4346 180.093C68.4493 179.903 68.7864 176.088 69.0742 169.808L68.4271 169.813C68.4222 169.078 67.6102 96.0772 49.1214 85.0166C45.3443 82.7587 41.843 82.3786 38.4154 83.8582C27.5813 88.5305 21.8088 110.159 21.7522 110.377L19.3778 109.699C19.6238 108.761 25.5268 86.6425 37.4729 81.4847Z" fill="url(#paint0_linear_1_5673)"/>
<path d="M101.478 83.8322C112.226 84.6182 120.55 99.7938 120.902 100.438L118.757 101.702C118.681 101.556 110.73 87.079 101.304 86.3931C97.33 86.1285 93.5654 88.3658 90.0837 93.1102C75.5637 112.896 78.4844 169.163 78.5165 169.728L76.0608 169.874C75.9303 167.526 73.0564 112.09 88.1299 91.551C92.148 86.0746 96.6608 83.4571 101.478 83.8322Z" fill="url(#paint1_linear_1_5673)"/>
<path d="M33.1911 94.734C33.1911 94.734 42.8242 98.4407 39.9602 107.195C37.096 115.946 6.63649 130.348 6.63649 130.348C6.63649 130.348 -6.12166 118.142 5.59313 98.2917C17.3105 78.4385 32.9302 88.4717 33.1911 94.734Z" fill="url(#paint2_linear_1_5673)"/>
<path d="M75.0678 78.073C75.0678 78.073 64.8097 77.6234 64.2266 86.8526C63.6434 96.0817 86.4481 121.614 86.4481 121.614C86.4481 121.614 102.725 115.473 99.2284 92.442C95.732 69.4114 77.6171 72.3962 75.0678 78.073Z" fill="url(#paint3_linear_1_5673)"/>
<path d="M83.7535 33.8967C83.7535 33.8967 76.9131 33.1287 77.4643 28.7799C78.0156 24.4312 104.051 13.2397 119.412 31.3383C119.412 31.3383 109.575 48.9746 95.3576 49.2058C81.1405 49.4369 83.7535 33.8967 83.7535 33.8967Z" fill="url(#paint4_linear_1_5673)"/>
<path d="M71.0081 23.3355C71.0081 23.3355 77.2017 26.4616 78.9388 22.4648C80.6735 18.4705 64.2465 -5.40261 42.042 1.47622C42.042 1.47622 41.4539 21.8765 53.4026 29.919C65.3538 37.9666 71.0081 23.3355 71.0081 23.3355Z" fill="url(#paint5_linear_1_5673)"/>
<path d="M103.389 91.2146C103.389 91.2146 98.6693 87.2359 103.763 85.2939C108.856 83.352 133.851 83.9043 134.109 109.75C134.109 109.75 105 114.8 101.398 104.957C97.7958 95.1113 103.389 91.2146 103.389 91.2146Z" fill="url(#paint6_linear_1_5673)"/>
<path d="M44.0305 33.2469C44.0305 33.2469 48.75 29.2681 43.6565 27.3262C38.5631 25.3842 13.5684 25.9365 13.3075 51.7825C13.3075 51.7825 42.4188 56.8351 46.0211 46.9893C49.6234 37.1436 44.0305 33.2469 44.0305 33.2469Z" fill="url(#paint7_linear_1_5673)"/>
<path d="M107.61 60.9603C107.61 60.9603 104.79 57.0997 108.921 56.6218C113.053 56.1415 131.571 61.302 127.257 80.6004C127.257 80.6004 104.699 78.8305 103.732 70.8138C102.765 62.7969 107.61 60.9603 107.61 60.9603Z" fill="url(#paint8_linear_1_5673)"/>
<path d="M59.4173 54.0671C59.4173 54.0671 59.8332 49.2303 56.0931 51.126C52.3531 53.0243 39.322 67.6965 52.8305 81.6237C52.8305 81.6237 71.0091 67.5653 67.7316 60.2448C64.4565 52.9267 59.4173 54.0671 59.4173 54.0671Z" fill="url(#paint9_linear_1_5673)"/>
<path d="M31.3894 241.446H108.797L117.148 152.974H23.0382L31.3894 241.446Z" fill="#346FB6"/>
<path d="M31.3894 241.446H108.797L117.148 152.974H23.0382L31.3894 241.446Z" fill="url(#paint10_linear_1_5673)"/>
<path d="M18.9058 143.212H121.281V162.736H18.9058V143.212Z" fill="url(#paint11_linear_1_5673)"/>
<defs>
<linearGradient id="paint0_linear_1_5673" x1="112.294" y1="183.108" x2="-15.2181" y2="106.645" gradientUnits="userSpaceOnUse">
<stop stop-color="#785BEA"/>
<stop offset="0.776042" stop-color="#E9ABD9"/>
<stop offset="1" stop-color="#FEDA7A"/>
</linearGradient>
<linearGradient id="paint1_linear_1_5673" x1="118.93" y1="171.365" x2="55.3741" y2="138.503" gradientUnits="userSpaceOnUse">
<stop stop-color="#785BEA"/>
<stop offset="0.776042" stop-color="#E9ABD9"/>
<stop offset="1" stop-color="#FEDA7A"/>
</linearGradient>
<linearGradient id="paint2_linear_1_5673" x1="38.7511" y1="131.106" x2="-0.627257" y2="95.7627" gradientUnits="userSpaceOnUse">
<stop stop-color="#785BEA"/>
<stop offset="0.776042" stop-color="#E9ABD9"/>
<stop offset="1" stop-color="#FEDA7A"/>
</linearGradient>
<linearGradient id="paint3_linear_1_5673" x1="98.1694" y1="122.438" x2="57.0715" y2="92.196" gradientUnits="userSpaceOnUse">
<stop stop-color="#785BEA"/>
<stop offset="0.776042" stop-color="#E9ABD9"/>
<stop offset="1" stop-color="#FEDA7A"/>
</linearGradient>
<linearGradient id="paint4_linear_1_5673" x1="117.578" y1="49.6907" x2="94.2309" y2="14.9965" gradientUnits="userSpaceOnUse">
<stop stop-color="#785BEA"/>
<stop offset="0.776042" stop-color="#E9ABD9"/>
<stop offset="1" stop-color="#FEDA7A"/>
</linearGradient>
<linearGradient id="paint5_linear_1_5673" x1="77.4466" y1="32.8914" x2="48.6424" y2="0.129625" gradientUnits="userSpaceOnUse">
<stop stop-color="#785BEA"/>
<stop offset="0.776042" stop-color="#E9ABD9"/>
<stop offset="1" stop-color="#FEDA7A"/>
</linearGradient>
<linearGradient id="paint6_linear_1_5673" x1="132.627" y1="111.503" x2="109.354" y2="82.0588" gradientUnits="userSpaceOnUse">
<stop stop-color="#785BEA"/>
<stop offset="0.776042" stop-color="#E9ABD9"/>
<stop offset="1" stop-color="#FEDA7A"/>
</linearGradient>
<linearGradient id="paint7_linear_1_5673" x1="45.7483" y1="53.5365" x2="22.4735" y2="24.0904" gradientUnits="userSpaceOnUse">
<stop stop-color="#785BEA"/>
<stop offset="0.776042" stop-color="#E9ABD9"/>
<stop offset="1" stop-color="#FEDA7A"/>
</linearGradient>
<linearGradient id="paint8_linear_1_5673" x1="126.843" y1="81.0161" x2="105.118" y2="59.337" gradientUnits="userSpaceOnUse">
<stop stop-color="#785BEA"/>
<stop offset="0.776042" stop-color="#E9ABD9"/>
<stop offset="1" stop-color="#FEDA7A"/>
</linearGradient>
<linearGradient id="paint9_linear_1_5673" x1="67.1968" y1="82.1595" x2="41.1846" y2="64.5131" gradientUnits="userSpaceOnUse">
<stop stop-color="#785BEA"/>
<stop offset="0.776042" stop-color="#E9ABD9"/>
<stop offset="1" stop-color="#FEDA7A"/>
</linearGradient>
<linearGradient id="paint10_linear_1_5673" x1="113.605" y1="236.628" x2="26.3995" y2="149.605" gradientUnits="userSpaceOnUse">
<stop stop-color="#3F9AD5"/>
<stop offset="1" stop-color="#AEDEF9"/>
</linearGradient>
<linearGradient id="paint11_linear_1_5673" x1="100.558" y1="183.502" x2="39.502" y2="122.573" gradientUnits="userSpaceOnUse">
<stop offset="0.181564" stop-color="#ECF7FC"/>
<stop offset="1" stop-color="#B0DEF0"/>
</linearGradient>
</defs>
</svg>
