<svg width="1208" height="623" viewBox="0 0 1208 623" fill="none" xmlns="http://www.w3.org/2000/svg">
<path opacity="0.5" d="M1.29334 389.936C-19.225 409.772 211.589 230.37 183.784 223.946C157.429 217.85 126.121 219.627 94.1669 241.638C32.3241 284.249 29.5446 360.099 57.2994 407.029C71.7029 431.383 76.3188 460.343 69.0029 487.675C62.6102 511.562 22.8342 522.335 69.0029 534.626C159.533 666.27 439.827 614.972 505.183 603.892C570.53 592.813 692.677 657.086 763.859 534.626C763.859 534.626 946.476 283.13 776.81 127.041C623.236 -14.2645 457.54 40.4788 384.213 91.7671C356.607 111.067 311.848 137.545 278.176 136.622C192.381 134.289 50.8966 160.717 57.2993 328.849C58.153 351.366 43.8586 371.52 22.3377 378.181C14.6545 380.554 7.18974 384.247 1.30325 389.936H1.29334Z" fill="url(#paint0_linear_0_1)"/>
<g opacity="0.6">
<path d="M464.605 407.788H672.904V347.487H464.605C469.064 347.487 469.064 407.788 464.605 407.788Z" fill="url(#paint1_linear_0_1)"/>
<path d="M672.904 392.694V365.095C672.904 355.37 668.787 347.481 663.706 347.481H465.479C461.488 347.481 458.246 342.796 458.246 337.022C458.246 335.269 459.231 333.845 460.44 333.845H677.097C682.066 333.845 689.956 345.142 689.956 359.084V397.63C689.956 410.77 682.296 421.424 677.614 421.424H461.586C459.741 421.424 458.253 419.267 458.253 416.6C458.253 411.733 460.978 407.789 464.34 407.789H665.027C669.374 407.789 672.904 401.03 672.904 392.701V392.694Z" fill="url(#paint2_linear_0_1)"/>
<path d="M667.131 360.557H471.818C471.433 360.557 471.119 360.243 471.119 359.859C471.119 359.475 471.433 359.161 471.818 359.161H667.131C667.515 359.161 667.83 359.475 667.83 359.859C667.83 360.243 667.515 360.557 667.131 360.557Z" fill="white"/>
<path d="M667.131 369.508H471.818C471.433 369.508 471.119 369.193 471.119 368.81C471.119 368.426 471.433 368.111 471.818 368.111H667.131C667.515 368.111 667.83 368.426 667.83 368.81C667.83 369.193 667.515 369.508 667.131 369.508Z" fill="white"/>
<path d="M667.131 378.458H471.818C471.433 378.458 471.119 378.144 471.119 377.76C471.119 377.376 471.433 377.062 471.818 377.062H667.131C667.515 377.062 667.83 377.376 667.83 377.76C667.83 378.144 667.515 378.458 667.131 378.458Z" fill="white"/>
<path d="M667.131 387.409H471.818C471.433 387.409 471.119 387.095 471.119 386.711C471.119 386.327 471.433 386.013 471.818 386.013H667.131C667.515 386.013 667.83 386.327 667.83 386.711C667.83 387.095 667.515 387.409 667.131 387.409Z" fill="white"/>
<path d="M667.131 396.36H471.818C471.433 396.36 471.119 396.046 471.119 395.662C471.119 395.278 471.433 394.963 471.818 394.963H667.131C667.515 394.963 667.83 395.278 667.83 395.662C667.83 396.046 667.515 396.36 667.131 396.36Z" fill="white"/>
<path d="M794.255 421.424H473.383C463.908 421.424 456.226 429.098 456.226 438.564V484.252C456.226 493.719 463.908 501.393 473.383 501.393H794.255C803.731 501.393 811.413 493.719 811.413 484.252V438.564C811.413 429.098 803.731 421.424 794.255 421.424Z" fill="url(#paint3_linear_0_1)"/>
<path opacity="0.6" d="M506.013 430.612H488.178C485.384 430.612 483.118 432.875 483.118 435.667V487.15C483.118 489.941 485.384 492.205 488.178 492.205H506.013C508.808 492.205 511.073 489.941 511.073 487.15V435.667C511.073 432.875 508.808 430.612 506.013 430.612Z" fill="white"/>
</g>
<g opacity="0.75">
<path d="M571.19 452.563C572.217 452.612 573.049 451.732 572.923 450.712C571.819 440.736 563.712 393.56 520.864 392.925C483.063 392.652 461.167 411.971 453.962 419.867C452.655 421.291 453.41 423.554 455.324 423.945C460.405 424.985 468.903 427.819 474.494 435.143C482.972 446.125 503.099 443.787 515.993 428.162C528.566 412.46 562.091 403.956 569.611 451.152C569.736 451.934 570.386 452.528 571.183 452.563H571.19Z" fill="url(#paint4_linear_0_1)"/>
<path d="M483.824 224.253C482.853 222.591 479.855 222.892 479.331 224.7C474.208 241.274 466.604 289.476 511.926 311.706C566.018 339.598 567.074 328.05 571.735 376.936C575.397 419.246 575.747 444.91 575.858 451.243C575.872 452.109 576.55 452.821 577.424 452.863C578.353 452.911 579.143 452.185 579.157 451.257C579.402 438.005 580.862 350.308 571.812 307.035C555.214 229.824 507.46 265.627 483.817 224.253H483.824Z" fill="url(#paint5_linear_0_1)"/>
<path opacity="0.65" d="M520.263 103.169C519.865 101.451 516.587 101.5 516.252 103.225C514.582 111.882 511.423 122.927 505.566 130.195C494.21 143.879 477.206 192.416 528.915 216.517C580.129 241.442 591.003 255.775 588.2 302.099C585.643 344.646 583.35 435.611 582.854 450.943C582.819 452.178 583.777 453.212 585.014 453.288C586.272 453.365 587.362 452.409 587.439 451.152C588.669 431.247 598.006 286.544 595.713 251.216C592.631 194.881 535.184 164.42 520.256 103.176L520.263 103.169Z" fill="url(#paint6_linear_0_1)"/>
<path d="M721.391 2.26203C721.524 0.279222 717.883 -0.809927 716.282 0.733034C708.574 8.20348 691.913 20.3168 661.533 27.7942C614.862 38.4832 537.7 68.358 580.268 139.676C621.697 214.374 601.116 264.251 603.031 289.651C604.198 313.263 598.376 434.166 597.405 451.906C597.342 453.114 598.264 454.154 599.48 454.238C600.731 454.329 601.815 453.372 601.877 452.123C602.982 432.553 609.23 292.918 610.585 270.591C612.493 246.657 609.998 163.742 640.168 136.025C669.088 109.089 715.758 77.4203 721.398 2.26901L721.391 2.26203Z" fill="url(#paint7_linear_0_1)"/>
<g opacity="0.47">
<path d="M521.074 139.984C519.928 142.783 519.341 145.869 519.208 148.864C519.082 151.887 519.348 154.91 520.096 157.864C521.577 163.777 524.764 169.37 529.139 174.299C531.312 176.784 533.779 179.074 536.442 181.28C539.091 183.494 541.879 185.609 544.724 187.697C550.413 191.865 556.332 195.921 561.832 200.382C567.353 204.823 572.434 209.696 576.62 215.058C578.689 217.753 580.548 220.546 582.197 223.415C582.589 224.141 582.973 224.867 583.364 225.593C583.56 225.957 583.749 226.32 583.944 226.683C584.119 227.053 584.294 227.423 584.462 227.793C584.804 228.533 585.153 229.273 585.496 230.013C585.803 230.76 586.104 231.514 586.411 232.261C587.054 233.755 587.516 235.284 588.054 236.799C588.543 238.321 588.969 239.864 589.403 241.393C589.759 242.943 590.157 244.479 590.451 246.036C590.716 247.593 591.066 249.136 591.255 250.7C592.17 256.927 592.519 263.19 592.464 269.425C592.464 269.83 592.072 270.151 591.597 270.144C591.136 270.137 590.758 269.809 590.744 269.418C590.367 257.06 588.711 244.619 583.84 232.952C583.532 232.226 583.225 231.5 582.91 230.774C582.561 230.062 582.218 229.343 581.869 228.631C581.694 228.274 581.519 227.918 581.345 227.562C581.149 227.213 580.96 226.864 580.765 226.515C580.373 225.817 579.989 225.119 579.597 224.421C577.948 221.663 576.096 218.989 574.055 216.406C571.973 213.85 569.722 211.386 567.304 209.019C564.886 206.652 562.265 204.425 559.561 202.247C554.145 197.904 548.246 193.903 542.452 189.714C539.559 187.62 536.694 185.469 533.947 183.2C531.187 180.952 528.594 178.488 526.309 175.87C521.71 170.647 518.404 164.608 517.097 158.283C516.748 156.705 516.559 155.113 516.455 153.514C516.35 151.915 516.378 150.317 516.559 148.732C516.93 145.548 517.643 142.427 519.222 139.383C519.432 138.985 520.012 138.79 520.529 138.95C521.018 139.104 521.263 139.523 521.109 139.907L521.081 139.97L521.074 139.984Z" fill="white"/>
</g>
<g opacity="0.47">
<path d="M485.159 233.099C485.774 235.828 486.976 238.53 488.493 241.023C490.044 243.515 491.847 245.889 493.923 248.074C498.081 252.452 503.211 256.11 508.76 259.175C511.507 260.767 514.463 262.024 517.405 263.392C518.915 264.077 520.424 264.761 521.927 265.445C523.415 266.157 524.876 266.918 526.344 267.665C532.158 270.73 537.714 274.172 542.774 278.11C547.771 282.103 552.293 286.53 556.171 291.347C557.094 292.583 558.009 293.812 558.918 295.047C559.4 295.655 559.764 296.318 560.176 296.953C560.581 297.596 560.98 298.245 561.378 298.887C561.776 299.53 562.175 300.179 562.58 300.821C562.922 301.492 563.272 302.155 563.614 302.825C564.285 304.166 565.012 305.492 565.634 306.847C566.2 308.222 566.766 309.597 567.332 310.973C567.598 311.664 567.933 312.341 568.136 313.046C568.36 313.751 568.583 314.45 568.807 315.155C569.247 316.565 569.715 317.961 570.086 319.386C570.407 320.817 570.729 322.241 571.043 323.673C571.204 324.385 571.358 325.104 571.518 325.816C571.623 326.535 571.735 327.261 571.84 327.98C572.05 329.418 572.259 330.864 572.469 332.302C572.595 333.021 572.644 333.747 572.693 334.466C572.742 335.192 572.79 335.911 572.839 336.638C572.937 338.083 573.035 339.528 573.126 340.98C573.147 341.259 572.909 341.49 572.609 341.511C572.315 341.525 572.057 341.322 572.022 341.057V341.029C571.847 339.598 571.679 338.167 571.505 336.742C571.421 336.03 571.337 335.311 571.246 334.599C571.169 333.887 571.092 333.168 570.938 332.463C570.68 331.045 570.414 329.628 570.149 328.218C570.016 327.512 569.883 326.8 569.75 326.095C569.569 325.397 569.38 324.699 569.198 324.001C568.828 322.604 568.457 321.215 568.087 319.819C567.668 318.436 567.137 317.082 566.689 315.706C566.452 315.022 566.221 314.338 565.983 313.654C565.774 312.963 565.424 312.313 565.152 311.643C564.572 310.309 563.985 308.976 563.398 307.642C562.755 306.33 562.021 305.059 561.329 303.768C560.98 303.125 560.63 302.483 560.274 301.841C559.868 301.219 559.463 300.605 559.058 299.984C558.652 299.362 558.247 298.748 557.842 298.126C557.429 297.512 557.059 296.877 556.577 296.297C555.661 295.117 554.746 293.937 553.823 292.764C549.958 288.17 545.576 283.905 540.677 280.093C535.715 276.336 530.341 272.978 524.652 270.018C523.213 269.299 521.794 268.559 520.333 267.868C518.859 267.197 517.384 266.534 515.902 265.871C512.918 264.467 509.822 263.113 506.978 261.437C501.233 258.17 495.957 254.169 491.84 249.394C490.862 248.172 489.849 246.971 489.024 245.666C488.584 245.03 488.143 244.395 487.787 243.718C487.43 243.048 487.004 242.398 486.704 241.707C486.04 240.346 485.46 238.956 485.012 237.532C484.53 236.115 484.237 234.669 484.118 233.161C484.097 232.924 484.314 232.722 484.6 232.701C484.866 232.687 485.089 232.833 485.138 233.043V233.085L485.159 233.099Z" fill="white"/>
</g>
<g opacity="0.47">
<path d="M470.902 413.814C473.656 411.377 476.682 409.282 479.841 407.369C481.427 406.42 483.042 405.519 484.705 404.682C486.354 403.83 488.046 403.048 489.779 402.329C493.217 400.863 496.795 399.683 500.45 398.733C504.113 397.818 507.865 397.197 511.653 396.869C515.434 396.534 519.264 396.555 523.045 396.96C526.826 397.358 530.572 398.091 534.157 399.271C534.604 399.41 535.058 399.55 535.506 399.697C535.946 399.864 536.379 400.039 536.82 400.213C537.693 400.562 538.574 400.883 539.433 401.26C541.118 402.077 542.837 402.831 544.409 403.816C547.659 405.624 550.601 407.865 553.383 410.225C553.572 410.386 553.593 410.665 553.425 410.853C553.271 411.028 552.998 411.049 552.81 410.923L552.789 410.909C549.819 408.857 546.841 406.811 543.564 405.268C541.977 404.409 540.272 403.788 538.616 403.062C537.777 402.734 536.91 402.468 536.058 402.168C535.632 402.022 535.205 401.875 534.772 401.735C534.332 401.617 533.898 401.505 533.458 401.386C529.992 400.353 526.386 399.808 522.772 399.494C521.864 399.445 520.969 399.327 520.061 399.327C519.152 399.313 518.244 399.299 517.342 399.285C515.525 399.348 513.715 399.396 511.905 399.592C504.665 400.248 497.585 402.154 490.813 404.723C484.048 407.321 477.535 410.602 471.475 414.505L471.454 414.519C471.245 414.651 470.958 414.603 470.818 414.4C470.693 414.219 470.728 413.974 470.888 413.828L470.902 413.814Z" fill="white"/>
</g>
<g opacity="0.33">
<path d="M701.62 21.3293C698.14 24.0243 694.457 26.5586 690.662 29.0162C686.895 31.4947 682.974 33.8406 679.012 36.1585C678.012 36.731 677.013 37.3035 676.013 37.876C675 38.4346 673.987 38.9931 672.973 39.5516C670.961 40.6757 668.899 41.7648 666.83 42.847C662.679 44.9904 658.465 47.0779 654.188 49.0887C652.042 50.0871 649.848 51.0366 647.688 52.021C645.515 52.9845 643.285 53.8991 641.091 54.8416C636.702 56.6638 632.46 58.514 628.434 60.6434C620.376 64.8464 613.29 69.985 607.916 76.0312C605.232 79.0542 602.94 82.2798 601.151 85.6729C599.347 89.066 598.02 92.6058 596.992 96.2083C594.966 103.434 594.49 110.94 594.847 118.431C594.938 120.302 595.126 122.18 595.28 124.058C595.539 125.93 595.713 127.808 596.028 129.679C596.629 133.421 597.293 137.17 598.152 140.898C599.83 148.362 602.031 155.769 604.393 163.149C604.456 163.338 604.309 163.526 604.079 163.568C603.848 163.61 603.618 163.498 603.548 163.324C600.654 156.035 598.138 148.641 596.063 141.171C593.987 133.7 592.436 126.125 591.828 118.487C591.227 110.856 591.443 103.141 593.302 95.58C594.232 91.8098 595.602 88.0956 597.419 84.5C599.236 80.9114 601.584 77.4764 604.365 74.2508C609.921 67.7857 617.427 62.3679 625.751 57.9624C629.902 55.7492 634.326 53.7734 638.743 51.9442C640.916 51.0226 643.118 50.1359 645.277 49.2004C647.416 48.2439 649.589 47.3223 651.721 46.3449C653.831 45.3534 656.005 44.4179 658.108 43.4195C660.205 42.4072 662.351 41.4437 664.419 40.3964C666.495 39.3631 668.619 38.3717 670.674 37.3105C671.708 36.7869 672.743 36.2702 673.784 35.7466C674.804 35.209 675.832 34.6784 676.852 34.1478C678.928 33.1075 680.94 31.9974 682.988 30.9292C684.994 29.8191 687.042 28.7439 689.04 27.6268C693.038 25.3927 697.049 23.1516 700.914 20.7987H700.921C701.117 20.673 701.431 20.694 701.613 20.8476C701.781 20.9942 701.788 21.1897 701.627 21.3154L701.62 21.3293Z" fill="white"/>
</g>
</g>
<path d="M588.515 380.748C585.922 384.574 575.635 471.259 574.02 503.27C573.909 505.435 575.642 507.243 577.815 507.243C579.688 507.243 581.282 505.882 581.568 504.031L600.396 383.506L588.515 380.748Z" fill="url(#paint8_linear_0_1)"/>
<path d="M671.268 380.748C673.861 384.574 684.148 471.259 685.763 503.27C685.875 505.435 684.141 507.243 681.968 507.243C680.095 507.243 678.501 505.882 678.215 504.031L659.387 383.506L671.268 380.748Z" fill="url(#paint9_linear_0_1)"/>
<path d="M572.944 373.983V374.925C572.874 381.725 578.738 387.304 586.083 387.43L673.106 388.91C680.346 389.035 686.378 383.806 686.727 377.111L686.769 376.245C687.132 369.263 681.199 363.377 673.651 363.245L586.593 361.688C579.143 361.555 573.007 367.078 572.944 373.983Z" fill="url(#paint10_linear_0_1)"/>
<path d="M742.238 500.122C726.772 500.122 719.923 498.795 716.862 497.587C717.456 500.129 719.721 502.126 722.579 502.126H777.308C779.153 502.126 780.313 500.366 779.873 498.767C773.632 499.27 760.388 500.122 742.238 500.122V500.122Z" fill="url(#paint11_linear_0_1)"/>
<path d="M779.873 498.767C779.782 498.446 779.656 498.132 779.425 497.839C775.26 492.518 766.881 484.168 755.489 484.329C738.8 484.566 732.985 486.375 720.014 484.434L716.953 494.564C716.639 495.597 716.639 496.631 716.862 497.587C719.923 498.795 726.765 500.122 742.238 500.122C760.388 500.122 773.632 499.27 779.873 498.767V498.767Z" fill="url(#paint12_linear_0_1)"/>
<path d="M723.767 473.521L720.014 486.277C720.014 486.277 728.331 490.061 735.648 487.024L737.088 475.972L723.767 473.521Z" fill="url(#paint13_linear_0_1)"/>
<path d="M837.194 492.086C825.138 501.762 818.974 505.023 815.829 505.993C817.877 507.592 820.889 507.732 823.119 505.937L865.778 471.692C867.217 470.54 867.022 468.445 865.68 467.482C861.13 471.776 851.332 480.726 837.187 492.079L837.194 492.086Z" fill="url(#paint14_linear_0_1)"/>
<path d="M865.687 467.489C865.414 467.294 865.121 467.133 864.757 467.049C858.188 465.534 846.454 464.291 837.669 471.545C824.81 482.172 821.399 487.212 810.078 493.824L814.012 503.599C814.411 504.597 815.054 505.4 815.822 506C818.96 505.023 825.124 501.769 837.187 492.093C851.332 480.74 861.13 471.79 865.68 467.496L865.687 467.489Z" fill="url(#paint15_linear_0_1)"/>
<path d="M643.439 328.155C643.439 328.155 736.053 335.709 755.056 344.646C774.058 353.582 739.555 478.807 739.555 478.807C739.555 478.807 734.383 481.292 722.873 477.717C722.873 477.717 734.677 385.307 725.892 365.263L625.611 348.877L643.439 328.148V328.155Z" fill="url(#paint16_linear_0_1)"/>
<path d="M800.88 476.23C801.74 477.012 810.085 493.824 810.085 493.824C810.085 493.824 819.373 491.813 821.267 485.949L812.908 470.777L800.88 476.237V476.23Z" fill="url(#paint17_linear_0_1)"/>
<path d="M587.655 327.38C587.655 327.38 584.636 334.634 584.762 344.276C584.93 357.611 595.664 368.425 608.992 369.096L718.477 374.081C720.79 374.185 722.747 375.784 723.327 378.025C725.899 387.967 738.478 418.498 799.944 479.414C801.579 481.034 804.13 481.313 806.073 480.084L814.823 474.562C815.738 473.982 816.032 472.781 815.487 471.839L751.736 363.091C748.388 357.569 743.007 353.582 736.745 351.983L643.432 328.155L587.648 327.38H587.655Z" fill="url(#paint18_linear_0_1)"/>
<path d="M714.668 159.944C714.668 159.944 683.82 178.222 671.862 188.255L696.581 202.03C696.581 202.03 709.937 186.614 722.663 180.191L714.668 159.937V159.944Z" fill="url(#paint19_linear_0_1)"/>
<path d="M585.671 328.155C585.671 328.155 615.226 335.353 643.439 328.155C643.439 328.155 682.918 275.143 698.189 260.711C698.189 260.711 722.551 299.118 776.776 304.557L779.803 297.805C779.803 297.805 736.633 277.928 723.348 247.383C710.055 216.838 704.723 203.81 692.633 195.837C685.106 190.873 680.591 187.48 678.264 185.63C676.985 184.617 675.231 184.499 673.833 185.351C661.002 193.163 600.626 234.467 585.678 328.155H585.671Z" fill="url(#paint20_linear_0_1)"/>
<path d="M696.588 259.629C696.12 259.629 695.652 259.42 695.344 259.015C685.958 246.79 680.738 233.322 680.514 232.757C680.207 231.947 680.605 231.046 681.416 230.732C682.226 230.425 683.128 230.823 683.442 231.633C683.491 231.765 688.733 245.261 697.832 257.109C698.356 257.793 698.23 258.778 697.546 259.301C697.259 259.518 696.924 259.622 696.595 259.622L696.588 259.629Z" fill="#F2BD4A"/>
<path d="M773.513 294.28L779.614 292.653L798.148 288.366C800.377 287.85 802.725 288.247 804.661 289.462L820.596 299.474L776.595 299.397L773.513 294.273V294.28Z" fill="url(#paint21_linear_0_1)"/>
<path d="M744.775 146.539C744.859 147.14 736.878 186.231 736.878 186.231L714.633 181.204L716.695 143.028C716.695 143.028 743.336 136.542 744.782 146.539H744.775Z" fill="url(#paint22_linear_0_1)"/>
<path d="M721.692 151.531L719.036 171.541C719.001 171.799 719.001 172.05 719.036 172.309C719.259 173.88 720.427 179.221 725.822 177.692C730.721 176.309 735.208 175.115 738.311 176.065C739.701 176.491 740.54 177.901 740.254 179.325C739.527 182.879 737.745 190.852 735.131 197.541C734.6 198.895 733.111 199.614 731.713 199.202C727.492 197.974 718.665 195.132 712.103 191.187C711.215 190.65 710.684 189.686 710.726 188.653C710.943 183.598 711.53 168.245 711.034 163.938C710.566 159.895 705.604 157.48 703.444 156.607C702.738 156.321 702.186 155.769 701.9 155.057C700.9 152.557 699.523 146.77 706.82 144.403C708.35 143.907 709.154 142.259 708.609 140.751C707.525 137.742 707.071 133.155 712.718 130.628C718.456 128.059 722.74 131.117 725.053 133.595C725.99 134.6 727.492 134.754 728.652 134.021C729.316 133.602 730.162 133.469 731.196 134.105C732.58 134.971 734.418 134.377 735.131 132.911C736.508 130.09 739.303 127.074 744.922 128.038C754.888 129.741 756.02 140.779 753.392 147.244C750.764 153.709 740.058 151.245 734.69 147.991C730.609 145.513 725.312 148.11 723.012 149.499C722.286 149.939 721.796 150.686 721.685 151.531H721.692Z" fill="url(#paint23_linear_0_1)"/>
<path d="M710.139 171.227C710.139 171.227 714.235 159.763 710.027 156.956C705.82 154.149 699.579 155.609 700.956 163.91C702.661 174.243 710.139 171.227 710.139 171.227V171.227Z" fill="url(#paint24_linear_0_1)"/>
<path d="M756.516 308.097C756.586 308.097 756.663 308.097 756.733 308.097L850.738 308.006C853.065 308.006 854.945 306.121 854.938 303.81C854.938 301.492 853.044 299.579 850.724 299.621L756.719 299.712C754.392 299.712 752.512 301.597 752.519 303.908C752.519 306.156 754.294 307.985 756.516 308.097V308.097Z" fill="url(#paint25_linear_0_1)"/>
<path d="M887.135 216.133C887.1 216.196 887.072 216.259 887.037 216.329L847.481 301.52C846.503 303.628 847.418 306.121 849.522 307.098C851.625 308.076 854.162 307.168 855.106 305.053L894.662 219.862C895.64 217.753 894.725 215.261 892.621 214.283C890.58 213.341 888.176 214.171 887.135 216.14V216.133Z" fill="url(#paint26_linear_0_1)"/>
<path d="M798.372 312.816C797.959 314.512 758.739 461.478 748.794 498.732C747.648 503.026 750.848 507.243 755.244 507.243C758.312 507.243 760.982 505.135 761.73 502.125L805.269 325.767L798.372 312.816Z" fill="url(#paint27_linear_0_1)"/>
<path d="M819.848 312.816C820.26 314.512 859.481 461.478 869.426 498.732C870.572 503.026 867.371 507.243 862.975 507.243C859.907 507.243 857.237 505.135 856.49 502.125L812.95 325.767L819.848 312.816V312.816Z" fill="url(#paint28_linear_0_1)"/>
<path d="M821.483 308.005H797.058V327.603C797.058 330.417 799.315 332.707 802.103 332.707H805.458V376.727C805.458 378.856 807.17 380.587 809.274 380.587C811.384 380.587 813.09 378.856 813.09 376.727V332.707H814.788C818.485 332.707 821.483 329.677 821.483 325.934V308.005Z" fill="url(#paint29_linear_0_1)"/>
<path d="M736.99 303.3H873.395C875.303 303.3 876.966 304.605 877.442 306.469L879.343 313.933C880.027 316.621 878.015 319.232 875.268 319.218L735.306 318.408C732.594 318.394 730.616 315.811 731.273 313.151L732.929 306.504C733.398 304.626 735.068 303.314 736.983 303.314L736.99 303.3Z" fill="url(#paint30_linear_0_1)"/>
<defs>
<linearGradient id="paint0_linear_0_1" x1="-52.199" y1="750.718" x2="484.933" y2="-93.9785" gradientUnits="userSpaceOnUse">
<stop offset="0.0104167" stop-color="#9F71E9"/>
<stop offset="0.333333" stop-color="#504EDB"/>
<stop offset="0.645833" stop-color="#3580C6"/>
<stop offset="1" stop-color="#26ADE2"/>
</linearGradient>
<linearGradient id="paint1_linear_0_1" x1="538.099" y1="357.778" x2="740.504" y2="489.121" gradientUnits="userSpaceOnUse">
<stop stop-color="#CB236D"/>
<stop offset="1" stop-color="#4C246D"/>
</linearGradient>
<linearGradient id="paint2_linear_0_1" x1="432.129" y1="354.986" x2="730.691" y2="404.352" gradientUnits="userSpaceOnUse">
<stop stop-color="#CB236D"/>
<stop offset="1" stop-color="#6C246D"/>
</linearGradient>
<linearGradient id="paint3_linear_0_1" x1="635.717" y1="497.497" x2="629.035" y2="370.45" gradientUnits="userSpaceOnUse">
<stop stop-color="#CB236D"/>
<stop offset="1" stop-color="#785BEA"/>
</linearGradient>
<linearGradient id="paint4_linear_0_1" x1="473.209" y1="399.613" x2="680.539" y2="505.078" gradientUnits="userSpaceOnUse">
<stop stop-color="#A737D5"/>
<stop offset="1" stop-color="#EF497A"/>
</linearGradient>
<linearGradient id="paint5_linear_0_1" x1="570.149" y1="373.904" x2="437.037" y2="256.076" gradientUnits="userSpaceOnUse">
<stop stop-color="#2F626D"/>
<stop offset="1" stop-color="#49F56F"/>
</linearGradient>
<linearGradient id="paint6_linear_0_1" x1="586.959" y1="332.504" x2="410.338" y2="231.709" gradientUnits="userSpaceOnUse">
<stop stop-color="#2F626D"/>
<stop offset="1" stop-color="#49F56F"/>
</linearGradient>
<linearGradient id="paint7_linear_0_1" x1="558.451" y1="553.245" x2="855.751" y2="444.189" gradientUnits="userSpaceOnUse">
<stop offset="0.0104167" stop-color="#B7FFE5"/>
<stop offset="0.333333" stop-color="#1DAB89"/>
<stop offset="0.645833" stop-color="#0FD096"/>
<stop offset="1" stop-color="#B1F0B0"/>
</linearGradient>
<linearGradient id="paint8_linear_0_1" x1="619.643" y1="364.292" x2="530.455" y2="566.346" gradientUnits="userSpaceOnUse">
<stop stop-color="#FDF53F"/>
<stop offset="0.66" stop-color="#E57A58"/>
<stop offset="1" stop-color="#D93C65"/>
</linearGradient>
<linearGradient id="paint9_linear_0_1" x1="693.387" y1="396.848" x2="604.193" y2="598.902" gradientUnits="userSpaceOnUse">
<stop stop-color="#FDF53F"/>
<stop offset="0.66" stop-color="#E57A58"/>
<stop offset="1" stop-color="#D93C65"/>
</linearGradient>
<linearGradient id="paint10_linear_0_1" x1="607.419" y1="482.8" x2="623.065" y2="407.635" gradientUnits="userSpaceOnUse">
<stop stop-color="#FDF53F"/>
<stop offset="0.66" stop-color="#E57A58"/>
<stop offset="1" stop-color="#D93C65"/>
</linearGradient>
<linearGradient id="paint11_linear_0_1" x1="716.862" y1="499.856" x2="779.963" y2="499.856" gradientUnits="userSpaceOnUse">
<stop stop-color="#CB236D"/>
<stop offset="1" stop-color="#4C246D"/>
</linearGradient>
<linearGradient id="paint12_linear_0_1" x1="765.476" y1="378.647" x2="748.268" y2="497.648" gradientUnits="userSpaceOnUse">
<stop stop-color="#CB236D"/>
<stop offset="1" stop-color="#4C246D"/>
</linearGradient>
<linearGradient id="paint13_linear_0_1" x1="720.014" y1="480.859" x2="737.088" y2="480.859" gradientUnits="userSpaceOnUse">
<stop stop-color="#F9B776"/>
<stop offset="1" stop-color="#F47960"/>
</linearGradient>
<linearGradient id="paint14_linear_0_1" x1="815.829" y1="487.366" x2="866.777" y2="487.366" gradientUnits="userSpaceOnUse">
<stop stop-color="#CB236D"/>
<stop offset="1" stop-color="#4C246D"/>
</linearGradient>
<linearGradient id="paint15_linear_0_1" x1="850.878" y1="390.99" x2="833.67" y2="509.999" gradientUnits="userSpaceOnUse">
<stop stop-color="#CB236D"/>
<stop offset="1" stop-color="#4C246D"/>
</linearGradient>
<linearGradient id="paint16_linear_0_1" x1="625.611" y1="403.9" x2="760.758" y2="403.9" gradientUnits="userSpaceOnUse">
<stop stop-color="#2B3582"/>
<stop offset="1" stop-color="#150E42"/>
</linearGradient>
<linearGradient id="paint17_linear_0_1" x1="800.88" y1="482.297" x2="821.267" y2="482.297" gradientUnits="userSpaceOnUse">
<stop stop-color="#F9B776"/>
<stop offset="1" stop-color="#F47960"/>
</linearGradient>
<linearGradient id="paint18_linear_0_1" x1="748.374" y1="347.648" x2="600.164" y2="515.852" gradientUnits="userSpaceOnUse">
<stop stop-color="#2B3582"/>
<stop offset="1" stop-color="#150E42"/>
</linearGradient>
<linearGradient id="paint19_linear_0_1" x1="671.869" y1="180.987" x2="722.663" y2="180.987" gradientUnits="userSpaceOnUse">
<stop stop-color="#F9B776"/>
<stop offset="1" stop-color="#F47960"/>
</linearGradient>
<linearGradient id="paint20_linear_0_1" x1="693.188" y1="210.512" x2="596.95" y2="334.516" gradientUnits="userSpaceOnUse">
<stop stop-color="#FAE09F"/>
<stop offset="0.195312" stop-color="#FFDD75"/>
<stop offset="0.674479" stop-color="#FFB23F"/>
<stop offset="1" stop-color="#DA9309"/>
</linearGradient>
<linearGradient id="paint21_linear_0_1" x1="773.513" y1="293.812" x2="820.596" y2="293.812" gradientUnits="userSpaceOnUse">
<stop stop-color="#F9B776"/>
<stop offset="1" stop-color="#F47960"/>
</linearGradient>
<linearGradient id="paint22_linear_0_1" x1="735.945" y1="148.136" x2="699.308" y2="214.635" gradientUnits="userSpaceOnUse">
<stop stop-color="#F9B776"/>
<stop offset="1" stop-color="#F47960"/>
</linearGradient>
<linearGradient id="paint23_linear_0_1" x1="703.399" y1="167.584" x2="757.564" y2="159.761" gradientUnits="userSpaceOnUse">
<stop stop-color="#2B3582"/>
<stop offset="1" stop-color="#150E42"/>
</linearGradient>
<linearGradient id="paint24_linear_0_1" x1="676.381" y1="205.168" x2="707.327" y2="162.616" gradientUnits="userSpaceOnUse">
<stop stop-color="#F9B776"/>
<stop offset="1" stop-color="#F47960"/>
</linearGradient>
<linearGradient id="paint25_linear_0_1" x1="-9317.65" y1="-10484.6" x2="-9151.38" y2="-10307" gradientUnits="userSpaceOnUse">
<stop stop-color="#9CFFFB"/>
<stop offset="1" stop-color="#9BFFFA"/>
</linearGradient>
<linearGradient id="paint26_linear_0_1" x1="14915.3" y1="-4362.85" x2="14684.1" y2="-4286.77" gradientUnits="userSpaceOnUse">
<stop stop-color="#9CFFFB"/>
<stop offset="1" stop-color="#9BFFFA"/>
</linearGradient>
<linearGradient id="paint27_linear_0_1" x1="781.41" y1="519.224" x2="790.798" y2="740.783" gradientUnits="userSpaceOnUse">
<stop stop-color="#53D8FF"/>
<stop offset="1" stop-color="#3840F7"/>
</linearGradient>
<linearGradient id="paint28_linear_0_1" x1="845.699" y1="516.501" x2="855.08" y2="738.06" gradientUnits="userSpaceOnUse">
<stop stop-color="#53D8FF"/>
<stop offset="1" stop-color="#3840F7"/>
</linearGradient>
<linearGradient id="paint29_linear_0_1" x1="817.751" y1="517.681" x2="827.132" y2="739.239" gradientUnits="userSpaceOnUse">
<stop stop-color="#53D8FF"/>
<stop offset="1" stop-color="#3840F7"/>
</linearGradient>
<linearGradient id="paint30_linear_0_1" x1="806.961" y1="302.427" x2="789.663" y2="430.462" gradientUnits="userSpaceOnUse">
<stop stop-color="#2B3582"/>
<stop offset="1" stop-color="#150E42"/>
</linearGradient>
</defs>
</svg>
