<svg width="12" height="14" viewBox="0 0 12 14" fill="none" xmlns="http://www.w3.org/2000/svg">
<path fill-rule="evenodd" clip-rule="evenodd" d="M1.6667 0.866714C1.22487 0.866714 0.866699 1.22489 0.866699 1.66671V6.99997V7.00005V12.3333C0.866699 12.7751 1.22487 13.1333 1.6667 13.1333H7.6667C8.58612 13.1333 9.46788 12.7681 10.118 12.1179C10.7681 11.4678 11.1334 10.5861 11.1334 9.66663C11.1334 8.74721 10.7681 7.86545 10.118 7.21533C9.93164 7.02897 9.72625 6.86602 9.50639 6.72837C10.122 6.08412 10.4667 5.22652 10.4667 4.33338C10.4667 3.41396 10.1015 2.5322 9.45134 1.88208C8.80121 1.23195 7.91945 0.866714 7.00003 0.866714H1.6667ZM2.4667 7.80005H7.00003C7.00799 7.80005 7.01594 7.80002 7.0239 7.79997H7.6667C8.16177 7.79997 8.63656 7.99663 8.98663 8.3467C9.3367 8.69677 9.53337 9.17156 9.53337 9.66663C9.53337 10.1617 9.3367 10.6365 8.98663 10.9866C8.63656 11.3366 8.16177 11.5333 7.6667 11.5333H2.4667V7.80005ZM7.01754 6.19997C7.50629 6.19539 7.97403 5.99925 8.31996 5.65331C8.67003 5.30325 8.8667 4.82845 8.8667 4.33338C8.8667 3.83831 8.67003 3.36352 8.31996 3.01345C7.9699 2.66338 7.4951 2.46671 7.00003 2.46671H2.4667V6.19997H7.01754Z" fill="#1E202D"/>
</svg>
