<svg width="14" height="12" viewBox="0 0 14 12" fill="none" xmlns="http://www.w3.org/2000/svg">
<path fill-rule="evenodd" clip-rule="evenodd" d="M1.33929 2.96691V0.785095H0.793834L0.256902 1.11322V1.61606L0.734175 1.33055H0.746959V2.96691H1.33929ZM4.41605 1.46282C3.97422 1.46282 3.61605 1.821 3.61605 2.26282C3.61605 2.70465 3.97422 3.06282 4.41605 3.06282H13.0827C13.5245 3.06282 13.8827 2.70465 13.8827 2.26282C13.8827 1.821 13.5245 1.46282 13.0827 1.46282H4.41605ZM4.41605 5.46283C3.97422 5.46283 3.61605 5.821 3.61605 6.26283C3.61605 6.70465 3.97422 7.06283 4.41605 7.06283H13.0827C13.5245 7.06283 13.8827 6.70465 13.8827 6.26283C13.8827 5.821 13.5245 5.46283 13.0827 5.46283H4.41605ZM3.61605 10.2628C3.61605 9.82099 3.97422 9.46282 4.41605 9.46282H13.0827C13.5245 9.46282 13.8827 9.82099 13.8827 10.2628C13.8827 10.7046 13.5245 11.0628 13.0827 11.0628H4.41605C3.97422 11.0628 3.61605 10.7046 3.61605 10.2628ZM0.159801 6.98505V6.55891L0.973722 5.88561C1.0277 5.84087 1.07386 5.79897 1.11222 5.7599C1.15128 5.72013 1.18111 5.67929 1.2017 5.63739C1.22301 5.59549 1.23366 5.54897 1.23366 5.49783C1.23366 5.44172 1.22159 5.39378 1.19744 5.35401C1.17401 5.31424 1.14134 5.2837 1.09943 5.26239C1.05753 5.24037 1.00923 5.22936 0.954545 5.22936C0.899858 5.22936 0.851563 5.24037 0.809659 5.26239C0.768466 5.28441 0.736506 5.31672 0.713778 5.35934C0.691051 5.40195 0.679688 5.4538 0.679688 5.51488H0.117188C0.117188 5.36147 0.151634 5.22936 0.220526 5.11857C0.289418 5.00777 0.386719 4.92255 0.512429 4.86289C0.638139 4.80323 0.785511 4.7734 0.954545 4.7734C1.12926 4.7734 1.28054 4.80145 1.40838 4.85756C1.53693 4.91296 1.63601 4.99108 1.70561 5.09194C1.77592 5.19279 1.81108 5.31104 1.81108 5.44669C1.81108 5.5305 1.79368 5.61395 1.75888 5.69705C1.72408 5.77944 1.66158 5.8707 1.57138 5.97084C1.48118 6.07098 1.35298 6.1903 1.18679 6.3288L0.982244 6.49925V6.51203H1.83452V6.98505H0.159801ZM0.553977 11.1265C0.6875 11.1854 0.840199 11.2149 1.01207 11.2149C1.19034 11.2149 1.34766 11.1868 1.48402 11.1307C1.62109 11.0746 1.72798 10.9972 1.80469 10.8985C1.8821 10.7998 1.92045 10.6865 1.91974 10.5586C1.92116 10.4251 1.87749 10.3143 1.78871 10.2263C1.69993 10.1375 1.56747 10.0835 1.39134 10.0643V10.0473C1.52131 10.0331 1.62855 9.98691 1.71307 9.90878C1.7983 9.83066 1.8402 9.73051 1.83878 9.60835C1.83949 9.48549 1.80469 9.37646 1.73438 9.28129C1.66477 9.18541 1.56783 9.11013 1.44354 9.05544C1.31996 9.00075 1.17756 8.97341 1.01634 8.97341C0.851563 8.97341 0.705611 9.00253 0.57848 9.06077C0.451349 9.11901 0.351207 9.19926 0.278054 9.30154C0.205611 9.40381 0.169034 9.52171 0.168324 9.65523H0.735085C0.735795 9.61119 0.748224 9.57213 0.772372 9.53804C0.79652 9.50395 0.829545 9.47732 0.871449 9.45814C0.914062 9.43896 0.962358 9.42938 1.01634 9.42938C1.06605 9.42938 1.10973 9.43861 1.14737 9.45708C1.18572 9.47554 1.21555 9.50111 1.23686 9.53378C1.25817 9.56645 1.26847 9.60409 1.26776 9.64671C1.26847 9.69074 1.25604 9.7298 1.23047 9.76389C1.20561 9.79799 1.17045 9.82462 1.125 9.84379C1.08026 9.86297 1.02841 9.87256 0.96946 9.87256H0.747869V10.2816H0.96946C1.03338 10.2816 1.08984 10.2912 1.13885 10.3104C1.18786 10.3296 1.22585 10.3562 1.25284 10.3903C1.28054 10.4244 1.29403 10.4635 1.29332 10.5075C1.29403 10.5522 1.28267 10.592 1.25923 10.6268C1.2358 10.6616 1.20312 10.689 1.16122 10.7089C1.11932 10.728 1.07102 10.7376 1.01634 10.7376C0.959517 10.7376 0.909091 10.7284 0.865057 10.7099C0.821023 10.6915 0.786222 10.6659 0.760653 10.6332C0.735795 10.5998 0.723011 10.5622 0.722301 10.5203H0.12571C0.12642 10.6559 0.164773 10.776 0.240767 10.8804C0.316761 10.9848 0.421165 11.0668 0.553977 11.1265Z" fill="#1E202D"/>
</svg>
