<svg width="14" height="10" viewBox="0 0 14 10" fill="none" xmlns="http://www.w3.org/2000/svg">
<path fill-rule="evenodd" clip-rule="evenodd" d="M0.999951 0.199997C0.558123 0.199997 0.199951 0.558169 0.199951 0.999997C0.199951 1.44182 0.558123 1.8 0.999951 1.8H1.00995C1.45178 1.8 1.80995 1.44182 1.80995 0.999997C1.80995 0.558169 1.45178 0.199997 1.00995 0.199997H0.999951ZM4.33333 0.199997C3.8915 0.199997 3.53333 0.558169 3.53333 0.999997C3.53333 1.44182 3.8915 1.8 4.33333 1.8H13C13.4418 1.8 13.8 1.44182 13.8 0.999997C13.8 0.558169 13.4418 0.199997 13 0.199997H4.33333ZM4.33333 4.2C3.8915 4.2 3.53333 4.55817 3.53333 5C3.53333 5.44182 3.8915 5.8 4.33333 5.8H13C13.4418 5.8 13.8 5.44182 13.8 5C13.8 4.55817 13.4418 4.2 13 4.2H4.33333ZM3.53333 9C3.53333 8.55817 3.8915 8.2 4.33333 8.2H13C13.4418 8.2 13.8 8.55817 13.8 9C13.8 9.44182 13.4418 9.8 13 9.8H4.33333C3.8915 9.8 3.53333 9.44182 3.53333 9ZM0.199951 5C0.199951 4.55817 0.558123 4.2 0.999951 4.2H1.00995C1.45178 4.2 1.80995 4.55817 1.80995 5C1.80995 5.44182 1.45178 5.8 1.00995 5.8H0.999951C0.558123 5.8 0.199951 5.44182 0.199951 5ZM0.999951 8.2C0.558123 8.2 0.199951 8.55817 0.199951 9C0.199951 9.44182 0.558123 9.8 0.999951 9.8H1.00995C1.45178 9.8 1.80995 9.44182 1.80995 9C1.80995 8.55817 1.45178 8.2 1.00995 8.2H0.999951Z" fill="#1E202D"/>
</svg>
